<?xml version="1.0" encoding="UTF-8" standalone="no"?>
<!DOCTYPE svg PUBLIC "-//W3C//DTD SVG 1.1//EN"
 "http://www.w3.org/Graphics/SVG/1.1/DTD/svg11.dtd">
<!-- Generated by graphviz version 2.43.0 (0)
 -->
<!-- Title: E05 Pages: 1 -->
<svg width="736pt" height="838pt"
 viewBox="0.00 0.00 736.40 838.40" xmlns="http://www.w3.org/2000/svg" xmlns:xlink="http://www.w3.org/1999/xlink">
<g id="graph0" class="graph" transform="scale(1 1) rotate(0) translate(25.2 813.2)">
<title>E05</title>
<polygon fill="white" stroke="transparent" points="-25.2,25.2 -25.2,-813.2 711.2,-813.2 711.2,25.2 -25.2,25.2"/>
<!-- net__line -->
<g id="node1" class="node">
<title>net__line</title>
<polygon fill="#548235" stroke="transparent" points="460,-378.5 460,-382.5 552,-382.5 552,-378.5 460,-378.5"/>
<polygon fill="#e2efda" stroke="transparent" points="460,-349.5 460,-378.5 552,-378.5 552,-349.5 460,-349.5"/>
<text text-anchor="start" x="494.5" y="-365.7" font-family="DejaVu Sans" font-weight="bold" font-size="11.00">line</text>
<text text-anchor="start" x="499" y="-357.1" font-family="DejaVu Sans" font-size="8.00" fill="#595959">net</text>
<polygon fill="#ffffff" stroke="transparent" points="460,-332.5 460,-349.5 483,-349.5 483,-332.5 460,-332.5"/>
<text text-anchor="start" x="463" y="-339.5" font-family="DejaVu Sans" font-weight="bold" font-size="10.00" fill="#1f3a5f">PK</text>
<polygon fill="#ffffff" stroke="transparent" points="483,-332.5 483,-349.5 522,-349.5 522,-332.5 483,-332.5"/>
<text text-anchor="start" x="486" y="-339.5" font-family="DejaVu Sans" font-weight="bold" font-size="10.00">id</text>
<polygon fill="#ffffff" stroke="transparent" points="522,-332.5 522,-349.5 552,-349.5 552,-332.5 522,-332.5"/>
<text text-anchor="start" x="525" y="-339.1" font-family="DejaVu Sans" font-size="8.00" fill="#7f7f7f">bigint</text>
<polygon fill="#f2f6fa" stroke="transparent" points="460,-315.5 460,-332.5 483,-332.5 483,-315.5 460,-315.5"/>
<text text-anchor="start" x="463" y="-322.5" font-family="DejaVu Sans" font-weight="bold" font-size="10.00" fill="#548235">FK</text>
<polygon fill="#f2f6fa" stroke="transparent" points="483,-315.5 483,-332.5 522,-332.5 522,-315.5 483,-315.5"/>
<text text-anchor="start" x="486" y="-321.5" font-family="DejaVu Sans" font-size="10.00">city_id</text>
<polygon fill="#f2f6fa" stroke="transparent" points="522,-315.5 522,-332.5 552,-332.5 552,-315.5 522,-315.5"/>
<text text-anchor="start" x="525" y="-322.1" font-family="DejaVu Sans" font-size="8.00" fill="#7f7f7f">bigint</text>
<polygon fill="#ffffff" stroke="transparent" points="460,-298.5 460,-315.5 483,-315.5 483,-298.5 460,-298.5"/>
<text text-anchor="start" x="463" y="-305.5" font-family="DejaVu Sans" font-weight="bold" font-size="10.00" fill="#595959">UQ</text>
<polygon fill="#ffffff" stroke="transparent" points="483,-298.5 483,-315.5 522,-315.5 522,-298.5 483,-298.5"/>
<text text-anchor="start" x="486" y="-305.5" font-family="DejaVu Sans" font-weight="bold" font-size="10.00">uid</text>
<polygon fill="#ffffff" stroke="transparent" points="522,-298.5 522,-315.5 552,-315.5 552,-298.5 522,-298.5"/>
<text text-anchor="start" x="525" y="-305.1" font-family="DejaVu Sans" font-size="8.00" fill="#7f7f7f">uuid</text>
<polygon fill="#f2f6fa" stroke="transparent" points="460,-281.5 460,-298.5 483,-298.5 483,-281.5 460,-281.5"/>
<text text-anchor="start" x="463" y="-288.5" font-family="DejaVu Sans" font-weight="bold" font-size="10.00" fill="#595959">UQ</text>
<polygon fill="#f2f6fa" stroke="transparent" points="483,-281.5 483,-298.5 522,-298.5 522,-281.5 483,-281.5"/>
<text text-anchor="start" x="486" y="-288.5" font-family="DejaVu Sans" font-weight="bold" font-size="10.00">code</text>
<polygon fill="#f2f6fa" stroke="transparent" points="522,-281.5 522,-298.5 552,-298.5 552,-281.5 522,-281.5"/>
<text text-anchor="start" x="525" y="-288.1" font-family="DejaVu Sans" font-size="8.00" fill="#7f7f7f">text</text>
<polygon fill="#ffffff" stroke="transparent" points="460,-264.5 460,-281.5 483,-281.5 483,-264.5 460,-264.5"/>
<polygon fill="#ffffff" stroke="transparent" points="483,-264.5 483,-281.5 522,-281.5 522,-264.5 483,-264.5"/>
<text text-anchor="start" x="486" y="-271.5" font-family="DejaVu Sans" font-weight="bold" font-size="10.00">name</text>
<polygon fill="#ffffff" stroke="transparent" points="522,-264.5 522,-281.5 552,-281.5 552,-264.5 522,-264.5"/>
<text text-anchor="start" x="525" y="-271.1" font-family="DejaVu Sans" font-size="8.00" fill="#7f7f7f">text</text>
<polygon fill="#ffffff" stroke="transparent" points="460,-249.5 460,-264.5 552,-264.5 552,-249.5 460,-249.5"/>
<text text-anchor="start" x="463" y="-256.1" font-family="DejaVu Sans" font-style="italic" font-size="8.00" fill="#7f7f7f">+ 4 more columns</text>
<path fill="none" stroke="#404040" d="M471,-249C471,-249 541,-249 541,-249 547,-249 553,-255 553,-261 553,-261 553,-372 553,-372 553,-378 547,-384 541,-384 541,-384 471,-384 471,-384 465,-384 459,-378 459,-372 459,-372 459,-261 459,-261 459,-255 465,-249 471,-249"/>
</g>
<!-- ref__city -->
<g id="node12" class="node">
<title>ref__city</title>
<path fill="#f7f7f7" stroke="#8c8c8c" stroke-dasharray="5,2" d="M674,-334.5C674,-334.5 644,-334.5 644,-334.5 638,-334.5 632,-328.5 632,-322.5 632,-322.5 632,-310.5 632,-310.5 632,-304.5 638,-298.5 644,-298.5 644,-298.5 674,-298.5 674,-298.5 680,-298.5 686,-304.5 686,-310.5 686,-310.5 686,-322.5 686,-322.5 686,-328.5 680,-334.5 674,-334.5"/>
<text text-anchor="middle" x="659" y="-314.3" font-family="DejaVu Sans" font-size="9.00" fill="#404040">ref.city</text>
</g>
<!-- net__line&#45;&gt;ref__city -->
<g id="edge1" class="edge">
<title>net__line&#45;&gt;ref__city</title>
<path fill="none" stroke="#595959" stroke-width="1.1" stroke-dasharray="5,2" d="M567.55,-316.5C567.55,-316.5 621.41,-316.5 621.41,-316.5"/>
<polygon fill="#595959" stroke="#595959" stroke-width="1.1" points="623.81,-316.5 631.81,-320.1 627.81,-316.5 631.81,-316.5 631.81,-316.5 631.81,-316.5 627.81,-316.5 631.81,-312.9 623.81,-316.5 623.81,-316.5"/>
<ellipse fill="none" stroke="#595959" stroke-width="1.1" cx="620.61" cy="-316.5" rx="3.2" ry="3.2"/>
<polygon fill="#595959" stroke="#595959" stroke-width="1.1" points="553.95,-320.5 553.95,-312.5 555.55,-312.5 555.55,-320.5 553.95,-320.5"/>
<polyline fill="none" stroke="#595959" stroke-width="1.1" points="553.15,-316.5 557.15,-316.5 "/>
<ellipse fill="none" stroke="#595959" stroke-width="1.1" cx="560.35" cy="-316.5" rx="3.2" ry="3.2"/>
</g>
<!-- net__line_version -->
<g id="node2" class="node">
<title>net__line_version</title>
<polygon fill="#548235" stroke="transparent" points="258.5,-665.5 258.5,-669.5 354.5,-669.5 354.5,-665.5 258.5,-665.5"/>
<polygon fill="#e2efda" stroke="transparent" points="258.5,-636.5 258.5,-665.5 354.5,-665.5 354.5,-636.5 258.5,-636.5"/>
<text text-anchor="start" x="269.5" y="-652.7" font-family="DejaVu Sans" font-weight="bold" font-size="11.00">line_version</text>
<text text-anchor="start" x="299.5" y="-644.1" font-family="DejaVu Sans" font-size="8.00" fill="#595959">net</text>
<polygon fill="#ffffff" stroke="transparent" points="258.5,-619.5 258.5,-636.5 280.5,-636.5 280.5,-619.5 258.5,-619.5"/>
<text text-anchor="start" x="261.5" y="-626.5" font-family="DejaVu Sans" font-weight="bold" font-size="10.00" fill="#1f3a5f">PK</text>
<polygon fill="#ffffff" stroke="transparent" points="280.5,-619.5 280.5,-636.5 324.5,-636.5 324.5,-619.5 280.5,-619.5"/>
<text text-anchor="start" x="283.5" y="-626.5" font-family="DejaVu Sans" font-weight="bold" font-size="10.00">id</text>
<polygon fill="#ffffff" stroke="transparent" points="324.5,-619.5 324.5,-636.5 354.5,-636.5 354.5,-619.5 324.5,-619.5"/>
<text text-anchor="start" x="327.5" y="-626.1" font-family="DejaVu Sans" font-size="8.00" fill="#7f7f7f">bigint</text>
<polygon fill="#f2f6fa" stroke="transparent" points="258.5,-602.5 258.5,-619.5 280.5,-619.5 280.5,-602.5 258.5,-602.5"/>
<text text-anchor="start" x="261.5" y="-609.5" font-family="DejaVu Sans" font-weight="bold" font-size="10.00" fill="#548235">FK</text>
<polygon fill="#f2f6fa" stroke="transparent" points="280.5,-602.5 280.5,-619.5 324.5,-619.5 324.5,-602.5 280.5,-602.5"/>
<text text-anchor="start" x="283.5" y="-609.5" font-family="DejaVu Sans" font-weight="bold" font-size="10.00">line_id</text>
<polygon fill="#f2f6fa" stroke="transparent" points="324.5,-602.5 324.5,-619.5 354.5,-619.5 354.5,-602.5 324.5,-602.5"/>
<text text-anchor="start" x="327.5" y="-609.1" font-family="DejaVu Sans" font-size="8.00" fill="#7f7f7f">bigint</text>
<polygon fill="#ffffff" stroke="transparent" points="258.5,-585.5 258.5,-602.5 280.5,-602.5 280.5,-585.5 258.5,-585.5"/>
<polygon fill="#ffffff" stroke="transparent" points="280.5,-585.5 280.5,-602.5 324.5,-602.5 324.5,-585.5 280.5,-585.5"/>
<text text-anchor="start" x="283.5" y="-592.5" font-family="DejaVu Sans" font-weight="bold" font-size="10.00">status</text>
<polygon fill="#ffffff" stroke="transparent" points="324.5,-585.5 324.5,-602.5 354.5,-602.5 354.5,-585.5 324.5,-585.5"/>
<text text-anchor="start" x="327.5" y="-592.1" font-family="DejaVu Sans" font-size="8.00" fill="#7f7f7f">text</text>
<polygon fill="#ffffff" stroke="transparent" points="258.5,-570.5 258.5,-585.5 354.5,-585.5 354.5,-570.5 258.5,-570.5"/>
<text text-anchor="start" x="261.5" y="-577.1" font-family="DejaVu Sans" font-style="italic" font-size="8.00" fill="#7f7f7f">+ 7 more columns</text>
<path fill="none" stroke="#404040" d="M269.5,-570C269.5,-570 343.5,-570 343.5,-570 349.5,-570 355.5,-576 355.5,-582 355.5,-582 355.5,-659 355.5,-659 355.5,-665 349.5,-671 343.5,-671 343.5,-671 269.5,-671 269.5,-671 263.5,-671 257.5,-665 257.5,-659 257.5,-659 257.5,-582 257.5,-582 257.5,-576 263.5,-570 269.5,-570"/>
</g>
<!-- net__line_version&#45;&gt;net__line -->
<g id="edge2" class="edge">
<title>net__line_version&#45;&gt;net__line</title>
<path fill="none" stroke="#595959" stroke-width="1.1" d="M369.96,-620.5C369.96,-620.5 506,-620.5 506,-620.5 506,-620.5 506,-392.35 506,-392.35"/>
<polygon fill="#595959" stroke="#595959" stroke-width="1.1" points="363.56,-620.5 355.56,-616.9 359.56,-620.5 355.56,-620.5 355.56,-620.5 355.56,-620.5 359.56,-620.5 355.56,-624.1 363.56,-620.5 363.56,-620.5"/>
<ellipse fill="none" stroke="#595959" stroke-width="1.1" cx="366.76" cy="-620.5" rx="3.2" ry="3.2"/>
<polygon fill="#595959" stroke="#595959" stroke-width="1.1" points="502,-385.15 510,-385.15 510,-386.75 502,-386.75 502,-385.15"/>
<polyline fill="none" stroke="#595959" stroke-width="1.1" points="506,-384.35 506,-388.35 "/>
<polygon fill="#595959" stroke="#595959" stroke-width="1.1" points="502,-389.15 510,-389.15 510,-390.75 502,-390.75 502,-389.15"/>
<polyline fill="none" stroke="#595959" stroke-width="1.1" points="506,-388.35 506,-392.35 "/>
</g>
<!-- net__line_version_approval -->
<g id="node3" class="node">
<title>net__line_version_approval</title>
<polygon fill="#548235" stroke="transparent" points="6,-782.5 6,-786.5 149,-786.5 149,-782.5 6,-782.5"/>
<polygon fill="#e2efda" stroke="transparent" points="6,-753.5 6,-782.5 149,-782.5 149,-753.5 6,-753.5"/>
<text text-anchor="start" x="11" y="-769.7" font-family="DejaVu Sans" font-weight="bold" font-size="11.00">line_version_approval</text>
<text text-anchor="start" x="70.5" y="-761.1" font-family="DejaVu Sans" font-size="8.00" fill="#595959">net</text>
<polygon fill="#ffffff" stroke="transparent" points="6,-736.5 6,-753.5 28,-753.5 28,-736.5 6,-736.5"/>
<text text-anchor="start" x="9" y="-743.5" font-family="DejaVu Sans" font-weight="bold" font-size="10.00" fill="#1f3a5f">PK</text>
<polygon fill="#ffffff" stroke="transparent" points="28,-736.5 28,-753.5 119,-753.5 119,-736.5 28,-736.5"/>
<text text-anchor="start" x="31" y="-743.5" font-family="DejaVu Sans" font-weight="bold" font-size="10.00">line_version_id</text>
<polygon fill="#ffffff" stroke="transparent" points="119,-736.5 119,-753.5 149,-753.5 149,-736.5 119,-736.5"/>
<text text-anchor="start" x="122" y="-743.1" font-family="DejaVu Sans" font-size="8.00" fill="#7f7f7f">bigint</text>
<polygon fill="#f2f6fa" stroke="transparent" points="6,-719.5 6,-736.5 28,-736.5 28,-719.5 6,-719.5"/>
<text text-anchor="start" x="9" y="-726.5" font-family="DejaVu Sans" font-weight="bold" font-size="10.00" fill="#1f3a5f">PK</text>
<polygon fill="#f2f6fa" stroke="transparent" points="28,-719.5 28,-736.5 119,-736.5 119,-719.5 28,-719.5"/>
<text text-anchor="start" x="31" y="-726.5" font-family="DejaVu Sans" font-weight="bold" font-size="10.00">user_id</text>
<polygon fill="#f2f6fa" stroke="transparent" points="119,-719.5 119,-736.5 149,-736.5 149,-719.5 119,-719.5"/>
<text text-anchor="start" x="122" y="-726.1" font-family="DejaVu Sans" font-size="8.00" fill="#7f7f7f">bigint</text>
<polygon fill="#ffffff" stroke="transparent" points="6,-702.5 6,-719.5 28,-719.5 28,-702.5 6,-702.5"/>
<polygon fill="#ffffff" stroke="transparent" points="28,-702.5 28,-719.5 119,-719.5 119,-702.5 28,-702.5"/>
<text text-anchor="start" x="31" y="-709.5" font-family="DejaVu Sans" font-weight="bold" font-size="10.00">role</text>
<polygon fill="#ffffff" stroke="transparent" points="119,-702.5 119,-719.5 149,-719.5 149,-702.5 119,-702.5"/>
<text text-anchor="start" x="122" y="-709.1" font-family="DejaVu Sans" font-size="8.00" fill="#7f7f7f">text</text>
<polygon fill="#ffffff" stroke="transparent" points="6,-687.5 6,-702.5 149,-702.5 149,-687.5 6,-687.5"/>
<text text-anchor="start" x="9" y="-694.1" font-family="DejaVu Sans" font-style="italic" font-size="8.00" fill="#7f7f7f">+ 1 more column</text>
<path fill="none" stroke="#404040" d="M16.5,-687C16.5,-687 137.5,-687 137.5,-687 143.5,-687 149.5,-693 149.5,-699 149.5,-699 149.5,-776 149.5,-776 149.5,-782 143.5,-788 137.5,-788 137.5,-788 16.5,-788 16.5,-788 10.5,-788 4.5,-782 4.5,-776 4.5,-776 4.5,-699 4.5,-699 4.5,-693 10.5,-687 16.5,-687"/>
</g>
<!-- net__line_version_approval&#45;&gt;net__line_version -->
<g id="edge3" class="edge">
<title>net__line_version_approval&#45;&gt;net__line_version</title>
<path fill="none" stroke="#548235" stroke-width="2.2" d="M164.11,-703.25C164.11,-703.25 263,-703.25 263,-703.25 263,-703.25 263,-679.02 263,-679.02"/>
<polygon fill="#548235" stroke="#548235" stroke-width="2.2" points="157.71,-703.25 149.71,-699.65 153.71,-703.25 149.71,-703.25 149.71,-703.25 149.71,-703.25 153.71,-703.25 149.71,-706.85 157.71,-703.25 157.71,-703.25"/>
<ellipse fill="none" stroke="#548235" stroke-width="2.2" cx="160.91" cy="-703.25" rx="3.2" ry="3.2"/>
<polygon fill="#548235" stroke="#548235" stroke-width="2.2" points="259,-671.82 267,-671.82 267,-673.42 259,-673.42 259,-671.82"/>
<polyline fill="none" stroke="#548235" stroke-width="2.2" points="263,-671.02 263,-675.02 "/>
<polygon fill="#548235" stroke="#548235" stroke-width="2.2" points="259,-675.82 267,-675.82 267,-677.42 259,-677.42 259,-675.82"/>
<polyline fill="none" stroke="#548235" stroke-width="2.2" points="263,-675.02 263,-679.02 "/>
</g>
<!-- iam__app_user -->
<g id="node9" class="node">
<title>iam__app_user</title>
<path fill="#f7f7f7" stroke="#8c8c8c" stroke-dasharray="5,2" d="M334,-755.5C334,-755.5 279,-755.5 279,-755.5 273,-755.5 267,-749.5 267,-743.5 267,-743.5 267,-731.5 267,-731.5 267,-725.5 273,-719.5 279,-719.5 279,-719.5 334,-719.5 334,-719.5 340,-719.5 346,-725.5 346,-731.5 346,-731.5 346,-743.5 346,-743.5 346,-749.5 340,-755.5 334,-755.5"/>
<text text-anchor="middle" x="306.5" y="-735.3" font-family="DejaVu Sans" font-size="9.00" fill="#404040">iam.app_user</text>
</g>
<!-- net__line_version_approval&#45;&gt;iam__app_user -->
<g id="edge4" class="edge">
<title>net__line_version_approval&#45;&gt;iam__app_user</title>
<path fill="none" stroke="#595959" stroke-width="1.1" stroke-dasharray="5,2" d="M164.02,-737.5C164.02,-737.5 258.72,-737.5 258.72,-737.5"/>
<polygon fill="#595959" stroke="#595959" stroke-width="1.1" points="258.72,-737.5 266.72,-741.1 262.72,-737.5 266.72,-737.5 266.72,-737.5 266.72,-737.5 262.72,-737.5 266.72,-733.9 258.72,-737.5 258.72,-737.5"/>
<ellipse fill="none" stroke="#595959" stroke-width="1.1" cx="255.52" cy="-737.5" rx="3.2" ry="3.2"/>
<polygon fill="#595959" stroke="#595959" stroke-width="1.1" points="150.42,-741.5 150.42,-733.5 152.02,-733.5 152.02,-741.5 150.42,-741.5"/>
<polyline fill="none" stroke="#595959" stroke-width="1.1" points="149.62,-737.5 153.62,-737.5 "/>
<polygon fill="#595959" stroke="#595959" stroke-width="1.1" points="154.42,-741.5 154.42,-733.5 156.02,-733.5 156.02,-741.5 154.42,-741.5"/>
<polyline fill="none" stroke="#595959" stroke-width="1.1" points="153.62,-737.5 157.62,-737.5 "/>
</g>
<!-- net__line_stop -->
<g id="node4" class="node">
<title>net__line_stop</title>
<polygon fill="#548235" stroke="transparent" points="1,-649.5 1,-653.5 153,-653.5 153,-649.5 1,-649.5"/>
<polygon fill="#e2efda" stroke="transparent" points="1,-620.5 1,-649.5 153,-649.5 153,-620.5 1,-620.5"/>
<text text-anchor="start" x="49.5" y="-636.7" font-family="DejaVu Sans" font-weight="bold" font-size="11.00">line_stop</text>
<text text-anchor="start" x="70" y="-628.1" font-family="DejaVu Sans" font-size="8.00" fill="#595959">net</text>
<polygon fill="#ffffff" stroke="transparent" points="1,-603.5 1,-620.5 23,-620.5 23,-603.5 1,-603.5"/>
<text text-anchor="start" x="4" y="-610.5" font-family="DejaVu Sans" font-weight="bold" font-size="10.00" fill="#1f3a5f">PK</text>
<polygon fill="#ffffff" stroke="transparent" points="23,-603.5 23,-620.5 114,-620.5 114,-603.5 23,-603.5"/>
<text text-anchor="start" x="26" y="-610.5" font-family="DejaVu Sans" font-weight="bold" font-size="10.00">line_version_id</text>
<polygon fill="#ffffff" stroke="transparent" points="114,-603.5 114,-620.5 153,-620.5 153,-603.5 114,-603.5"/>
<text text-anchor="start" x="117" y="-610.1" font-family="DejaVu Sans" font-size="8.00" fill="#7f7f7f">bigint</text>
<polygon fill="#f2f6fa" stroke="transparent" points="1,-586.5 1,-603.5 23,-603.5 23,-586.5 1,-586.5"/>
<text text-anchor="start" x="4" y="-593.5" font-family="DejaVu Sans" font-weight="bold" font-size="10.00" fill="#1f3a5f">PK</text>
<polygon fill="#f2f6fa" stroke="transparent" points="23,-586.5 23,-603.5 114,-603.5 114,-586.5 23,-586.5"/>
<text text-anchor="start" x="26" y="-593.5" font-family="DejaVu Sans" font-weight="bold" font-size="10.00">seq</text>
<polygon fill="#f2f6fa" stroke="transparent" points="114,-586.5 114,-603.5 153,-603.5 153,-586.5 114,-586.5"/>
<text text-anchor="start" x="117" y="-593.1" font-family="DejaVu Sans" font-size="8.00" fill="#7f7f7f">smallint</text>
<polygon fill="#ffffff" stroke="transparent" points="1,-569.5 1,-586.5 23,-586.5 23,-569.5 1,-569.5"/>
<text text-anchor="start" x="4" y="-576.5" font-family="DejaVu Sans" font-weight="bold" font-size="10.00" fill="#548235">FK</text>
<polygon fill="#ffffff" stroke="transparent" points="23,-569.5 23,-586.5 114,-586.5 114,-569.5 23,-569.5"/>
<text text-anchor="start" x="26" y="-576.5" font-family="DejaVu Sans" font-weight="bold" font-size="10.00">station_id</text>
<polygon fill="#ffffff" stroke="transparent" points="114,-569.5 114,-586.5 153,-586.5 153,-569.5 114,-569.5"/>
<text text-anchor="start" x="117" y="-576.1" font-family="DejaVu Sans" font-size="8.00" fill="#7f7f7f">bigint</text>
<polygon fill="#ffffff" stroke="transparent" points="1,-554.5 1,-569.5 153,-569.5 153,-554.5 1,-554.5"/>
<text text-anchor="start" x="4" y="-561.1" font-family="DejaVu Sans" font-style="italic" font-size="8.00" fill="#7f7f7f">+ 4 more columns</text>
<path fill="none" stroke="#404040" d="M12,-554C12,-554 142,-554 142,-554 148,-554 154,-560 154,-566 154,-566 154,-643 154,-643 154,-649 148,-655 142,-655 142,-655 12,-655 12,-655 6,-655 0,-649 0,-643 0,-643 0,-566 0,-566 0,-560 6,-554 12,-554"/>
</g>
<!-- net__line_stop&#45;&gt;net__line_version -->
<g id="edge5" class="edge">
<title>net__line_stop&#45;&gt;net__line_version</title>
<path fill="none" stroke="#548235" stroke-width="2.2" d="M168.46,-612.5C168.46,-612.5 249.36,-612.5 249.36,-612.5"/>
<polygon fill="#548235" stroke="#548235" stroke-width="2.2" points="249.36,-612.5 257.36,-616.1 253.36,-612.5 257.36,-612.5 257.36,-612.5 257.36,-612.5 253.36,-612.5 257.36,-608.9 249.36,-612.5 249.36,-612.5"/>
<ellipse fill="none" stroke="#548235" stroke-width="2.2" cx="246.16" cy="-612.5" rx="3.2" ry="3.2"/>
<polygon fill="#548235" stroke="#548235" stroke-width="2.2" points="154.86,-616.5 154.86,-608.5 156.46,-608.5 156.46,-616.5 154.86,-616.5"/>
<polyline fill="none" stroke="#548235" stroke-width="2.2" points="154.06,-612.5 158.06,-612.5 "/>
<polygon fill="#548235" stroke="#548235" stroke-width="2.2" points="158.86,-616.5 158.86,-608.5 160.46,-608.5 160.46,-616.5 158.86,-616.5"/>
<polyline fill="none" stroke="#548235" stroke-width="2.2" points="158.06,-612.5 162.06,-612.5 "/>
</g>
<!-- net__station -->
<g id="node11" class="node">
<title>net__station</title>
<path fill="#f7f7f7" stroke="#8c8c8c" stroke-dasharray="5,2" d="M328,-537.5C328,-537.5 285,-537.5 285,-537.5 279,-537.5 273,-531.5 273,-525.5 273,-525.5 273,-513.5 273,-513.5 273,-507.5 279,-501.5 285,-501.5 285,-501.5 328,-501.5 328,-501.5 334,-501.5 340,-507.5 340,-513.5 340,-513.5 340,-525.5 340,-525.5 340,-531.5 334,-537.5 328,-537.5"/>
<text text-anchor="middle" x="306.5" y="-517.3" font-family="DejaVu Sans" font-size="9.00" fill="#404040">net.station</text>
</g>
<!-- net__line_stop&#45;&gt;net__station -->
<g id="edge6" class="edge">
<title>net__line_stop&#45;&gt;net__station</title>
<path fill="none" stroke="#595959" stroke-width="1.1" stroke-dasharray="5,2" d="M150,-539.24C150,-539.24 150,-529.5 150,-529.5 150,-529.5 264.93,-529.5 264.93,-529.5"/>
<polygon fill="#595959" stroke="#595959" stroke-width="1.1" points="150,-545.64 146.4,-553.64 150,-549.64 150,-553.64 150,-553.64 150,-553.64 150,-549.64 153.6,-553.64 150,-545.64 150,-545.64"/>
<ellipse fill="none" stroke="#595959" stroke-width="1.1" cx="150" cy="-542.44" rx="3.2" ry="3.2"/>
<polygon fill="#595959" stroke="#595959" stroke-width="1.1" points="272.13,-525.5 272.13,-533.5 270.53,-533.5 270.53,-525.5 272.13,-525.5"/>
<polyline fill="none" stroke="#595959" stroke-width="1.1" points="272.93,-529.5 268.93,-529.5 "/>
<polygon fill="#595959" stroke="#595959" stroke-width="1.1" points="268.13,-525.5 268.13,-533.5 266.53,-533.5 266.53,-525.5 268.13,-525.5"/>
<polyline fill="none" stroke="#595959" stroke-width="1.1" points="268.93,-529.5 264.93,-529.5 "/>
</g>
<!-- net__line_permit -->
<g id="node5" class="node">
<title>net__line_permit</title>
<polygon fill="#548235" stroke="transparent" points="234.5,-129.5 234.5,-133.5 379.5,-133.5 379.5,-129.5 234.5,-129.5"/>
<polygon fill="#e2efda" stroke="transparent" points="234.5,-100.5 234.5,-129.5 379.5,-129.5 379.5,-100.5 234.5,-100.5"/>
<text text-anchor="start" x="272.5" y="-116.7" font-family="DejaVu Sans" font-weight="bold" font-size="11.00">line_permit</text>
<text text-anchor="start" x="300" y="-108.1" font-family="DejaVu Sans" font-size="8.00" fill="#595959">net</text>
<polygon fill="#ffffff" stroke="transparent" points="234.5,-83.5 234.5,-100.5 256.5,-100.5 256.5,-83.5 234.5,-83.5"/>
<text text-anchor="start" x="237.5" y="-90.5" font-family="DejaVu Sans" font-weight="bold" font-size="10.00" fill="#1f3a5f">PK</text>
<polygon fill="#ffffff" stroke="transparent" points="256.5,-83.5 256.5,-100.5 330.5,-100.5 330.5,-83.5 256.5,-83.5"/>
<text text-anchor="start" x="259.5" y="-90.5" font-family="DejaVu Sans" font-weight="bold" font-size="10.00">id</text>
<polygon fill="#ffffff" stroke="transparent" points="330.5,-83.5 330.5,-100.5 379.5,-100.5 379.5,-83.5 330.5,-83.5"/>
<text text-anchor="start" x="333.5" y="-90.1" font-family="DejaVu Sans" font-size="8.00" fill="#7f7f7f">bigint</text>
<polygon fill="#f2f6fa" stroke="transparent" points="234.5,-66.5 234.5,-83.5 256.5,-83.5 256.5,-66.5 234.5,-66.5"/>
<text text-anchor="start" x="237.5" y="-73.5" font-family="DejaVu Sans" font-weight="bold" font-size="10.00" fill="#548235">FK</text>
<polygon fill="#f2f6fa" stroke="transparent" points="256.5,-66.5 256.5,-83.5 330.5,-83.5 330.5,-66.5 256.5,-66.5"/>
<text text-anchor="start" x="259.5" y="-73.5" font-family="DejaVu Sans" font-weight="bold" font-size="10.00">line_id</text>
<polygon fill="#f2f6fa" stroke="transparent" points="330.5,-66.5 330.5,-83.5 379.5,-83.5 379.5,-66.5 330.5,-66.5"/>
<text text-anchor="start" x="333.5" y="-73.1" font-family="DejaVu Sans" font-size="8.00" fill="#7f7f7f">bigint</text>
<polygon fill="#ffffff" stroke="transparent" points="234.5,-49.5 234.5,-66.5 256.5,-66.5 256.5,-49.5 234.5,-49.5"/>
<text text-anchor="start" x="237.5" y="-56.5" font-family="DejaVu Sans" font-weight="bold" font-size="10.00" fill="#548235">FK</text>
<polygon fill="#ffffff" stroke="transparent" points="256.5,-49.5 256.5,-66.5 330.5,-66.5 330.5,-49.5 256.5,-49.5"/>
<text text-anchor="start" x="259.5" y="-56.5" font-family="DejaVu Sans" font-weight="bold" font-size="10.00">company_id</text>
<polygon fill="#ffffff" stroke="transparent" points="330.5,-49.5 330.5,-66.5 379.5,-66.5 379.5,-49.5 330.5,-49.5"/>
<text text-anchor="start" x="333.5" y="-56.1" font-family="DejaVu Sans" font-size="8.00" fill="#7f7f7f">bigint</text>
<polygon fill="#f2f6fa" stroke="transparent" points="234.5,-32.5 234.5,-49.5 256.5,-49.5 256.5,-32.5 234.5,-32.5"/>
<polygon fill="#f2f6fa" stroke="transparent" points="256.5,-32.5 256.5,-49.5 330.5,-49.5 330.5,-32.5 256.5,-32.5"/>
<text text-anchor="start" x="259.5" y="-39.5" font-family="DejaVu Sans" font-weight="bold" font-size="10.00">valid</text>
<polygon fill="#f2f6fa" stroke="transparent" points="330.5,-32.5 330.5,-49.5 379.5,-49.5 379.5,-32.5 330.5,-32.5"/>
<text text-anchor="start" x="333.5" y="-39.1" font-family="DejaVu Sans" font-size="8.00" fill="#7f7f7f">daterange</text>
<polygon fill="#ffffff" stroke="transparent" points="234.5,-15.5 234.5,-32.5 256.5,-32.5 256.5,-15.5 234.5,-15.5"/>
<polygon fill="#ffffff" stroke="transparent" points="256.5,-15.5 256.5,-32.5 330.5,-32.5 330.5,-15.5 256.5,-15.5"/>
<text text-anchor="start" x="259.5" y="-22.5" font-family="DejaVu Sans" font-weight="bold" font-size="10.00">status</text>
<polygon fill="#ffffff" stroke="transparent" points="330.5,-15.5 330.5,-32.5 379.5,-32.5 379.5,-15.5 330.5,-15.5"/>
<text text-anchor="start" x="333.5" y="-22.1" font-family="DejaVu Sans" font-size="8.00" fill="#7f7f7f">text</text>
<polygon fill="#ffffff" stroke="transparent" points="234.5,-0.5 234.5,-15.5 379.5,-15.5 379.5,-0.5 234.5,-0.5"/>
<text text-anchor="start" x="237.5" y="-7.1" font-family="DejaVu Sans" font-style="italic" font-size="8.00" fill="#7f7f7f">+ 4 more columns</text>
<path fill="none" stroke="#404040" d="M245,0C245,0 368,0 368,0 374,0 380,-6 380,-12 380,-12 380,-123 380,-123 380,-129 374,-135 368,-135 368,-135 245,-135 245,-135 239,-135 233,-129 233,-123 233,-123 233,-12 233,-12 233,-6 239,0 245,0"/>
</g>
<!-- net__line_permit&#45;&gt;net__line -->
<g id="edge8" class="edge">
<title>net__line_permit&#45;&gt;net__line</title>
<path fill="none" stroke="#595959" stroke-width="1.1" d="M394.57,-67.5C394.57,-67.5 463,-67.5 463,-67.5 463,-67.5 463,-240.79 463,-240.79"/>
<polygon fill="#595959" stroke="#595959" stroke-width="1.1" points="388.17,-67.5 380.17,-63.9 384.17,-67.5 380.17,-67.5 380.17,-67.5 380.17,-67.5 384.17,-67.5 380.17,-71.1 388.17,-67.5 388.17,-67.5"/>
<ellipse fill="none" stroke="#595959" stroke-width="1.1" cx="391.37" cy="-67.5" rx="3.2" ry="3.2"/>
<polygon fill="#595959" stroke="#595959" stroke-width="1.1" points="467,-247.99 459,-247.99 459,-246.39 467,-246.39 467,-247.99"/>
<polyline fill="none" stroke="#595959" stroke-width="1.1" points="463,-248.79 463,-244.79 "/>
<polygon fill="#595959" stroke="#595959" stroke-width="1.1" points="467,-243.99 459,-243.99 459,-242.39 467,-242.39 467,-243.99"/>
<polyline fill="none" stroke="#595959" stroke-width="1.1" points="463,-244.79 463,-240.79 "/>
</g>
<!-- iam__company -->
<g id="node10" class="node">
<title>iam__company</title>
<path fill="#f7f7f7" stroke="#8c8c8c" stroke-dasharray="5,2" d="M534,-187.5C534,-187.5 478,-187.5 478,-187.5 472,-187.5 466,-181.5 466,-175.5 466,-175.5 466,-163.5 466,-163.5 466,-157.5 472,-151.5 478,-151.5 478,-151.5 534,-151.5 534,-151.5 540,-151.5 546,-157.5 546,-163.5 546,-163.5 546,-175.5 546,-175.5 546,-181.5 540,-187.5 534,-187.5"/>
<text text-anchor="middle" x="506" y="-167.3" font-family="DejaVu Sans" font-size="9.00" fill="#404040">iam.company</text>
</g>
<!-- net__line_permit&#45;&gt;iam__company -->
<g id="edge7" class="edge">
<title>net__line_permit&#45;&gt;iam__company</title>
<path fill="none" stroke="#595959" stroke-width="1.1" stroke-dasharray="5,2" d="M307,-149.73C307,-149.73 307,-159.5 307,-159.5 307,-159.5 457.73,-159.5 457.73,-159.5"/>
<polygon fill="#595959" stroke="#595959" stroke-width="1.1" points="307,-143.33 310.6,-135.33 307,-139.33 307,-135.33 307,-135.33 307,-135.33 307,-139.33 303.4,-135.33 307,-143.33 307,-143.33"/>
<ellipse fill="none" stroke="#595959" stroke-width="1.1" cx="307" cy="-146.53" rx="3.2" ry="3.2"/>
<polygon fill="#595959" stroke="#595959" stroke-width="1.1" points="464.93,-155.5 464.93,-163.5 463.33,-163.5 463.33,-155.5 464.93,-155.5"/>
<polyline fill="none" stroke="#595959" stroke-width="1.1" points="465.73,-159.5 461.73,-159.5 "/>
<polygon fill="#595959" stroke="#595959" stroke-width="1.1" points="460.93,-155.5 460.93,-163.5 459.33,-163.5 459.33,-155.5 460.93,-155.5"/>
<polyline fill="none" stroke="#595959" stroke-width="1.1" points="461.73,-159.5 457.73,-159.5 "/>
</g>
<!-- net__line_tariff -->
<g id="node6" class="node">
<title>net__line_tariff</title>
<polygon fill="#548235" stroke="transparent" points="258.5,-464.5 258.5,-468.5 354.5,-468.5 354.5,-464.5 258.5,-464.5"/>
<polygon fill="#e2efda" stroke="transparent" points="258.5,-435.5 258.5,-464.5 354.5,-464.5 354.5,-435.5 258.5,-435.5"/>
<text text-anchor="start" x="277" y="-451.7" font-family="DejaVu Sans" font-weight="bold" font-size="11.00">line_tariff</text>
<text text-anchor="start" x="299.5" y="-443.1" font-family="DejaVu Sans" font-size="8.00" fill="#595959">net</text>
<polygon fill="#ffffff" stroke="transparent" points="258.5,-418.5 258.5,-435.5 280.5,-435.5 280.5,-418.5 258.5,-418.5"/>
<text text-anchor="start" x="261.5" y="-425.5" font-family="DejaVu Sans" font-weight="bold" font-size="10.00" fill="#1f3a5f">PK</text>
<polygon fill="#ffffff" stroke="transparent" points="280.5,-418.5 280.5,-435.5 324.5,-435.5 324.5,-418.5 280.5,-418.5"/>
<text text-anchor="start" x="283.5" y="-425.5" font-family="DejaVu Sans" font-weight="bold" font-size="10.00">id</text>
<polygon fill="#ffffff" stroke="transparent" points="324.5,-418.5 324.5,-435.5 354.5,-435.5 354.5,-418.5 324.5,-418.5"/>
<text text-anchor="start" x="327.5" y="-425.1" font-family="DejaVu Sans" font-size="8.00" fill="#7f7f7f">bigint</text>
<polygon fill="#f2f6fa" stroke="transparent" points="258.5,-401.5 258.5,-418.5 280.5,-418.5 280.5,-401.5 258.5,-401.5"/>
<text text-anchor="start" x="261.5" y="-408.5" font-family="DejaVu Sans" font-weight="bold" font-size="10.00" fill="#548235">FK</text>
<polygon fill="#f2f6fa" stroke="transparent" points="280.5,-401.5 280.5,-418.5 324.5,-418.5 324.5,-401.5 280.5,-401.5"/>
<text text-anchor="start" x="283.5" y="-408.5" font-family="DejaVu Sans" font-weight="bold" font-size="10.00">line_id</text>
<polygon fill="#f2f6fa" stroke="transparent" points="324.5,-401.5 324.5,-418.5 354.5,-418.5 354.5,-401.5 324.5,-401.5"/>
<text text-anchor="start" x="327.5" y="-408.1" font-family="DejaVu Sans" font-size="8.00" fill="#7f7f7f">bigint</text>
<polygon fill="#ffffff" stroke="transparent" points="258.5,-384.5 258.5,-401.5 280.5,-401.5 280.5,-384.5 258.5,-384.5"/>
<polygon fill="#ffffff" stroke="transparent" points="280.5,-384.5 280.5,-401.5 324.5,-401.5 324.5,-384.5 280.5,-384.5"/>
<text text-anchor="start" x="283.5" y="-391.5" font-family="DejaVu Sans" font-weight="bold" font-size="10.00">mode</text>
<polygon fill="#ffffff" stroke="transparent" points="324.5,-384.5 324.5,-401.5 354.5,-401.5 354.5,-384.5 324.5,-384.5"/>
<text text-anchor="start" x="327.5" y="-391.1" font-family="DejaVu Sans" font-size="8.00" fill="#7f7f7f">text</text>
<polygon fill="#f2f6fa" stroke="transparent" points="258.5,-367.5 258.5,-384.5 280.5,-384.5 280.5,-367.5 258.5,-367.5"/>
<polygon fill="#f2f6fa" stroke="transparent" points="280.5,-367.5 280.5,-384.5 324.5,-384.5 324.5,-367.5 280.5,-367.5"/>
<text text-anchor="start" x="283.5" y="-374.5" font-family="DejaVu Sans" font-weight="bold" font-size="10.00">status</text>
<polygon fill="#f2f6fa" stroke="transparent" points="324.5,-367.5 324.5,-384.5 354.5,-384.5 354.5,-367.5 324.5,-367.5"/>
<text text-anchor="start" x="327.5" y="-374.1" font-family="DejaVu Sans" font-size="8.00" fill="#7f7f7f">text</text>
<polygon fill="#ffffff" stroke="transparent" points="258.5,-352.5 258.5,-367.5 354.5,-367.5 354.5,-352.5 258.5,-352.5"/>
<text text-anchor="start" x="261.5" y="-359.1" font-family="DejaVu Sans" font-style="italic" font-size="8.00" fill="#7f7f7f">+ 6 more columns</text>
<path fill="none" stroke="#404040" d="M269.5,-351.5C269.5,-351.5 343.5,-351.5 343.5,-351.5 349.5,-351.5 355.5,-357.5 355.5,-363.5 355.5,-363.5 355.5,-457.5 355.5,-457.5 355.5,-463.5 349.5,-469.5 343.5,-469.5 343.5,-469.5 269.5,-469.5 269.5,-469.5 263.5,-469.5 257.5,-463.5 257.5,-457.5 257.5,-457.5 257.5,-363.5 257.5,-363.5 257.5,-357.5 263.5,-351.5 269.5,-351.5"/>
</g>
<!-- net__line_tariff&#45;&gt;net__line -->
<g id="edge9" class="edge">
<title>net__line_tariff&#45;&gt;net__line</title>
<path fill="none" stroke="#595959" stroke-width="1.1" d="M369.96,-367.75C369.96,-367.75 450.85,-367.75 450.85,-367.75"/>
<polygon fill="#595959" stroke="#595959" stroke-width="1.1" points="450.85,-367.75 458.85,-371.35 454.85,-367.75 458.85,-367.75 458.85,-367.75 458.85,-367.75 454.85,-367.75 458.85,-364.15 450.85,-367.75 450.85,-367.75"/>
<ellipse fill="none" stroke="#595959" stroke-width="1.1" cx="447.65" cy="-367.75" rx="3.2" ry="3.2"/>
<polygon fill="#595959" stroke="#595959" stroke-width="1.1" points="356.36,-371.75 356.36,-363.75 357.96,-363.75 357.96,-371.75 356.36,-371.75"/>
<polyline fill="none" stroke="#595959" stroke-width="1.1" points="355.56,-367.75 359.56,-367.75 "/>
<polygon fill="#595959" stroke="#595959" stroke-width="1.1" points="360.36,-371.75 360.36,-363.75 361.96,-363.75 361.96,-371.75 360.36,-371.75"/>
<polyline fill="none" stroke="#595959" stroke-width="1.1" points="359.56,-367.75 363.56,-367.75 "/>
</g>
<!-- net__line_fare -->
<g id="node7" class="node">
<title>net__line_fare</title>
<polygon fill="#548235" stroke="transparent" points="10,-516.5 10,-520.5 145,-520.5 145,-516.5 10,-516.5"/>
<polygon fill="#e2efda" stroke="transparent" points="10,-487.5 10,-516.5 145,-516.5 145,-487.5 10,-487.5"/>
<text text-anchor="start" x="51" y="-503.7" font-family="DejaVu Sans" font-weight="bold" font-size="11.00">line_fare</text>
<text text-anchor="start" x="70.5" y="-495.1" font-family="DejaVu Sans" font-size="8.00" fill="#595959">net</text>
<polygon fill="#ffffff" stroke="transparent" points="10,-470.5 10,-487.5 32,-487.5 32,-470.5 10,-470.5"/>
<text text-anchor="start" x="13" y="-477.5" font-family="DejaVu Sans" font-weight="bold" font-size="10.00" fill="#1f3a5f">PK</text>
<polygon fill="#ffffff" stroke="transparent" points="32,-470.5 32,-487.5 115,-487.5 115,-470.5 32,-470.5"/>
<text text-anchor="start" x="35" y="-477.5" font-family="DejaVu Sans" font-weight="bold" font-size="10.00">id</text>
<polygon fill="#ffffff" stroke="transparent" points="115,-470.5 115,-487.5 145,-487.5 145,-470.5 115,-470.5"/>
<text text-anchor="start" x="118" y="-477.1" font-family="DejaVu Sans" font-size="8.00" fill="#7f7f7f">bigint</text>
<polygon fill="#f2f6fa" stroke="transparent" points="10,-453.5 10,-470.5 32,-470.5 32,-453.5 10,-453.5"/>
<text text-anchor="start" x="13" y="-460.5" font-family="DejaVu Sans" font-weight="bold" font-size="10.00" fill="#548235">FK</text>
<polygon fill="#f2f6fa" stroke="transparent" points="32,-453.5 32,-470.5 115,-470.5 115,-453.5 32,-453.5"/>
<text text-anchor="start" x="35" y="-460.5" font-family="DejaVu Sans" font-weight="bold" font-size="10.00">tariff_id</text>
<polygon fill="#f2f6fa" stroke="transparent" points="115,-453.5 115,-470.5 145,-470.5 145,-453.5 115,-453.5"/>
<text text-anchor="start" x="118" y="-460.1" font-family="DejaVu Sans" font-size="8.00" fill="#7f7f7f">bigint</text>
<polygon fill="#ffffff" stroke="transparent" points="10,-436.5 10,-453.5 32,-453.5 32,-436.5 10,-436.5"/>
<text text-anchor="start" x="13" y="-443.5" font-family="DejaVu Sans" font-weight="bold" font-size="10.00" fill="#548235">FK</text>
<polygon fill="#ffffff" stroke="transparent" points="32,-436.5 32,-453.5 115,-453.5 115,-436.5 32,-436.5"/>
<text text-anchor="start" x="35" y="-442.5" font-family="DejaVu Sans" font-size="10.00">from_station_id</text>
<polygon fill="#ffffff" stroke="transparent" points="115,-436.5 115,-453.5 145,-453.5 145,-436.5 115,-436.5"/>
<text text-anchor="start" x="118" y="-443.1" font-family="DejaVu Sans" font-size="8.00" fill="#7f7f7f">bigint</text>
<polygon fill="#f2f6fa" stroke="transparent" points="10,-419.5 10,-436.5 32,-436.5 32,-419.5 10,-419.5"/>
<text text-anchor="start" x="13" y="-426.5" font-family="DejaVu Sans" font-weight="bold" font-size="10.00" fill="#548235">FK</text>
<polygon fill="#f2f6fa" stroke="transparent" points="32,-419.5 32,-436.5 115,-436.5 115,-419.5 32,-419.5"/>
<text text-anchor="start" x="35" y="-425.5" font-family="DejaVu Sans" font-size="10.00">to_station_id</text>
<polygon fill="#f2f6fa" stroke="transparent" points="115,-419.5 115,-436.5 145,-436.5 145,-419.5 115,-419.5"/>
<text text-anchor="start" x="118" y="-426.1" font-family="DejaVu Sans" font-size="8.00" fill="#7f7f7f">bigint</text>
<polygon fill="#ffffff" stroke="transparent" points="10,-404.5 10,-419.5 145,-419.5 145,-404.5 10,-404.5"/>
<text text-anchor="start" x="13" y="-411.1" font-family="DejaVu Sans" font-style="italic" font-size="8.00" fill="#7f7f7f">+ 4 more columns</text>
<path fill="none" stroke="#404040" d="M20.5,-403.5C20.5,-403.5 133.5,-403.5 133.5,-403.5 139.5,-403.5 145.5,-409.5 145.5,-415.5 145.5,-415.5 145.5,-509.5 145.5,-509.5 145.5,-515.5 139.5,-521.5 133.5,-521.5 133.5,-521.5 20.5,-521.5 20.5,-521.5 14.5,-521.5 8.5,-515.5 8.5,-509.5 8.5,-509.5 8.5,-415.5 8.5,-415.5 8.5,-409.5 14.5,-403.5 20.5,-403.5"/>
</g>
<!-- net__line_fare&#45;&gt;net__line_tariff -->
<g id="edge11" class="edge">
<title>net__line_fare&#45;&gt;net__line_tariff</title>
<path fill="none" stroke="#548235" stroke-width="2.2" d="M159.95,-436.5C159.95,-436.5 249.24,-436.5 249.24,-436.5"/>
<polygon fill="#548235" stroke="#548235" stroke-width="2.2" points="249.24,-436.5 257.24,-440.1 253.24,-436.5 257.24,-436.5 257.24,-436.5 257.24,-436.5 253.24,-436.5 257.24,-432.9 249.24,-436.5 249.24,-436.5"/>
<ellipse fill="none" stroke="#548235" stroke-width="2.2" cx="246.04" cy="-436.5" rx="3.2" ry="3.2"/>
<polygon fill="#548235" stroke="#548235" stroke-width="2.2" points="146.35,-440.5 146.35,-432.5 147.95,-432.5 147.95,-440.5 146.35,-440.5"/>
<polyline fill="none" stroke="#548235" stroke-width="2.2" points="145.55,-436.5 149.55,-436.5 "/>
<polygon fill="#548235" stroke="#548235" stroke-width="2.2" points="150.35,-440.5 150.35,-432.5 151.95,-432.5 151.95,-440.5 150.35,-440.5"/>
<polyline fill="none" stroke="#548235" stroke-width="2.2" points="149.55,-436.5 153.55,-436.5 "/>
</g>
<!-- net__line_fare&#45;&gt;net__station -->
<g id="edge10" class="edge">
<title>net__line_fare&#45;&gt;net__station</title>
<path fill="none" stroke="#595959" stroke-width="1.1" stroke-dasharray="5,2" d="M159.95,-508.17C159.95,-508.17 262.38,-508.17 262.38,-508.17"/>
<polygon fill="#595959" stroke="#595959" stroke-width="1.1" points="264.78,-508.17 272.78,-511.77 268.78,-508.17 272.78,-508.17 272.78,-508.17 272.78,-508.17 268.78,-508.17 272.78,-504.57 264.78,-508.17 264.78,-508.17"/>
<ellipse fill="none" stroke="#595959" stroke-width="1.1" cx="261.58" cy="-508.17" rx="3.2" ry="3.2"/>
<polygon fill="#595959" stroke="#595959" stroke-width="1.1" points="146.35,-512.17 146.35,-504.17 147.95,-504.17 147.95,-512.17 146.35,-512.17"/>
<polyline fill="none" stroke="#595959" stroke-width="1.1" points="145.55,-508.17 149.55,-508.17 "/>
<ellipse fill="none" stroke="#595959" stroke-width="1.1" cx="152.75" cy="-508.17" rx="3.2" ry="3.2"/>
</g>
<!-- net__line_fare&#45;&gt;net__station -->
<g id="edge12" class="edge">
<title>net__line_fare&#45;&gt;net__station</title>
<path fill="none" stroke="#595959" stroke-width="1.1" stroke-dasharray="5,2" d="M159.95,-514.83C159.95,-514.83 262.38,-514.83 262.38,-514.83"/>
<polygon fill="#595959" stroke="#595959" stroke-width="1.1" points="264.78,-514.83 272.78,-518.43 268.78,-514.83 272.78,-514.83 272.78,-514.83 272.78,-514.83 268.78,-514.83 272.78,-511.23 264.78,-514.83 264.78,-514.83"/>
<ellipse fill="none" stroke="#595959" stroke-width="1.1" cx="261.58" cy="-514.83" rx="3.2" ry="3.2"/>
<polygon fill="#595959" stroke="#595959" stroke-width="1.1" points="146.35,-518.83 146.35,-510.83 147.95,-510.83 147.95,-518.83 146.35,-518.83"/>
<polyline fill="none" stroke="#595959" stroke-width="1.1" points="145.55,-514.83 149.55,-514.83 "/>
<ellipse fill="none" stroke="#595959" stroke-width="1.1" cx="152.75" cy="-514.83" rx="3.2" ry="3.2"/>
</g>
<!-- net__timetable_template -->
<g id="node8" class="node">
<title>net__timetable_template</title>
<polygon fill="#548235" stroke="transparent" points="234.5,-314.5 234.5,-318.5 379.5,-318.5 379.5,-314.5 234.5,-314.5"/>
<polygon fill="#e2efda" stroke="transparent" points="234.5,-285.5 234.5,-314.5 379.5,-314.5 379.5,-285.5 234.5,-285.5"/>
<text text-anchor="start" x="246.5" y="-301.7" font-family="DejaVu Sans" font-weight="bold" font-size="11.00">timetable_template</text>
<text text-anchor="start" x="300" y="-293.1" font-family="DejaVu Sans" font-size="8.00" fill="#595959">net</text>
<polygon fill="#ffffff" stroke="transparent" points="234.5,-268.5 234.5,-285.5 256.5,-285.5 256.5,-268.5 234.5,-268.5"/>
<text text-anchor="start" x="237.5" y="-275.5" font-family="DejaVu Sans" font-weight="bold" font-size="10.00" fill="#1f3a5f">PK</text>
<polygon fill="#ffffff" stroke="transparent" points="256.5,-268.5 256.5,-285.5 330.5,-285.5 330.5,-268.5 256.5,-268.5"/>
<text text-anchor="start" x="259.5" y="-275.5" font-family="DejaVu Sans" font-weight="bold" font-size="10.00">id</text>
<polygon fill="#ffffff" stroke="transparent" points="330.5,-268.5 330.5,-285.5 379.5,-285.5 379.5,-268.5 330.5,-268.5"/>
<text text-anchor="start" x="333.5" y="-275.1" font-family="DejaVu Sans" font-size="8.00" fill="#7f7f7f">bigint</text>
<polygon fill="#f2f6fa" stroke="transparent" points="234.5,-251.5 234.5,-268.5 256.5,-268.5 256.5,-251.5 234.5,-251.5"/>
<text text-anchor="start" x="237.5" y="-258.5" font-family="DejaVu Sans" font-weight="bold" font-size="10.00" fill="#548235">FK</text>
<polygon fill="#f2f6fa" stroke="transparent" points="256.5,-251.5 256.5,-268.5 330.5,-268.5 330.5,-251.5 256.5,-251.5"/>
<text text-anchor="start" x="259.5" y="-258.5" font-family="DejaVu Sans" font-weight="bold" font-size="10.00">line_id</text>
<polygon fill="#f2f6fa" stroke="transparent" points="330.5,-251.5 330.5,-268.5 379.5,-268.5 379.5,-251.5 330.5,-251.5"/>
<text text-anchor="start" x="333.5" y="-258.1" font-family="DejaVu Sans" font-size="8.00" fill="#7f7f7f">bigint</text>
<polygon fill="#ffffff" stroke="transparent" points="234.5,-234.5 234.5,-251.5 256.5,-251.5 256.5,-234.5 234.5,-234.5"/>
<text text-anchor="start" x="237.5" y="-241.5" font-family="DejaVu Sans" font-weight="bold" font-size="10.00" fill="#548235">FK</text>
<polygon fill="#ffffff" stroke="transparent" points="256.5,-234.5 256.5,-251.5 330.5,-251.5 330.5,-234.5 256.5,-234.5"/>
<text text-anchor="start" x="259.5" y="-241.5" font-family="DejaVu Sans" font-weight="bold" font-size="10.00">company_id</text>
<polygon fill="#ffffff" stroke="transparent" points="330.5,-234.5 330.5,-251.5 379.5,-251.5 379.5,-234.5 330.5,-234.5"/>
<text text-anchor="start" x="333.5" y="-241.1" font-family="DejaVu Sans" font-size="8.00" fill="#7f7f7f">bigint</text>
<polygon fill="#f2f6fa" stroke="transparent" points="234.5,-217.5 234.5,-234.5 256.5,-234.5 256.5,-217.5 234.5,-217.5"/>
<polygon fill="#f2f6fa" stroke="transparent" points="256.5,-217.5 256.5,-234.5 330.5,-234.5 330.5,-217.5 256.5,-217.5"/>
<text text-anchor="start" x="259.5" y="-224.5" font-family="DejaVu Sans" font-weight="bold" font-size="10.00">kind</text>
<polygon fill="#f2f6fa" stroke="transparent" points="330.5,-217.5 330.5,-234.5 379.5,-234.5 379.5,-217.5 330.5,-217.5"/>
<text text-anchor="start" x="333.5" y="-224.1" font-family="DejaVu Sans" font-size="8.00" fill="#7f7f7f">text</text>
<polygon fill="#ffffff" stroke="transparent" points="234.5,-200.5 234.5,-217.5 256.5,-217.5 256.5,-200.5 234.5,-200.5"/>
<polygon fill="#ffffff" stroke="transparent" points="256.5,-200.5 256.5,-217.5 330.5,-217.5 330.5,-200.5 256.5,-200.5"/>
<text text-anchor="start" x="259.5" y="-207.5" font-family="DejaVu Sans" font-weight="bold" font-size="10.00">valid</text>
<polygon fill="#ffffff" stroke="transparent" points="330.5,-200.5 330.5,-217.5 379.5,-217.5 379.5,-200.5 330.5,-200.5"/>
<text text-anchor="start" x="333.5" y="-207.1" font-family="DejaVu Sans" font-size="8.00" fill="#7f7f7f">daterange</text>
<polygon fill="#f2f6fa" stroke="transparent" points="234.5,-183.5 234.5,-200.5 256.5,-200.5 256.5,-183.5 234.5,-183.5"/>
<polygon fill="#f2f6fa" stroke="transparent" points="256.5,-183.5 256.5,-200.5 330.5,-200.5 330.5,-183.5 256.5,-183.5"/>
<text text-anchor="start" x="259.5" y="-190.5" font-family="DejaVu Sans" font-weight="bold" font-size="10.00">status</text>
<polygon fill="#f2f6fa" stroke="transparent" points="330.5,-183.5 330.5,-200.5 379.5,-200.5 379.5,-183.5 330.5,-183.5"/>
<text text-anchor="start" x="333.5" y="-190.1" font-family="DejaVu Sans" font-size="8.00" fill="#7f7f7f">text</text>
<polygon fill="#ffffff" stroke="transparent" points="234.5,-168.5 234.5,-183.5 379.5,-183.5 379.5,-168.5 234.5,-168.5"/>
<text text-anchor="start" x="237.5" y="-175.1" font-family="DejaVu Sans" font-style="italic" font-size="8.00" fill="#7f7f7f">+ 5 more columns</text>
<path fill="none" stroke="#404040" d="M245,-167.5C245,-167.5 368,-167.5 368,-167.5 374,-167.5 380,-173.5 380,-179.5 380,-179.5 380,-307.5 380,-307.5 380,-313.5 374,-319.5 368,-319.5 368,-319.5 245,-319.5 245,-319.5 239,-319.5 233,-313.5 233,-307.5 233,-307.5 233,-179.5 233,-179.5 233,-173.5 239,-167.5 245,-167.5"/>
</g>
<!-- net__timetable_template&#45;&gt;net__line -->
<g id="edge14" class="edge">
<title>net__timetable_template&#45;&gt;net__line</title>
<path fill="none" stroke="#595959" stroke-width="1.1" d="M394.62,-284.25C394.62,-284.25 450.89,-284.25 450.89,-284.25"/>
<polygon fill="#595959" stroke="#595959" stroke-width="1.1" points="450.89,-284.25 458.89,-287.85 454.89,-284.25 458.89,-284.25 458.89,-284.25 458.89,-284.25 454.89,-284.25 458.89,-280.65 450.89,-284.25 450.89,-284.25"/>
<ellipse fill="none" stroke="#595959" stroke-width="1.1" cx="447.69" cy="-284.25" rx="3.2" ry="3.2"/>
<polygon fill="#595959" stroke="#595959" stroke-width="1.1" points="381.02,-288.25 381.02,-280.25 382.62,-280.25 382.62,-288.25 381.02,-288.25"/>
<polyline fill="none" stroke="#595959" stroke-width="1.1" points="380.22,-284.25 384.22,-284.25 "/>
<polygon fill="#595959" stroke="#595959" stroke-width="1.1" points="385.02,-288.25 385.02,-280.25 386.62,-280.25 386.62,-288.25 385.02,-288.25"/>
<polyline fill="none" stroke="#595959" stroke-width="1.1" points="384.22,-284.25 388.22,-284.25 "/>
</g>
<!-- net__timetable_template&#45;&gt;iam__company -->
<g id="edge13" class="edge">
<title>net__timetable_template&#45;&gt;iam__company</title>
<path fill="none" stroke="#595959" stroke-width="1.1" stroke-dasharray="5,2" d="M394.62,-177.5C394.62,-177.5 457.84,-177.5 457.84,-177.5"/>
<polygon fill="#595959" stroke="#595959" stroke-width="1.1" points="457.84,-177.5 465.84,-181.1 461.84,-177.5 465.84,-177.5 465.84,-177.5 465.84,-177.5 461.84,-177.5 465.84,-173.9 457.84,-177.5 457.84,-177.5"/>
<ellipse fill="none" stroke="#595959" stroke-width="1.1" cx="454.64" cy="-177.5" rx="3.2" ry="3.2"/>
<polygon fill="#595959" stroke="#595959" stroke-width="1.1" points="381.02,-181.5 381.02,-173.5 382.62,-173.5 382.62,-181.5 381.02,-181.5"/>
<polyline fill="none" stroke="#595959" stroke-width="1.1" points="380.22,-177.5 384.22,-177.5 "/>
<polygon fill="#595959" stroke="#595959" stroke-width="1.1" points="385.02,-181.5 385.02,-173.5 386.62,-173.5 386.62,-181.5 385.02,-181.5"/>
<polyline fill="none" stroke="#595959" stroke-width="1.1" points="384.22,-177.5 388.22,-177.5 "/>
</g>
</g>
</svg>
