<?xml version="1.0" encoding="UTF-8" standalone="no"?>
<!DOCTYPE svg PUBLIC "-//W3C//DTD SVG 1.1//EN"
 "http://www.w3.org/Graphics/SVG/1.1/DTD/svg11.dtd">
<!-- Generated by graphviz version 2.43.0 (0)
 -->
<!-- Title: E18 Pages: 1 -->
<svg width="1042pt" height="568pt"
 viewBox="0.00 0.00 1042.40 567.90" xmlns="http://www.w3.org/2000/svg" xmlns:xlink="http://www.w3.org/1999/xlink">
<g id="graph0" class="graph" transform="scale(1 1) rotate(0) translate(25.2 542.7)">
<title>E18</title>
<polygon fill="white" stroke="transparent" points="-25.2,25.2 -25.2,-542.7 1017.2,-542.7 1017.2,25.2 -25.2,25.2"/>
<!-- bill__plan -->
<g id="node1" class="node">
<title>bill__plan</title>
<polygon fill="#7030a0" stroke="transparent" points="724,-113 724,-117 814,-117 814,-113 724,-113"/>
<polygon fill="#e4dfec" stroke="transparent" points="724,-84 724,-113 814,-113 814,-84 724,-84"/>
<text text-anchor="start" x="755.5" y="-100.2" font-family="DejaVu Sans" font-weight="bold" font-size="11.00">plan</text>
<text text-anchor="start" x="762.5" y="-91.6" font-family="DejaVu Sans" font-size="8.00" fill="#595959">bill</text>
<polygon fill="#ffffff" stroke="transparent" points="724,-67 724,-84 747,-84 747,-67 724,-67"/>
<text text-anchor="start" x="727" y="-74" font-family="DejaVu Sans" font-weight="bold" font-size="10.00" fill="#1f3a5f">PK</text>
<polygon fill="#ffffff" stroke="transparent" points="747,-67 747,-84 784,-84 784,-67 747,-67"/>
<text text-anchor="start" x="750" y="-74" font-family="DejaVu Sans" font-weight="bold" font-size="10.00">id</text>
<polygon fill="#ffffff" stroke="transparent" points="784,-67 784,-84 814,-84 814,-67 784,-67"/>
<text text-anchor="start" x="787" y="-73.6" font-family="DejaVu Sans" font-size="8.00" fill="#7f7f7f">bigint</text>
<polygon fill="#f2f6fa" stroke="transparent" points="724,-50 724,-67 747,-67 747,-50 724,-50"/>
<text text-anchor="start" x="727" y="-57" font-family="DejaVu Sans" font-weight="bold" font-size="10.00" fill="#595959">UQ</text>
<polygon fill="#f2f6fa" stroke="transparent" points="747,-50 747,-67 784,-67 784,-50 747,-50"/>
<text text-anchor="start" x="750" y="-57" font-family="DejaVu Sans" font-weight="bold" font-size="10.00">code</text>
<polygon fill="#f2f6fa" stroke="transparent" points="784,-50 784,-67 814,-67 814,-50 784,-50"/>
<text text-anchor="start" x="787" y="-56.6" font-family="DejaVu Sans" font-size="8.00" fill="#7f7f7f">text</text>
<polygon fill="#ffffff" stroke="transparent" points="724,-33 724,-50 747,-50 747,-33 724,-33"/>
<polygon fill="#ffffff" stroke="transparent" points="747,-33 747,-50 784,-50 784,-33 747,-33"/>
<text text-anchor="start" x="750" y="-40" font-family="DejaVu Sans" font-weight="bold" font-size="10.00">kind</text>
<polygon fill="#ffffff" stroke="transparent" points="784,-33 784,-50 814,-50 814,-33 784,-33"/>
<text text-anchor="start" x="787" y="-39.6" font-family="DejaVu Sans" font-size="8.00" fill="#7f7f7f">text</text>
<polygon fill="#f2f6fa" stroke="transparent" points="724,-16 724,-33 747,-33 747,-16 724,-16"/>
<polygon fill="#f2f6fa" stroke="transparent" points="747,-16 747,-33 784,-33 784,-16 747,-16"/>
<text text-anchor="start" x="750" y="-23" font-family="DejaVu Sans" font-weight="bold" font-size="10.00">name</text>
<polygon fill="#f2f6fa" stroke="transparent" points="784,-16 784,-33 814,-33 814,-16 784,-16"/>
<text text-anchor="start" x="787" y="-22.6" font-family="DejaVu Sans" font-size="8.00" fill="#7f7f7f">text</text>
<polygon fill="#ffffff" stroke="transparent" points="724,-1 724,-16 814,-16 814,-1 724,-1"/>
<text text-anchor="start" x="727" y="-7.6" font-family="DejaVu Sans" font-style="italic" font-size="8.00" fill="#7f7f7f">+ 15 more columns</text>
<path fill="none" stroke="#404040" d="M735,0C735,0 803,0 803,0 809,0 815,-6 815,-12 815,-12 815,-106 815,-106 815,-112 809,-118 803,-118 803,-118 735,-118 735,-118 729,-118 723,-112 723,-106 723,-106 723,-12 723,-12 723,-6 729,0 735,0"/>
</g>
<!-- bill__carrier_agreement -->
<g id="node2" class="node">
<title>bill__carrier_agreement</title>
<polygon fill="#7030a0" stroke="transparent" points="706,-312 706,-316 832,-316 832,-312 706,-312"/>
<polygon fill="#e4dfec" stroke="transparent" points="706,-283 706,-312 832,-312 832,-283 706,-283"/>
<text text-anchor="start" x="712" y="-299.2" font-family="DejaVu Sans" font-weight="bold" font-size="11.00">carrier_agreement</text>
<text text-anchor="start" x="762.5" y="-290.6" font-family="DejaVu Sans" font-size="8.00" fill="#595959">bill</text>
<polygon fill="#ffffff" stroke="transparent" points="706,-266 706,-283 728,-283 728,-266 706,-266"/>
<text text-anchor="start" x="709" y="-273" font-family="DejaVu Sans" font-weight="bold" font-size="10.00" fill="#1f3a5f">PK</text>
<polygon fill="#ffffff" stroke="transparent" points="728,-266 728,-283 802,-283 802,-266 728,-266"/>
<text text-anchor="start" x="731" y="-273" font-family="DejaVu Sans" font-weight="bold" font-size="10.00">id</text>
<polygon fill="#ffffff" stroke="transparent" points="802,-266 802,-283 832,-283 832,-266 802,-266"/>
<text text-anchor="start" x="805" y="-272.6" font-family="DejaVu Sans" font-size="8.00" fill="#7f7f7f">bigint</text>
<polygon fill="#f2f6fa" stroke="transparent" points="706,-249 706,-266 728,-266 728,-249 706,-249"/>
<text text-anchor="start" x="709" y="-256" font-family="DejaVu Sans" font-weight="bold" font-size="10.00" fill="#7030a0">FK</text>
<polygon fill="#f2f6fa" stroke="transparent" points="728,-249 728,-266 802,-266 802,-249 728,-249"/>
<text text-anchor="start" x="731" y="-256" font-family="DejaVu Sans" font-weight="bold" font-size="10.00">company_id</text>
<polygon fill="#f2f6fa" stroke="transparent" points="802,-249 802,-266 832,-266 832,-249 802,-249"/>
<text text-anchor="start" x="805" y="-255.6" font-family="DejaVu Sans" font-size="8.00" fill="#7f7f7f">bigint</text>
<polygon fill="#ffffff" stroke="transparent" points="706,-232 706,-249 728,-249 728,-232 706,-232"/>
<polygon fill="#ffffff" stroke="transparent" points="728,-232 728,-249 802,-249 802,-232 728,-232"/>
<text text-anchor="start" x="731" y="-239" font-family="DejaVu Sans" font-weight="bold" font-size="10.00">status</text>
<polygon fill="#ffffff" stroke="transparent" points="802,-232 802,-249 832,-249 832,-232 802,-232"/>
<text text-anchor="start" x="805" y="-238.6" font-family="DejaVu Sans" font-size="8.00" fill="#7f7f7f">text</text>
<polygon fill="#ffffff" stroke="transparent" points="706,-217 706,-232 832,-232 832,-217 706,-217"/>
<text text-anchor="start" x="709" y="-223.6" font-family="DejaVu Sans" font-style="italic" font-size="8.00" fill="#7f7f7f">+ 6 more columns</text>
<path fill="none" stroke="#404040" d="M717,-216.5C717,-216.5 821,-216.5 821,-216.5 827,-216.5 833,-222.5 833,-228.5 833,-228.5 833,-305.5 833,-305.5 833,-311.5 827,-317.5 821,-317.5 821,-317.5 717,-317.5 717,-317.5 711,-317.5 705,-311.5 705,-305.5 705,-305.5 705,-228.5 705,-228.5 705,-222.5 711,-216.5 717,-216.5"/>
</g>
<!-- iam__company -->
<g id="node10" class="node">
<title>iam__company</title>
<path fill="#f7f7f7" stroke="#8c8c8c" stroke-dasharray="5,2" d="M980,-285C980,-285 924,-285 924,-285 918,-285 912,-279 912,-273 912,-273 912,-261 912,-261 912,-255 918,-249 924,-249 924,-249 980,-249 980,-249 986,-249 992,-255 992,-261 992,-261 992,-273 992,-273 992,-279 986,-285 980,-285"/>
<text text-anchor="middle" x="952" y="-264.8" font-family="DejaVu Sans" font-size="9.00" fill="#404040">iam.company</text>
</g>
<!-- bill__carrier_agreement&#45;&gt;iam__company -->
<g id="edge1" class="edge">
<title>bill__carrier_agreement&#45;&gt;iam__company</title>
<path fill="none" stroke="#595959" stroke-width="1.1" stroke-dasharray="5,2" d="M847.4,-267C847.4,-267 903.75,-267 903.75,-267"/>
<polygon fill="#595959" stroke="#595959" stroke-width="1.1" points="903.75,-267 911.75,-270.6 907.75,-267 911.75,-267 911.75,-267 911.75,-267 907.75,-267 911.75,-263.4 903.75,-267 903.75,-267"/>
<ellipse fill="none" stroke="#595959" stroke-width="1.1" cx="900.55" cy="-267" rx="3.2" ry="3.2"/>
<polygon fill="#595959" stroke="#595959" stroke-width="1.1" points="833.8,-271 833.8,-263 835.4,-263 835.4,-271 833.8,-271"/>
<polyline fill="none" stroke="#595959" stroke-width="1.1" points="833,-267 837,-267 "/>
<polygon fill="#595959" stroke="#595959" stroke-width="1.1" points="837.8,-271 837.8,-263 839.4,-263 839.4,-271 837.8,-271"/>
<polyline fill="none" stroke="#595959" stroke-width="1.1" points="837,-267 841,-267 "/>
</g>
<!-- bill__company_subscription -->
<g id="node3" class="node">
<title>bill__company_subscription</title>
<polygon fill="#7030a0" stroke="transparent" points="478.5,-229 478.5,-233 625.5,-233 625.5,-229 478.5,-229"/>
<polygon fill="#e4dfec" stroke="transparent" points="478.5,-200 478.5,-229 625.5,-229 625.5,-200 478.5,-200"/>
<text text-anchor="start" x="483.5" y="-216.2" font-family="DejaVu Sans" font-weight="bold" font-size="11.00">company_subscription</text>
<text text-anchor="start" x="545.5" y="-207.6" font-family="DejaVu Sans" font-size="8.00" fill="#595959">bill</text>
<polygon fill="#ffffff" stroke="transparent" points="478.5,-183 478.5,-200 510.5,-200 510.5,-183 478.5,-183"/>
<text text-anchor="start" x="481.5" y="-190" font-family="DejaVu Sans" font-weight="bold" font-size="10.00" fill="#1f3a5f">PK</text>
<polygon fill="#ffffff" stroke="transparent" points="510.5,-183 510.5,-200 589.5,-200 589.5,-183 510.5,-183"/>
<text text-anchor="start" x="513.5" y="-190" font-family="DejaVu Sans" font-weight="bold" font-size="10.00">id</text>
<polygon fill="#ffffff" stroke="transparent" points="589.5,-183 589.5,-200 625.5,-200 625.5,-183 589.5,-183"/>
<text text-anchor="start" x="592.5" y="-189.6" font-family="DejaVu Sans" font-size="8.00" fill="#7f7f7f">bigint</text>
<polygon fill="#f2f6fa" stroke="transparent" points="478.5,-166 478.5,-183 510.5,-183 510.5,-166 478.5,-166"/>
<text text-anchor="start" x="481.5" y="-173" font-family="DejaVu Sans" font-weight="bold" font-size="10.00" fill="#7030a0">FK</text>
<polygon fill="#f2f6fa" stroke="transparent" points="510.5,-166 510.5,-183 589.5,-183 589.5,-166 510.5,-166"/>
<text text-anchor="start" x="513.5" y="-173" font-family="DejaVu Sans" font-weight="bold" font-size="10.00">company_id</text>
<polygon fill="#f2f6fa" stroke="transparent" points="589.5,-166 589.5,-183 625.5,-183 625.5,-166 589.5,-166"/>
<text text-anchor="start" x="592.5" y="-172.6" font-family="DejaVu Sans" font-size="8.00" fill="#7f7f7f">bigint</text>
<polygon fill="#ffffff" stroke="transparent" points="478.5,-149 478.5,-166 510.5,-166 510.5,-149 478.5,-149"/>
<text text-anchor="start" x="481.5" y="-156" font-family="DejaVu Sans" font-weight="bold" font-size="10.00" fill="#7030a0">FK</text>
<polygon fill="#ffffff" stroke="transparent" points="510.5,-149 510.5,-166 589.5,-166 589.5,-149 510.5,-149"/>
<text text-anchor="start" x="513.5" y="-155" font-family="DejaVu Sans" font-size="10.00">plan_id</text>
<polygon fill="#ffffff" stroke="transparent" points="589.5,-149 589.5,-166 625.5,-166 625.5,-149 589.5,-149"/>
<text text-anchor="start" x="592.5" y="-155.6" font-family="DejaVu Sans" font-size="8.00" fill="#7f7f7f">bigint</text>
<polygon fill="#f2f6fa" stroke="transparent" points="478.5,-132 478.5,-149 510.5,-149 510.5,-132 478.5,-132"/>
<text text-anchor="start" x="481.5" y="-139" font-family="DejaVu Sans" font-weight="bold" font-size="10.00" fill="#7030a0">FK</text>
<polygon fill="#f2f6fa" stroke="transparent" points="510.5,-132 510.5,-149 589.5,-149 589.5,-132 510.5,-132"/>
<text text-anchor="start" x="513.5" y="-138" font-family="DejaVu Sans" font-size="10.00">agreement_id</text>
<polygon fill="#f2f6fa" stroke="transparent" points="589.5,-132 589.5,-149 625.5,-149 625.5,-132 589.5,-132"/>
<text text-anchor="start" x="592.5" y="-138.6" font-family="DejaVu Sans" font-size="8.00" fill="#7f7f7f">bigint</text>
<polygon fill="#ffffff" stroke="transparent" points="478.5,-115 478.5,-132 510.5,-132 510.5,-115 478.5,-115"/>
<polygon fill="#ffffff" stroke="transparent" points="510.5,-115 510.5,-132 589.5,-132 589.5,-115 510.5,-115"/>
<text text-anchor="start" x="513.5" y="-122" font-family="DejaVu Sans" font-weight="bold" font-size="10.00">status</text>
<polygon fill="#ffffff" stroke="transparent" points="589.5,-115 589.5,-132 625.5,-132 625.5,-115 589.5,-115"/>
<text text-anchor="start" x="592.5" y="-121.6" font-family="DejaVu Sans" font-size="8.00" fill="#7f7f7f">text</text>
<polygon fill="#ffffff" stroke="transparent" points="478.5,-100 478.5,-115 625.5,-115 625.5,-100 478.5,-100"/>
<text text-anchor="start" x="481.5" y="-106.6" font-family="DejaVu Sans" font-style="italic" font-size="8.00" fill="#7f7f7f">+ 5 more columns</text>
<path fill="none" stroke="#404040" d="M489,-99.5C489,-99.5 614,-99.5 614,-99.5 620,-99.5 626,-105.5 626,-111.5 626,-111.5 626,-222.5 626,-222.5 626,-228.5 620,-234.5 614,-234.5 614,-234.5 489,-234.5 489,-234.5 483,-234.5 477,-228.5 477,-222.5 477,-222.5 477,-111.5 477,-111.5 477,-105.5 483,-99.5 489,-99.5"/>
</g>
<!-- bill__company_subscription&#45;&gt;bill__plan -->
<g id="edge4" class="edge">
<title>bill__company_subscription&#45;&gt;bill__plan</title>
<path fill="none" stroke="#595959" stroke-width="1.1" d="M640.45,-108.75C640.45,-108.75 712.36,-108.75 712.36,-108.75"/>
<polygon fill="#595959" stroke="#595959" stroke-width="1.1" points="714.76,-108.75 722.76,-112.35 718.76,-108.75 722.76,-108.75 722.76,-108.75 722.76,-108.75 718.76,-108.75 722.76,-105.15 714.76,-108.75 714.76,-108.75"/>
<ellipse fill="none" stroke="#595959" stroke-width="1.1" cx="711.56" cy="-108.75" rx="3.2" ry="3.2"/>
<polygon fill="#595959" stroke="#595959" stroke-width="1.1" points="626.85,-112.75 626.85,-104.75 628.45,-104.75 628.45,-112.75 626.85,-112.75"/>
<polyline fill="none" stroke="#595959" stroke-width="1.1" points="626.05,-108.75 630.05,-108.75 "/>
<ellipse fill="none" stroke="#595959" stroke-width="1.1" cx="633.25" cy="-108.75" rx="3.2" ry="3.2"/>
</g>
<!-- bill__company_subscription&#45;&gt;bill__carrier_agreement -->
<g id="edge2" class="edge">
<title>bill__company_subscription&#45;&gt;bill__carrier_agreement</title>
<path fill="none" stroke="#595959" stroke-width="1.1" d="M640.45,-225.5C640.45,-225.5 694.31,-225.5 694.31,-225.5"/>
<polygon fill="#595959" stroke="#595959" stroke-width="1.1" points="696.71,-225.5 704.71,-229.1 700.71,-225.5 704.71,-225.5 704.71,-225.5 704.71,-225.5 700.71,-225.5 704.71,-221.9 696.71,-225.5 696.71,-225.5"/>
<ellipse fill="none" stroke="#595959" stroke-width="1.1" cx="693.51" cy="-225.5" rx="3.2" ry="3.2"/>
<polygon fill="#595959" stroke="#595959" stroke-width="1.1" points="626.85,-229.5 626.85,-221.5 628.45,-221.5 628.45,-229.5 626.85,-229.5"/>
<polyline fill="none" stroke="#595959" stroke-width="1.1" points="626.05,-225.5 630.05,-225.5 "/>
<ellipse fill="none" stroke="#595959" stroke-width="1.1" cx="633.25" cy="-225.5" rx="3.2" ry="3.2"/>
</g>
<!-- bill__company_subscription&#45;&gt;iam__company -->
<g id="edge3" class="edge">
<title>bill__company_subscription&#45;&gt;iam__company</title>
<path fill="none" stroke="#595959" stroke-width="1.1" stroke-dasharray="5,2" d="M640.76,-167.25C640.76,-167.25 952,-167.25 952,-167.25 952,-167.25 952,-240.7 952,-240.7"/>
<polygon fill="#595959" stroke="#595959" stroke-width="1.1" points="634.36,-167.25 626.36,-163.65 630.36,-167.25 626.36,-167.25 626.36,-167.25 626.36,-167.25 630.36,-167.25 626.36,-170.85 634.36,-167.25 634.36,-167.25"/>
<ellipse fill="none" stroke="#595959" stroke-width="1.1" cx="637.56" cy="-167.25" rx="3.2" ry="3.2"/>
<polygon fill="#595959" stroke="#595959" stroke-width="1.1" points="956,-247.9 948,-247.9 948,-246.3 956,-246.3 956,-247.9"/>
<polyline fill="none" stroke="#595959" stroke-width="1.1" points="952,-248.7 952,-244.7 "/>
<polygon fill="#595959" stroke="#595959" stroke-width="1.1" points="956,-243.9 948,-243.9 948,-242.3 956,-242.3 956,-243.9"/>
<polyline fill="none" stroke="#595959" stroke-width="1.1" points="952,-244.7 952,-240.7 "/>
</g>
<!-- bill__usage_event -->
<g id="node4" class="node">
<title>bill__usage_event</title>
<polygon fill="#7030a0" stroke="transparent" points="706,-512 706,-516 832,-516 832,-512 706,-512"/>
<polygon fill="#e4dfec" stroke="transparent" points="706,-483 706,-512 832,-512 832,-483 706,-483"/>
<text text-anchor="start" x="730" y="-499.2" font-family="DejaVu Sans" font-weight="bold" font-size="11.00">usage_event</text>
<text text-anchor="start" x="762.5" y="-490.6" font-family="DejaVu Sans" font-size="8.00" fill="#595959">bill</text>
<polygon fill="#ffffff" stroke="transparent" points="706,-466 706,-483 728,-483 728,-466 706,-466"/>
<text text-anchor="start" x="709" y="-473" font-family="DejaVu Sans" font-weight="bold" font-size="10.00" fill="#1f3a5f">PK</text>
<polygon fill="#ffffff" stroke="transparent" points="728,-466 728,-483 802,-483 802,-466 728,-466"/>
<text text-anchor="start" x="731" y="-473" font-family="DejaVu Sans" font-weight="bold" font-size="10.00">id</text>
<polygon fill="#ffffff" stroke="transparent" points="802,-466 802,-483 832,-483 832,-466 802,-466"/>
<text text-anchor="start" x="805" y="-472.6" font-family="DejaVu Sans" font-size="8.00" fill="#7f7f7f">bigint</text>
<polygon fill="#f2f6fa" stroke="transparent" points="706,-449 706,-466 728,-466 728,-449 706,-449"/>
<text text-anchor="start" x="709" y="-456" font-family="DejaVu Sans" font-weight="bold" font-size="10.00" fill="#7030a0">FK</text>
<polygon fill="#f2f6fa" stroke="transparent" points="728,-449 728,-466 802,-466 802,-449 728,-449"/>
<text text-anchor="start" x="731" y="-456" font-family="DejaVu Sans" font-weight="bold" font-size="10.00">company_id</text>
<polygon fill="#f2f6fa" stroke="transparent" points="802,-449 802,-466 832,-466 832,-449 802,-449"/>
<text text-anchor="start" x="805" y="-455.6" font-family="DejaVu Sans" font-size="8.00" fill="#7f7f7f">bigint</text>
<polygon fill="#ffffff" stroke="transparent" points="706,-432 706,-449 728,-449 728,-432 706,-432"/>
<polygon fill="#ffffff" stroke="transparent" points="728,-432 728,-449 802,-449 802,-432 728,-432"/>
<text text-anchor="start" x="731" y="-439" font-family="DejaVu Sans" font-weight="bold" font-size="10.00">kind</text>
<polygon fill="#ffffff" stroke="transparent" points="802,-432 802,-449 832,-449 832,-432 802,-432"/>
<text text-anchor="start" x="805" y="-438.6" font-family="DejaVu Sans" font-size="8.00" fill="#7f7f7f">text</text>
<polygon fill="#ffffff" stroke="transparent" points="706,-417 706,-432 832,-432 832,-417 706,-417"/>
<text text-anchor="start" x="709" y="-423.6" font-family="DejaVu Sans" font-style="italic" font-size="8.00" fill="#7f7f7f">+ 4 more columns</text>
<path fill="none" stroke="#404040" d="M717,-416.5C717,-416.5 821,-416.5 821,-416.5 827,-416.5 833,-422.5 833,-428.5 833,-428.5 833,-505.5 833,-505.5 833,-511.5 827,-517.5 821,-517.5 821,-517.5 717,-517.5 717,-517.5 711,-517.5 705,-511.5 705,-505.5 705,-505.5 705,-428.5 705,-428.5 705,-422.5 711,-416.5 717,-416.5"/>
</g>
<!-- bill__usage_event&#45;&gt;iam__company -->
<g id="edge5" class="edge">
<title>bill__usage_event&#45;&gt;iam__company</title>
<path fill="none" stroke="#595959" stroke-width="1.1" stroke-dasharray="5,2" d="M847.63,-467C847.63,-467 972,-467 972,-467 972,-467 972,-293.1 972,-293.1"/>
<polygon fill="#595959" stroke="#595959" stroke-width="1.1" points="841.23,-467 833.23,-463.4 837.23,-467 833.23,-467 833.23,-467 833.23,-467 837.23,-467 833.23,-470.6 841.23,-467 841.23,-467"/>
<ellipse fill="none" stroke="#595959" stroke-width="1.1" cx="844.43" cy="-467" rx="3.2" ry="3.2"/>
<polygon fill="#595959" stroke="#595959" stroke-width="1.1" points="968,-285.9 976,-285.9 976,-287.5 968,-287.5 968,-285.9"/>
<polyline fill="none" stroke="#595959" stroke-width="1.1" points="972,-285.1 972,-289.1 "/>
<polygon fill="#595959" stroke="#595959" stroke-width="1.1" points="968,-289.9 976,-289.9 976,-291.5 968,-291.5 968,-289.9"/>
<polyline fill="none" stroke="#595959" stroke-width="1.1" points="972,-289.1 972,-293.1 "/>
</g>
<!-- bill__carrier_invoice -->
<g id="node5" class="node">
<title>bill__carrier_invoice</title>
<polygon fill="#7030a0" stroke="transparent" points="228.5,-396 228.5,-400 397.5,-400 397.5,-396 228.5,-396"/>
<polygon fill="#e4dfec" stroke="transparent" points="228.5,-367 228.5,-396 397.5,-396 397.5,-367 228.5,-367"/>
<text text-anchor="start" x="267.5" y="-383.2" font-family="DejaVu Sans" font-weight="bold" font-size="11.00">carrier_invoice</text>
<text text-anchor="start" x="306.5" y="-374.6" font-family="DejaVu Sans" font-size="8.00" fill="#595959">bill</text>
<polygon fill="#ffffff" stroke="transparent" points="228.5,-350 228.5,-367 251.5,-367 251.5,-350 228.5,-350"/>
<text text-anchor="start" x="231.5" y="-357" font-family="DejaVu Sans" font-weight="bold" font-size="10.00" fill="#1f3a5f">PK</text>
<polygon fill="#ffffff" stroke="transparent" points="251.5,-350 251.5,-367 367.5,-367 367.5,-350 251.5,-350"/>
<text text-anchor="start" x="254.5" y="-357" font-family="DejaVu Sans" font-weight="bold" font-size="10.00">id</text>
<polygon fill="#ffffff" stroke="transparent" points="367.5,-350 367.5,-367 397.5,-367 397.5,-350 367.5,-350"/>
<text text-anchor="start" x="370.5" y="-356.6" font-family="DejaVu Sans" font-size="8.00" fill="#7f7f7f">bigint</text>
<polygon fill="#f2f6fa" stroke="transparent" points="228.5,-333 228.5,-350 251.5,-350 251.5,-333 228.5,-333"/>
<text text-anchor="start" x="231.5" y="-340" font-family="DejaVu Sans" font-weight="bold" font-size="10.00" fill="#7030a0">FK</text>
<polygon fill="#f2f6fa" stroke="transparent" points="251.5,-333 251.5,-350 367.5,-350 367.5,-333 251.5,-333"/>
<text text-anchor="start" x="254.5" y="-340" font-family="DejaVu Sans" font-weight="bold" font-size="10.00">company_id</text>
<polygon fill="#f2f6fa" stroke="transparent" points="367.5,-333 367.5,-350 397.5,-350 397.5,-333 367.5,-333"/>
<text text-anchor="start" x="370.5" y="-339.6" font-family="DejaVu Sans" font-size="8.00" fill="#7f7f7f">bigint</text>
<polygon fill="#ffffff" stroke="transparent" points="228.5,-316 228.5,-333 251.5,-333 251.5,-316 228.5,-316"/>
<text text-anchor="start" x="231.5" y="-323" font-family="DejaVu Sans" font-weight="bold" font-size="10.00" fill="#7030a0">FK</text>
<polygon fill="#ffffff" stroke="transparent" points="251.5,-316 251.5,-333 367.5,-333 367.5,-316 251.5,-316"/>
<text text-anchor="start" x="254.5" y="-322" font-family="DejaVu Sans" font-size="10.00">subscription_id</text>
<polygon fill="#ffffff" stroke="transparent" points="367.5,-316 367.5,-333 397.5,-333 397.5,-316 367.5,-316"/>
<text text-anchor="start" x="370.5" y="-322.6" font-family="DejaVu Sans" font-size="8.00" fill="#7f7f7f">bigint</text>
<polygon fill="#f2f6fa" stroke="transparent" points="228.5,-299 228.5,-316 251.5,-316 251.5,-299 228.5,-299"/>
<text text-anchor="start" x="231.5" y="-306" font-family="DejaVu Sans" font-weight="bold" font-size="10.00" fill="#7030a0">FK</text>
<polygon fill="#f2f6fa" stroke="transparent" points="251.5,-299 251.5,-316 367.5,-316 367.5,-299 251.5,-299"/>
<text text-anchor="start" x="254.5" y="-305" font-family="DejaVu Sans" font-size="10.00">einvoice_document_id</text>
<polygon fill="#f2f6fa" stroke="transparent" points="367.5,-299 367.5,-316 397.5,-316 397.5,-299 367.5,-299"/>
<text text-anchor="start" x="370.5" y="-305.6" font-family="DejaVu Sans" font-size="8.00" fill="#7f7f7f">bigint</text>
<polygon fill="#ffffff" stroke="transparent" points="228.5,-282 228.5,-299 251.5,-299 251.5,-282 228.5,-282"/>
<text text-anchor="start" x="231.5" y="-289" font-family="DejaVu Sans" font-weight="bold" font-size="10.00" fill="#7030a0">FK</text>
<polygon fill="#ffffff" stroke="transparent" points="251.5,-282 251.5,-299 367.5,-299 367.5,-282 251.5,-282"/>
<text text-anchor="start" x="254.5" y="-288" font-family="DejaVu Sans" font-size="10.00">ledger_txn_id</text>
<polygon fill="#ffffff" stroke="transparent" points="367.5,-282 367.5,-299 397.5,-299 397.5,-282 367.5,-282"/>
<text text-anchor="start" x="370.5" y="-288.6" font-family="DejaVu Sans" font-size="8.00" fill="#7f7f7f">bigint</text>
<polygon fill="#f2f6fa" stroke="transparent" points="228.5,-265 228.5,-282 251.5,-282 251.5,-265 228.5,-265"/>
<text text-anchor="start" x="231.5" y="-272" font-family="DejaVu Sans" font-weight="bold" font-size="10.00" fill="#595959">UQ</text>
<polygon fill="#f2f6fa" stroke="transparent" points="251.5,-265 251.5,-282 367.5,-282 367.5,-265 251.5,-265"/>
<text text-anchor="start" x="254.5" y="-272" font-family="DejaVu Sans" font-weight="bold" font-size="10.00">uid</text>
<polygon fill="#f2f6fa" stroke="transparent" points="367.5,-265 367.5,-282 397.5,-282 397.5,-265 367.5,-265"/>
<text text-anchor="start" x="370.5" y="-271.6" font-family="DejaVu Sans" font-size="8.00" fill="#7f7f7f">uuid</text>
<polygon fill="#ffffff" stroke="transparent" points="228.5,-248 228.5,-265 251.5,-265 251.5,-248 228.5,-248"/>
<polygon fill="#ffffff" stroke="transparent" points="251.5,-248 251.5,-265 367.5,-265 367.5,-248 251.5,-248"/>
<text text-anchor="start" x="254.5" y="-255" font-family="DejaVu Sans" font-weight="bold" font-size="10.00">kind</text>
<polygon fill="#ffffff" stroke="transparent" points="367.5,-248 367.5,-265 397.5,-265 397.5,-248 367.5,-248"/>
<text text-anchor="start" x="370.5" y="-254.6" font-family="DejaVu Sans" font-size="8.00" fill="#7f7f7f">text</text>
<polygon fill="#f2f6fa" stroke="transparent" points="228.5,-231 228.5,-248 251.5,-248 251.5,-231 228.5,-231"/>
<polygon fill="#f2f6fa" stroke="transparent" points="251.5,-231 251.5,-248 367.5,-248 367.5,-231 251.5,-231"/>
<text text-anchor="start" x="254.5" y="-238" font-family="DejaVu Sans" font-weight="bold" font-size="10.00">total</text>
<polygon fill="#f2f6fa" stroke="transparent" points="367.5,-231 367.5,-248 397.5,-248 397.5,-231 367.5,-231"/>
<text text-anchor="start" x="370.5" y="-237.6" font-family="DejaVu Sans" font-size="8.00" fill="#7f7f7f">bigint</text>
<polygon fill="#ffffff" stroke="transparent" points="228.5,-216 228.5,-231 397.5,-231 397.5,-216 228.5,-216"/>
<text text-anchor="start" x="231.5" y="-222.6" font-family="DejaVu Sans" font-style="italic" font-size="8.00" fill="#7f7f7f">+ 8 more columns</text>
<path fill="none" stroke="#404040" d="M239,-215C239,-215 386,-215 386,-215 392,-215 398,-221 398,-227 398,-227 398,-389 398,-389 398,-395 392,-401 386,-401 386,-401 239,-401 239,-401 233,-401 227,-395 227,-389 227,-389 227,-227 227,-227 227,-221 233,-215 239,-215"/>
</g>
<!-- bill__carrier_invoice&#45;&gt;bill__company_subscription -->
<g id="edge9" class="edge">
<title>bill__carrier_invoice&#45;&gt;bill__company_subscription</title>
<path fill="none" stroke="#595959" stroke-width="1.1" d="M412.51,-224.75C412.51,-224.75 466.38,-224.75 466.38,-224.75"/>
<polygon fill="#595959" stroke="#595959" stroke-width="1.1" points="468.78,-224.75 476.78,-228.35 472.78,-224.75 476.78,-224.75 476.78,-224.75 476.78,-224.75 472.78,-224.75 476.78,-221.15 468.78,-224.75 468.78,-224.75"/>
<ellipse fill="none" stroke="#595959" stroke-width="1.1" cx="465.58" cy="-224.75" rx="3.2" ry="3.2"/>
<polygon fill="#595959" stroke="#595959" stroke-width="1.1" points="398.91,-228.75 398.91,-220.75 400.51,-220.75 400.51,-228.75 398.91,-228.75"/>
<polyline fill="none" stroke="#595959" stroke-width="1.1" points="398.11,-224.75 402.11,-224.75 "/>
<ellipse fill="none" stroke="#595959" stroke-width="1.1" cx="405.31" cy="-224.75" rx="3.2" ry="3.2"/>
</g>
<!-- acct__einvoice_document -->
<g id="node8" class="node">
<title>acct__einvoice_document</title>
<path fill="#f7f7f7" stroke="#8c8c8c" stroke-dasharray="5,2" d="M604,-318C604,-318 499,-318 499,-318 493,-318 487,-312 487,-306 487,-306 487,-294 487,-294 487,-288 493,-282 499,-282 499,-282 604,-282 604,-282 610,-282 616,-288 616,-294 616,-294 616,-306 616,-306 616,-312 610,-318 604,-318"/>
<text text-anchor="middle" x="551.5" y="-297.8" font-family="DejaVu Sans" font-size="9.00" fill="#404040">acct.einvoice_document</text>
</g>
<!-- bill__carrier_invoice&#45;&gt;acct__einvoice_document -->
<g id="edge7" class="edge">
<title>bill__carrier_invoice&#45;&gt;acct__einvoice_document</title>
<path fill="none" stroke="#595959" stroke-width="1.1" stroke-dasharray="5,2" d="M412.51,-300C412.51,-300 476.34,-300 476.34,-300"/>
<polygon fill="#595959" stroke="#595959" stroke-width="1.1" points="478.74,-300 486.74,-303.6 482.74,-300 486.74,-300 486.74,-300 486.74,-300 482.74,-300 486.74,-296.4 478.74,-300 478.74,-300"/>
<ellipse fill="none" stroke="#595959" stroke-width="1.1" cx="475.54" cy="-300" rx="3.2" ry="3.2"/>
<polygon fill="#595959" stroke="#595959" stroke-width="1.1" points="398.91,-304 398.91,-296 400.51,-296 400.51,-304 398.91,-304"/>
<polyline fill="none" stroke="#595959" stroke-width="1.1" points="398.11,-300 402.11,-300 "/>
<ellipse fill="none" stroke="#595959" stroke-width="1.1" cx="405.31" cy="-300" rx="3.2" ry="3.2"/>
</g>
<!-- fin__ledger_txn -->
<g id="node9" class="node">
<title>fin__ledger_txn</title>
<path fill="#f7f7f7" stroke="#8c8c8c" stroke-dasharray="5,2" d="M580.5,-452C580.5,-452 522.5,-452 522.5,-452 516.5,-452 510.5,-446 510.5,-440 510.5,-440 510.5,-428 510.5,-428 510.5,-422 516.5,-416 522.5,-416 522.5,-416 580.5,-416 580.5,-416 586.5,-416 592.5,-422 592.5,-428 592.5,-428 592.5,-440 592.5,-440 592.5,-446 586.5,-452 580.5,-452"/>
<text text-anchor="middle" x="551.5" y="-431.8" font-family="DejaVu Sans" font-size="9.00" fill="#404040">fin.ledger_txn</text>
</g>
<!-- bill__carrier_invoice&#45;&gt;fin__ledger_txn -->
<g id="edge8" class="edge">
<title>bill__carrier_invoice&#45;&gt;fin__ledger_txn</title>
<path fill="none" stroke="#595959" stroke-width="1.1" stroke-dasharray="5,2" d="M412.69,-373.33C412.69,-373.33 552,-373.33 552,-373.33 552,-373.33 552,-405.4 552,-405.4"/>
<polygon fill="#595959" stroke="#595959" stroke-width="1.1" points="406.29,-373.33 398.29,-369.73 402.29,-373.33 398.29,-373.33 398.29,-373.33 398.29,-373.33 402.29,-373.33 398.29,-376.93 406.29,-373.33 406.29,-373.33"/>
<ellipse fill="none" stroke="#595959" stroke-width="1.1" cx="409.49" cy="-373.33" rx="3.2" ry="3.2"/>
<polygon fill="#595959" stroke="#595959" stroke-width="1.1" points="556,-415 548,-415 548,-413.4 556,-413.4 556,-415"/>
<polyline fill="none" stroke="#595959" stroke-width="1.1" points="552,-415.8 552,-411.8 "/>
<ellipse fill="none" stroke="#595959" stroke-width="1.1" cx="552" cy="-408.6" rx="3.2" ry="3.2"/>
</g>
<!-- bill__carrier_invoice&#45;&gt;iam__company -->
<g id="edge6" class="edge">
<title>bill__carrier_invoice&#45;&gt;iam__company</title>
<path fill="none" stroke="#595959" stroke-width="1.1" stroke-dasharray="5,2" d="M412.71,-345.67C412.71,-345.67 932,-345.67 932,-345.67 932,-345.67 932,-293.25 932,-293.25"/>
<polygon fill="#595959" stroke="#595959" stroke-width="1.1" points="406.31,-345.67 398.31,-342.07 402.31,-345.67 398.31,-345.67 398.31,-345.67 398.31,-345.67 402.31,-345.67 398.31,-349.27 406.31,-345.67 406.31,-345.67"/>
<ellipse fill="none" stroke="#595959" stroke-width="1.1" cx="409.51" cy="-345.67" rx="3.2" ry="3.2"/>
<polygon fill="#595959" stroke="#595959" stroke-width="1.1" points="928,-286.05 936,-286.05 936,-287.65 928,-287.65 928,-286.05"/>
<polyline fill="none" stroke="#595959" stroke-width="1.1" points="932,-285.25 932,-289.25 "/>
<polygon fill="#595959" stroke="#595959" stroke-width="1.1" points="928,-290.05 936,-290.05 936,-291.65 928,-291.65 928,-290.05"/>
<polyline fill="none" stroke="#595959" stroke-width="1.1" points="932,-289.25 932,-293.25 "/>
</g>
<!-- bill__carrier_invoice_line -->
<g id="node6" class="node">
<title>bill__carrier_invoice_line</title>
<polygon fill="#7030a0" stroke="transparent" points="10,-366 10,-370 139,-370 139,-366 10,-366"/>
<polygon fill="#e4dfec" stroke="transparent" points="10,-337 10,-366 139,-366 139,-337 10,-337"/>
<text text-anchor="start" x="15" y="-353.2" font-family="DejaVu Sans" font-weight="bold" font-size="11.00">carrier_invoice_line</text>
<text text-anchor="start" x="68" y="-344.6" font-family="DejaVu Sans" font-size="8.00" fill="#595959">bill</text>
<polygon fill="#ffffff" stroke="transparent" points="10,-320 10,-337 34,-337 34,-320 10,-320"/>
<text text-anchor="start" x="13" y="-327" font-family="DejaVu Sans" font-weight="bold" font-size="10.00" fill="#1f3a5f">PK</text>
<polygon fill="#ffffff" stroke="transparent" points="34,-320 34,-337 99,-337 99,-320 34,-320"/>
<text text-anchor="start" x="37" y="-327" font-family="DejaVu Sans" font-weight="bold" font-size="10.00">invoice_id</text>
<polygon fill="#ffffff" stroke="transparent" points="99,-320 99,-337 139,-337 139,-320 99,-320"/>
<text text-anchor="start" x="102" y="-326.6" font-family="DejaVu Sans" font-size="8.00" fill="#7f7f7f">bigint</text>
<polygon fill="#f2f6fa" stroke="transparent" points="10,-303 10,-320 34,-320 34,-303 10,-303"/>
<text text-anchor="start" x="13" y="-310" font-family="DejaVu Sans" font-weight="bold" font-size="10.00" fill="#1f3a5f">PK</text>
<polygon fill="#f2f6fa" stroke="transparent" points="34,-303 34,-320 99,-320 99,-303 34,-303"/>
<text text-anchor="start" x="37" y="-310" font-family="DejaVu Sans" font-weight="bold" font-size="10.00">line_no</text>
<polygon fill="#f2f6fa" stroke="transparent" points="99,-303 99,-320 139,-320 139,-303 99,-303"/>
<text text-anchor="start" x="102" y="-309.6" font-family="DejaVu Sans" font-size="8.00" fill="#7f7f7f">smallint</text>
<polygon fill="#ffffff" stroke="transparent" points="10,-286 10,-303 34,-303 34,-286 10,-286"/>
<polygon fill="#ffffff" stroke="transparent" points="34,-286 34,-303 99,-303 99,-286 34,-286"/>
<text text-anchor="start" x="37" y="-293" font-family="DejaVu Sans" font-weight="bold" font-size="10.00">kind</text>
<polygon fill="#ffffff" stroke="transparent" points="99,-286 99,-303 139,-303 139,-286 99,-286"/>
<text text-anchor="start" x="102" y="-292.6" font-family="DejaVu Sans" font-size="8.00" fill="#7f7f7f">text</text>
<polygon fill="#f2f6fa" stroke="transparent" points="10,-269 10,-286 34,-286 34,-269 10,-269"/>
<polygon fill="#f2f6fa" stroke="transparent" points="34,-269 34,-286 99,-286 99,-269 34,-269"/>
<text text-anchor="start" x="37" y="-276" font-family="DejaVu Sans" font-weight="bold" font-size="10.00">amount</text>
<polygon fill="#f2f6fa" stroke="transparent" points="99,-269 99,-286 139,-286 139,-269 99,-269"/>
<text text-anchor="start" x="102" y="-275.6" font-family="DejaVu Sans" font-size="8.00" fill="#7f7f7f">bigint</text>
<polygon fill="#ffffff" stroke="transparent" points="10,-254 10,-269 139,-269 139,-254 10,-254"/>
<text text-anchor="start" x="13" y="-260.6" font-family="DejaVu Sans" font-style="italic" font-size="8.00" fill="#7f7f7f">+ 3 more columns</text>
<path fill="none" stroke="#404040" d="M20.5,-253C20.5,-253 127.5,-253 127.5,-253 133.5,-253 139.5,-259 139.5,-265 139.5,-265 139.5,-359 139.5,-359 139.5,-365 133.5,-371 127.5,-371 127.5,-371 20.5,-371 20.5,-371 14.5,-371 8.5,-365 8.5,-359 8.5,-359 8.5,-265 8.5,-265 8.5,-259 14.5,-253 20.5,-253"/>
</g>
<!-- bill__carrier_invoice_line&#45;&gt;bill__carrier_invoice -->
<g id="edge10" class="edge">
<title>bill__carrier_invoice_line&#45;&gt;bill__carrier_invoice</title>
<path fill="none" stroke="#595959" stroke-width="1.1" d="M154.2,-312C154.2,-312 218.79,-312 218.79,-312"/>
<polygon fill="#595959" stroke="#595959" stroke-width="1.1" points="218.79,-312 226.79,-315.6 222.79,-312 226.79,-312 226.79,-312 226.79,-312 222.79,-312 226.79,-308.4 218.79,-312 218.79,-312"/>
<ellipse fill="none" stroke="#595959" stroke-width="1.1" cx="215.59" cy="-312" rx="3.2" ry="3.2"/>
<polygon fill="#595959" stroke="#595959" stroke-width="1.1" points="140.6,-316 140.6,-308 142.2,-308 142.2,-316 140.6,-316"/>
<polyline fill="none" stroke="#595959" stroke-width="1.1" points="139.8,-312 143.8,-312 "/>
<polygon fill="#595959" stroke="#595959" stroke-width="1.1" points="144.6,-316 144.6,-308 146.2,-308 146.2,-316 144.6,-316"/>
<polyline fill="none" stroke="#595959" stroke-width="1.1" points="143.8,-312 147.8,-312 "/>
</g>
<!-- bill__billed_usage -->
<g id="node7" class="node">
<title>bill__billed_usage</title>
<polygon fill="#7030a0" stroke="transparent" points="1,-215 1,-219 147,-219 147,-215 1,-215"/>
<polygon fill="#e4dfec" stroke="transparent" points="1,-186 1,-215 147,-215 147,-186 1,-186"/>
<text text-anchor="start" x="36" y="-202.2" font-family="DejaVu Sans" font-weight="bold" font-size="11.00">billed_usage</text>
<text text-anchor="start" x="67.5" y="-193.6" font-family="DejaVu Sans" font-size="8.00" fill="#595959">bill</text>
<polygon fill="#ffffff" stroke="transparent" points="1,-169 1,-186 23,-186 23,-169 1,-169"/>
<text text-anchor="start" x="4" y="-176" font-family="DejaVu Sans" font-weight="bold" font-size="10.00" fill="#1f3a5f">PK</text>
<polygon fill="#ffffff" stroke="transparent" points="23,-169 23,-186 117,-186 117,-169 23,-169"/>
<text text-anchor="start" x="26" y="-176" font-family="DejaVu Sans" font-weight="bold" font-size="10.00">id</text>
<polygon fill="#ffffff" stroke="transparent" points="117,-169 117,-186 147,-186 147,-169 117,-169"/>
<text text-anchor="start" x="120" y="-175.6" font-family="DejaVu Sans" font-size="8.00" fill="#7f7f7f">bigint</text>
<polygon fill="#f2f6fa" stroke="transparent" points="1,-152 1,-169 23,-169 23,-152 1,-152"/>
<text text-anchor="start" x="4" y="-159" font-family="DejaVu Sans" font-weight="bold" font-size="10.00" fill="#7030a0">FK</text>
<polygon fill="#f2f6fa" stroke="transparent" points="23,-152 23,-169 117,-169 117,-152 23,-152"/>
<text text-anchor="start" x="26" y="-159" font-family="DejaVu Sans" font-weight="bold" font-size="10.00">company_id</text>
<polygon fill="#f2f6fa" stroke="transparent" points="117,-152 117,-169 147,-169 147,-152 117,-152"/>
<text text-anchor="start" x="120" y="-158.6" font-family="DejaVu Sans" font-size="8.00" fill="#7f7f7f">bigint</text>
<polygon fill="#ffffff" stroke="transparent" points="1,-135 1,-152 23,-152 23,-135 1,-135"/>
<text text-anchor="start" x="4" y="-142" font-family="DejaVu Sans" font-weight="bold" font-size="10.00" fill="#7030a0">FK</text>
<polygon fill="#ffffff" stroke="transparent" points="23,-135 23,-152 117,-152 117,-135 23,-135"/>
<text text-anchor="start" x="26" y="-142" font-family="DejaVu Sans" font-weight="bold" font-size="10.00">subscription_id</text>
<polygon fill="#ffffff" stroke="transparent" points="117,-135 117,-152 147,-152 147,-135 117,-135"/>
<text text-anchor="start" x="120" y="-141.6" font-family="DejaVu Sans" font-size="8.00" fill="#7f7f7f">bigint</text>
<polygon fill="#f2f6fa" stroke="transparent" points="1,-118 1,-135 23,-135 23,-118 1,-118"/>
<text text-anchor="start" x="4" y="-125" font-family="DejaVu Sans" font-weight="bold" font-size="10.00" fill="#7030a0">FK</text>
<polygon fill="#f2f6fa" stroke="transparent" points="23,-118 23,-135 117,-135 117,-118 23,-118"/>
<text text-anchor="start" x="26" y="-125" font-family="DejaVu Sans" font-weight="bold" font-size="10.00">invoice_id</text>
<polygon fill="#f2f6fa" stroke="transparent" points="117,-118 117,-135 147,-135 147,-118 117,-118"/>
<text text-anchor="start" x="120" y="-124.6" font-family="DejaVu Sans" font-size="8.00" fill="#7f7f7f">bigint</text>
<polygon fill="#ffffff" stroke="transparent" points="1,-101 1,-118 23,-118 23,-101 1,-101"/>
<polygon fill="#ffffff" stroke="transparent" points="23,-101 23,-118 117,-118 117,-101 23,-101"/>
<text text-anchor="start" x="26" y="-108" font-family="DejaVu Sans" font-weight="bold" font-size="10.00">kind</text>
<polygon fill="#ffffff" stroke="transparent" points="117,-101 117,-118 147,-118 147,-101 117,-101"/>
<text text-anchor="start" x="120" y="-107.6" font-family="DejaVu Sans" font-size="8.00" fill="#7f7f7f">text</text>
<polygon fill="#ffffff" stroke="transparent" points="1,-86 1,-101 147,-101 147,-86 1,-86"/>
<text text-anchor="start" x="4" y="-92.6" font-family="DejaVu Sans" font-style="italic" font-size="8.00" fill="#7f7f7f">+ 2 more columns</text>
<path fill="none" stroke="#404040" d="M12,-85.5C12,-85.5 136,-85.5 136,-85.5 142,-85.5 148,-91.5 148,-97.5 148,-97.5 148,-208.5 148,-208.5 148,-214.5 142,-220.5 136,-220.5 136,-220.5 12,-220.5 12,-220.5 6,-220.5 0,-214.5 0,-208.5 0,-208.5 0,-97.5 0,-97.5 0,-91.5 6,-85.5 12,-85.5"/>
</g>
<!-- bill__billed_usage&#45;&gt;bill__company_subscription -->
<g id="edge13" class="edge">
<title>bill__billed_usage&#45;&gt;bill__company_subscription</title>
<path fill="none" stroke="#595959" stroke-width="1.1" d="M162.49,-157.25C162.49,-157.25 468.85,-157.25 468.85,-157.25"/>
<polygon fill="#595959" stroke="#595959" stroke-width="1.1" points="468.85,-157.25 476.85,-160.85 472.85,-157.25 476.85,-157.25 476.85,-157.25 476.85,-157.25 472.85,-157.25 476.85,-153.65 468.85,-157.25 468.85,-157.25"/>
<ellipse fill="none" stroke="#595959" stroke-width="1.1" cx="465.65" cy="-157.25" rx="3.2" ry="3.2"/>
<polygon fill="#595959" stroke="#595959" stroke-width="1.1" points="148.89,-161.25 148.89,-153.25 150.49,-153.25 150.49,-161.25 148.89,-161.25"/>
<polyline fill="none" stroke="#595959" stroke-width="1.1" points="148.09,-157.25 152.09,-157.25 "/>
<polygon fill="#595959" stroke="#595959" stroke-width="1.1" points="152.89,-161.25 152.89,-153.25 154.49,-153.25 154.49,-161.25 152.89,-161.25"/>
<polyline fill="none" stroke="#595959" stroke-width="1.1" points="152.09,-157.25 156.09,-157.25 "/>
</g>
<!-- bill__billed_usage&#45;&gt;bill__carrier_invoice -->
<g id="edge12" class="edge">
<title>bill__billed_usage&#45;&gt;bill__carrier_invoice</title>
<path fill="none" stroke="#595959" stroke-width="1.1" d="M146,-235C146,-235 146,-236.75 146,-236.75 146,-236.75 218.81,-236.75 218.81,-236.75"/>
<polygon fill="#595959" stroke="#595959" stroke-width="1.1" points="146,-228.6 149.6,-220.6 146,-224.6 146,-220.6 146,-220.6 146,-220.6 146,-224.6 142.4,-220.6 146,-228.6 146,-228.6"/>
<ellipse fill="none" stroke="#595959" stroke-width="1.1" cx="146" cy="-231.8" rx="3.2" ry="3.2"/>
<polygon fill="#595959" stroke="#595959" stroke-width="1.1" points="226.01,-232.75 226.01,-240.75 224.41,-240.75 224.41,-232.75 226.01,-232.75"/>
<polyline fill="none" stroke="#595959" stroke-width="1.1" points="226.81,-236.75 222.81,-236.75 "/>
<polygon fill="#595959" stroke="#595959" stroke-width="1.1" points="222.01,-232.75 222.01,-240.75 220.41,-240.75 220.41,-232.75 222.01,-232.75"/>
<polyline fill="none" stroke="#595959" stroke-width="1.1" points="222.81,-236.75 218.81,-236.75 "/>
</g>
<!-- bill__billed_usage&#45;&gt;iam__company -->
<g id="edge11" class="edge">
<title>bill__billed_usage&#45;&gt;iam__company</title>
<path fill="none" stroke="#595959" stroke-width="1.1" stroke-dasharray="5,2" d="M143,-235.2C143,-235.2 143,-408.5 143,-408.5 143,-408.5 952,-408.5 952,-408.5 952,-408.5 952,-293.21 952,-293.21"/>
<polygon fill="#595959" stroke="#595959" stroke-width="1.1" points="143,-228.8 146.6,-220.8 143,-224.8 143,-220.8 143,-220.8 143,-220.8 143,-224.8 139.4,-220.8 143,-228.8 143,-228.8"/>
<ellipse fill="none" stroke="#595959" stroke-width="1.1" cx="143" cy="-232" rx="3.2" ry="3.2"/>
<polygon fill="#595959" stroke="#595959" stroke-width="1.1" points="948,-286.01 956,-286.01 956,-287.61 948,-287.61 948,-286.01"/>
<polyline fill="none" stroke="#595959" stroke-width="1.1" points="952,-285.21 952,-289.21 "/>
<polygon fill="#595959" stroke="#595959" stroke-width="1.1" points="948,-290.01 956,-290.01 956,-291.61 948,-291.61 948,-290.01"/>
<polyline fill="none" stroke="#595959" stroke-width="1.1" points="952,-289.21 952,-293.21 "/>
</g>
</g>
</svg>
