<svg width="737" height="843" id="my-svg" xmlns="http://www.w3.org/2000/svg" xmlns:xlink="http://www.w3.org/1999/xlink" class="erDiagram" viewBox="6.25 0 736.5625 842.75" role="graphics-document document" aria-roledescription="er" style="background-color: white;"><style>#my-svg{font-family:"trebuchet ms",verdana,arial,sans-serif;font-size:16px;fill:#333;}@keyframes edge-animation-frame{from{stroke-dashoffset:0;}}@keyframes dash{to{stroke-dashoffset:0;}}#my-svg .edge-animation-slow{stroke-dasharray:9,5!important;stroke-dashoffset:900;animation:dash 50s linear infinite;stroke-linecap:round;}#my-svg .edge-animation-fast{stroke-dasharray:9,5!important;stroke-dashoffset:900;animation:dash 20s linear infinite;stroke-linecap:round;}#my-svg .error-icon{fill:#552222;}#my-svg .error-text{fill:#552222;stroke:#552222;}#my-svg .edge-thickness-normal{stroke-width:1px;}#my-svg .edge-thickness-thick{stroke-width:3.5px;}#my-svg .edge-pattern-solid{stroke-dasharray:0;}#my-svg .edge-thickness-invisible{stroke-width:0;fill:none;}#my-svg .edge-pattern-dashed{stroke-dasharray:3;}#my-svg .edge-pattern-dotted{stroke-dasharray:2;}#my-svg .marker{fill:#333333;stroke:#333333;}#my-svg .marker.cross{stroke:#333333;}#my-svg svg{font-family:"trebuchet ms",verdana,arial,sans-serif;font-size:16px;}#my-svg p{margin:0;}#my-svg .entityBox{fill:#ECECFF;stroke:#9370DB;}#my-svg .relationshipLabelBox{fill:hsl(80, 100%, 96.2745098039%);opacity:0.7;background-color:hsl(80, 100%, 96.2745098039%);}#my-svg .relationshipLabelBox rect{opacity:0.5;}#my-svg .labelBkg{background-color:rgba(248.6666666666, 255, 235.9999999999, 0.5);}#my-svg .edgeLabel{background-color:rgba(232,232,232, 0.8);}#my-svg .edgeLabel .label rect{fill:rgba(232,232,232, 0.8);}#my-svg .edgeLabel .label text{fill:#333;}#my-svg .edgeLabel .label{fill:#9370DB;font-size:14px;}#my-svg .label{font-family:"trebuchet ms",verdana,arial,sans-serif;color:#333;}#my-svg .edge-pattern-dashed{stroke-dasharray:8,8;}#my-svg .node rect,#my-svg .node circle,#my-svg .node ellipse,#my-svg .node polygon{fill:#ECECFF;stroke:#9370DB;stroke-width:1px;}#my-svg .relationshipLine{stroke:#333333;stroke-width:1px;fill:none;}#my-svg .marker{fill:none!important;stroke:#333333!important;stroke-width:1;}#my-svg [data-look=neo].labelBkg{background-color:rgba(248.6666666666, 255, 235.9999999999, 0.5);}#my-svg .cluster rect{fill:#ffffde;stroke:#aaaa33;stroke-width:1px;}#my-svg .cluster text{fill:#333;}#my-svg .cluster-label text{fill:#333;}#my-svg .node .neo-node{stroke:#9370DB;}#my-svg [data-look="neo"].node rect,#my-svg [data-look="neo"].cluster rect,#my-svg [data-look="neo"].node polygon{stroke:#9370DB;filter:drop-shadow(1px 2px 2px rgba(185, 185, 185, 1));}#my-svg [data-look="neo"].swimlane.cluster rect{filter:none;}#my-svg [data-look="neo"].node path{stroke:#9370DB;stroke-width:1px;}#my-svg [data-look="neo"].node .outer-path{filter:drop-shadow(1px 2px 2px rgba(185, 185, 185, 1));}#my-svg [data-look="neo"].node .neo-line path{stroke:#9370DB;filter:none;}#my-svg [data-look="neo"].node circle{stroke:#9370DB;filter:drop-shadow(1px 2px 2px rgba(185, 185, 185, 1));}#my-svg [data-look="neo"].node circle .state-start{fill:#000000;}#my-svg [data-look="neo"].icon-shape .icon{fill:#9370DB;filter:drop-shadow(1px 2px 2px rgba(185, 185, 185, 1));}#my-svg [data-look="neo"].icon-shape .icon-neo path{stroke:#9370DB;filter:drop-shadow(1px 2px 2px rgba(185, 185, 185, 1));}#my-svg :root{--mermaid-font-family:"trebuchet ms",verdana,arial,sans-serif;}</style><g><defs><marker id="my-svg_er-onlyOneStart" class="marker onlyOne er" refX="0" refY="9" markerWidth="18" markerHeight="18" orient="auto"><path d="M9,0 L9,18 M15,0 L15,18"/></marker></defs><defs><marker id="my-svg_er-onlyOneEnd" class="marker onlyOne er" refX="18" refY="9" markerWidth="18" markerHeight="18" orient="auto"><path d="M3,0 L3,18 M9,0 L9,18"/></marker></defs><defs><marker id="my-svg_er-zeroOrOneStart" class="marker zeroOrOne er" refX="0" refY="9" markerWidth="30" markerHeight="18" orient="auto"><circle fill="white" cx="21" cy="9" r="6"/><path d="M9,0 L9,18"/></marker></defs><defs><marker id="my-svg_er-zeroOrOneEnd" class="marker zeroOrOne er" refX="30" refY="9" markerWidth="30" markerHeight="18" orient="auto"><circle fill="white" cx="9" cy="9" r="6"/><path d="M21,0 L21,18"/></marker></defs><defs><marker id="my-svg_er-oneOrMoreStart" class="marker oneOrMore er" refX="18" refY="18" markerWidth="45" markerHeight="36" orient="auto"><path d="M0,18 Q 18,0 36,18 Q 18,36 0,18 M42,9 L42,27"/></marker></defs><defs><marker id="my-svg_er-oneOrMoreEnd" class="marker oneOrMore er" refX="27" refY="18" markerWidth="45" markerHeight="36" orient="auto"><path d="M3,9 L3,27 M9,18 Q27,0 45,18 Q27,36 9,18"/></marker></defs><defs><marker id="my-svg_er-zeroOrMoreStart" class="marker zeroOrMore er" refX="18" refY="18" markerWidth="57" markerHeight="36" orient="auto"><circle fill="white" cx="48" cy="18" r="6"/><path d="M0,18 Q18,0 36,18 Q18,36 0,18"/></marker></defs><defs><marker id="my-svg_er-zeroOrMoreEnd" class="marker zeroOrMore er" refX="39" refY="18" markerWidth="57" markerHeight="36" orient="auto"><circle fill="white" cx="9" cy="18" r="6"/><path d="M21,18 Q39,0 57,18 Q39,36 21,18"/></marker></defs><g class="root"><g class="clusters"/><g class="edgePaths"><path d="M558.074,475.5L558.074,484C558.074,492.5,558.074,509.5,558.074,526.5C558.074,543.5,558.074,560.5,558.074,569L558.074,577.5" id="my-svg-id_entity-obl_ReportingInstance-2_entity-obl_ObligationBreach-0_0" class="edge-thickness-normal edge-pattern-solid relationshipLine" style="undefined;;;undefined" data-edge="true" data-et="edge" data-id="id_entity-obl_ReportingInstance-2_entity-obl_ObligationBreach-0_0" data-points="W3sieCI6NTU4LjA3NDIxODc1LCJ5Ijo0NzUuNX0seyJ4Ijo1NTguMDc0MjE4NzUsInkiOjUyNi41fSx7IngiOjU1OC4wNzQyMTg3NSwieSI6NTc3LjV9XQ==" data-look="classic" marker-start="url(#my-svg_er-zeroOrOneStart)" marker-end="url(#my-svg_er-zeroOrMoreEnd)"/><path d="M558.074,154L558.074,162.5C558.074,171,558.074,188,558.074,205C558.074,222,558.074,239,558.074,247.5L558.074,256" id="my-svg-id_entity-obl_ReportingObligation-3_entity-obl_ReportingInstance-2_1" class="edge-thickness-normal edge-pattern-solid relationshipLine" style="undefined;;;undefined" data-edge="true" data-et="edge" data-id="id_entity-obl_ReportingObligation-3_entity-obl_ReportingInstance-2_1" data-points="W3sieCI6NTU4LjA3NDIxODc1LCJ5IjoxNTR9LHsieCI6NTU4LjA3NDIxODc1LCJ5IjoyMDV9LHsieCI6NTU4LjA3NDIxODc1LCJ5IjoyNTZ9XQ==" data-look="classic" marker-start="url(#my-svg_er-onlyOneStart)" marker-end="url(#my-svg_er-zeroOrMoreEnd)"/></g><g class="edgeLabels"><g class="edgeLabel" transform="translate(558.07421875, 526.5)"><g class="label" data-id="id_entity-obl_ReportingInstance-2_entity-obl_ObligationBreach-0_0" transform="translate(0, -9.000000476837158)"><g><rect class="background" style="" x="-73.6015625" y="0" width="147.203125" height="22"/><text y="-10.1" text-anchor="middle" style=""><tspan class="text-outer-tspan row" x="0" y="-0.1em" dy="1.1em" text-anchor="middle"><tspan font-style="normal" class="text-inner-tspan" font-weight="normal">ReportingInstanceId</tspan></tspan></text></g></g></g><g class="edgeLabel" transform="translate(558.07421875, 205)"><g class="label" data-id="id_entity-obl_ReportingObligation-3_entity-obl_ReportingInstance-2_1" transform="translate(0, -9.000000476837158)"><g><rect class="background" style="" x="-79.3828125" y="0" width="158.765625" height="22"/><text y="-10.1" text-anchor="middle" style=""><tspan class="text-outer-tspan row" x="0" y="-0.1em" dy="1.1em" text-anchor="middle"><tspan font-style="normal" class="text-inner-tspan" font-weight="normal">ReportingObligationId</tspan></tspan></text></g></g></g></g><g class="nodes"><g class="node default" id="my-svg-entity-obl_ObligationBreach-0" data-look="classic" transform="translate(558.07421875, 706.125)"><g class="outer-path" style=""><path d="M-144.80859375 -128.625 L144.80859375 -128.625 L144.80859375 128.625 L-144.80859375 128.625" stroke="none" stroke-width="0" fill="#ECECFF"/><path d="M-144.80859375 -128.625 C-51.37250398994897 -128.625, 42.063585770102065 -128.625, 144.80859375 -128.625 M-144.80859375 -128.625 C-61.7764794749273 -128.625, 21.2556348001454 -128.625, 144.80859375 -128.625 M144.80859375 -128.625 C144.80859375 -72.06343779768162, 144.80859375 -15.50187559536323, 144.80859375 128.625 M144.80859375 -128.625 C144.80859375 -59.768729927844745, 144.80859375 9.087540144310509, 144.80859375 128.625 M144.80859375 128.625 C37.619830375164284 128.625, -69.56893299967143 128.625, -144.80859375 128.625 M144.80859375 128.625 C78.94425357708418 128.625, 13.079913404168366 128.625, -144.80859375 128.625 M-144.80859375 128.625 C-144.80859375 53.527647443403296, -144.80859375 -21.569705113193407, -144.80859375 -128.625 M-144.80859375 128.625 C-144.80859375 27.15316582435085, -144.80859375 -74.3186683512983, -144.80859375 -128.625" stroke="#9370DB" stroke-width="1.3" fill="none" stroke-dasharray="0 0"/></g><g style="" class="row-rect-odd"><path d="M-144.80859375 -91.875 L144.80859375 -91.875 L144.80859375 -55.125 L-144.80859375 -55.125" stroke="none" stroke-width="0" fill="hsl(240, 100%, 100%)"/><path d="M-144.80859375 -91.875 C-45.03005589123879 -91.875, 54.74848196752242 -91.875, 144.80859375 -91.875 M-144.80859375 -91.875 C-47.16834255473967 -91.875, 50.47190864052067 -91.875, 144.80859375 -91.875 M144.80859375 -91.875 C144.80859375 -82.62413630613993, 144.80859375 -73.37327261227986, 144.80859375 -55.125 M144.80859375 -91.875 C144.80859375 -83.61685711202449, 144.80859375 -75.35871422404898, 144.80859375 -55.125 M144.80859375 -55.125 C56.34630993388696 -55.125, -32.115973882226086 -55.125, -144.80859375 -55.125 M144.80859375 -55.125 C29.610349182902368 -55.125, -85.58789538419526 -55.125, -144.80859375 -55.125 M-144.80859375 -55.125 C-144.80859375 -66.13016670320667, -144.80859375 -77.13533340641332, -144.80859375 -91.875 M-144.80859375 -55.125 C-144.80859375 -68.3279228856484, -144.80859375 -81.53084577129681, -144.80859375 -91.875" stroke="#9370DB" stroke-width="1.3" fill="none" stroke-dasharray="0 0"/></g><g style="" class="row-rect-even"><path d="M-144.80859375 -55.125 L144.80859375 -55.125 L144.80859375 -18.375 L-144.80859375 -18.375" stroke="none" stroke-width="0" fill="hsl(240, 100%, 97.2745098039%)"/><path d="M-144.80859375 -55.125 C-63.11440200762915 -55.125, 18.579789734741695 -55.125, 144.80859375 -55.125 M-144.80859375 -55.125 C-71.6370436776865 -55.125, 1.5345063946269875 -55.125, 144.80859375 -55.125 M144.80859375 -55.125 C144.80859375 -46.595992576671286, 144.80859375 -38.06698515334257, 144.80859375 -18.375 M144.80859375 -55.125 C144.80859375 -45.269239370849185, 144.80859375 -35.41347874169837, 144.80859375 -18.375 M144.80859375 -18.375 C53.166710111161976 -18.375, -38.47517352767605 -18.375, -144.80859375 -18.375 M144.80859375 -18.375 C57.32657257389667 -18.375, -30.15544860220666 -18.375, -144.80859375 -18.375 M-144.80859375 -18.375 C-144.80859375 -31.547642288397192, -144.80859375 -44.720284576794384, -144.80859375 -55.125 M-144.80859375 -18.375 C-144.80859375 -29.778503629945476, -144.80859375 -41.18200725989095, -144.80859375 -55.125" stroke="#9370DB" stroke-width="1.3" fill="none" stroke-dasharray="0 0"/></g><g style="" class="row-rect-odd"><path d="M-144.80859375 -18.375 L144.80859375 -18.375 L144.80859375 18.375 L-144.80859375 18.375" stroke="none" stroke-width="0" fill="hsl(240, 100%, 100%)"/><path d="M-144.80859375 -18.375 C-50.93932148376972 -18.375, 42.929950782460566 -18.375, 144.80859375 -18.375 M-144.80859375 -18.375 C-42.75689279479849 -18.375, 59.29480816040302 -18.375, 144.80859375 -18.375 M144.80859375 -18.375 C144.80859375 -5.277687043022386, 144.80859375 7.819625913955228, 144.80859375 18.375 M144.80859375 -18.375 C144.80859375 -5.297757866271677, 144.80859375 7.779484267456645, 144.80859375 18.375 M144.80859375 18.375 C42.022592125184275 18.375, -60.76340949963145 18.375, -144.80859375 18.375 M144.80859375 18.375 C69.2034845310577 18.375, -6.401624687884606 18.375, -144.80859375 18.375 M-144.80859375 18.375 C-144.80859375 5.573350164609495, -144.80859375 -7.228299670781009, -144.80859375 -18.375 M-144.80859375 18.375 C-144.80859375 5.532174973635978, -144.80859375 -7.310650052728043, -144.80859375 -18.375" stroke="#9370DB" stroke-width="1.3" fill="none" stroke-dasharray="0 0"/></g><g style="" class="row-rect-even"><path d="M-144.80859375 18.375 L144.80859375 18.375 L144.80859375 55.125 L-144.80859375 55.125" stroke="none" stroke-width="0" fill="hsl(240, 100%, 97.2745098039%)"/><path d="M-144.80859375 18.375 C-65.78562205791793 18.375, 13.237349634164133 18.375, 144.80859375 18.375 M-144.80859375 18.375 C-36.90822877707568 18.375, 70.99213619584864 18.375, 144.80859375 18.375 M144.80859375 18.375 C144.80859375 30.279339620764922, 144.80859375 42.183679241529845, 144.80859375 55.125 M144.80859375 18.375 C144.80859375 29.873312060659853, 144.80859375 41.371624121319705, 144.80859375 55.125 M144.80859375 55.125 C62.169522595495366 55.125, -20.46954855900927 55.125, -144.80859375 55.125 M144.80859375 55.125 C69.80207605289202 55.125, -5.204441644215962 55.125, -144.80859375 55.125 M-144.80859375 55.125 C-144.80859375 43.60696100603746, -144.80859375 32.08892201207492, -144.80859375 18.375 M-144.80859375 55.125 C-144.80859375 40.44214284604991, -144.80859375 25.759285692099827, -144.80859375 18.375" stroke="#9370DB" stroke-width="1.3" fill="none" stroke-dasharray="0 0"/></g><g style="" class="row-rect-odd"><path d="M-144.80859375 55.125 L144.80859375 55.125 L144.80859375 91.875 L-144.80859375 91.875" stroke="none" stroke-width="0" fill="hsl(240, 100%, 100%)"/><path d="M-144.80859375 55.125 C-45.67428794287356 55.125, 53.460017864252876 55.125, 144.80859375 55.125 M-144.80859375 55.125 C-68.87400258508286 55.125, 7.060588579834274 55.125, 144.80859375 55.125 M144.80859375 55.125 C144.80859375 68.4350468172052, 144.80859375 81.74509363441042, 144.80859375 91.875 M144.80859375 55.125 C144.80859375 63.36828664114016, 144.80859375 71.61157328228032, 144.80859375 91.875 M144.80859375 91.875 C56.49478516220532 91.875, -31.819023425589364 91.875, -144.80859375 91.875 M144.80859375 91.875 C34.85295049055654 91.875, -75.10269276888693 91.875, -144.80859375 91.875 M-144.80859375 91.875 C-144.80859375 83.81003333366944, -144.80859375 75.74506666733888, -144.80859375 55.125 M-144.80859375 91.875 C-144.80859375 83.60868311165814, -144.80859375 75.34236622331628, -144.80859375 55.125" stroke="#9370DB" stroke-width="1.3" fill="none" stroke-dasharray="0 0"/></g><g style="" class="row-rect-even"><path d="M-144.80859375 91.875 L144.80859375 91.875 L144.80859375 128.625 L-144.80859375 128.625" stroke="none" stroke-width="0" fill="hsl(240, 100%, 97.2745098039%)"/><path d="M-144.80859375 91.875 C-44.07586657487259 91.875, 56.65686060025482 91.875, 144.80859375 91.875 M-144.80859375 91.875 C-78.3423561730316 91.875, -11.876118596063208 91.875, 144.80859375 91.875 M144.80859375 91.875 C144.80859375 99.57685987846337, 144.80859375 107.27871975692673, 144.80859375 128.625 M144.80859375 91.875 C144.80859375 105.67192301229014, 144.80859375 119.46884602458026, 144.80859375 128.625 M144.80859375 128.625 C61.70434816932192 128.625, -21.399897411356164 128.625, -144.80859375 128.625 M144.80859375 128.625 C76.00388416835476 128.625, 7.199174586709518 128.625, -144.80859375 128.625 M-144.80859375 128.625 C-144.80859375 115.62297431031605, -144.80859375 102.6209486206321, -144.80859375 91.875 M-144.80859375 128.625 C-144.80859375 115.82128577481501, -144.80859375 103.01757154963003, -144.80859375 91.875" stroke="#9370DB" stroke-width="1.3" fill="none" stroke-dasharray="0 0"/></g><g class="label name" transform="translate(-74.2734375, -119.25)" style=""><g><rect class="background" style="stroke: none"/></g><text y="-10.1" style=""><tspan class="text-outer-tspan row" x="0" y="-0.1em" dy="1.1em"><tspan font-style="normal" class="text-inner-tspan" font-weight="normal">obl.ObligationBreach</tspan></tspan></text></g><g class="label attribute-type" transform="translate(-132.30859375, -82.5)" style=""><g><rect class="background" style="stroke: none"/></g><text y="-10.1" style=""><tspan class="text-outer-tspan row" x="0" y="-0.1em" dy="1.1em"><tspan font-style="normal" class="text-inner-tspan" font-weight="normal">bigint</tspan></tspan></text></g><g class="label attribute-name" transform="translate(-68.50390625, -82.5)" style=""><g><rect class="background" style="stroke: none"/></g><text y="-10.1" style=""><tspan class="text-outer-tspan row" x="0" y="-0.1em" dy="1.1em"><tspan font-style="normal" class="text-inner-tspan" font-weight="normal">ObligationBreachId</tspan></tspan></text></g><g class="label attribute-keys" transform="translate(110.63671875, -82.5)" style=""><g><rect class="background" style="stroke: none"/></g><text y="-10.1" style=""><tspan class="text-outer-tspan row" x="0" y="-0.1em" dy="1.1em"><tspan font-style="normal" class="text-inner-tspan" font-weight="normal">PK</tspan></tspan></text></g><g class="label attribute-comment" transform="translate(157.30859375, -82.5)" style=""><g><rect class="background" style="stroke: none"/></g><text y="-10.1" style=""><tspan class="text-outer-tspan row" x="0" y="-0.1em" dy="1.1em"/></text></g><g class="label attribute-type" transform="translate(-132.30859375, -45.75)" style=""><g><rect class="background" style="stroke: none"/></g><text y="-10.1" style=""><tspan class="text-outer-tspan row" x="0" y="-0.1em" dy="1.1em"><tspan font-style="normal" class="text-inner-tspan" font-weight="normal">bigint</tspan></tspan></text></g><g class="label attribute-name" transform="translate(-68.50390625, -45.75)" style=""><g><rect class="background" style="stroke: none"/></g><text y="-10.1" style=""><tspan class="text-outer-tspan row" x="0" y="-0.1em" dy="1.1em"><tspan font-style="normal" class="text-inner-tspan" font-weight="normal">ObligationId</tspan></tspan></text></g><g class="label attribute-keys" transform="translate(110.63671875, -45.75)" style=""><g><rect class="background" style="stroke: none"/></g><text y="-10.1" style=""><tspan class="text-outer-tspan row" x="0" y="-0.1em" dy="1.1em"><tspan font-style="normal" class="text-inner-tspan" font-weight="normal">FK</tspan></tspan></text></g><g class="label attribute-comment" transform="translate(157.30859375, -45.75)" style=""><g><rect class="background" style="stroke: none"/></g><text y="-10.1" style=""><tspan class="text-outer-tspan row" x="0" y="-0.1em" dy="1.1em"/></text></g><g class="label attribute-type" transform="translate(-132.30859375, -9)" style=""><g><rect class="background" style="stroke: none"/></g><text y="-10.1" style=""><tspan class="text-outer-tspan row" x="0" y="-0.1em" dy="1.1em"><tspan font-style="normal" class="text-inner-tspan" font-weight="normal">bigint</tspan></tspan></text></g><g class="label attribute-name" transform="translate(-68.50390625, -9)" style=""><g><rect class="background" style="stroke: none"/></g><text y="-10.1" style=""><tspan class="text-outer-tspan row" x="0" y="-0.1em" dy="1.1em"><tspan font-style="normal" class="text-inner-tspan" font-weight="normal">CovenantTestId</tspan></tspan></text></g><g class="label attribute-keys" transform="translate(110.63671875, -9)" style=""><g><rect class="background" style="stroke: none"/></g><text y="-10.1" style=""><tspan class="text-outer-tspan row" x="0" y="-0.1em" dy="1.1em"><tspan font-style="normal" class="text-inner-tspan" font-weight="normal">FK</tspan></tspan></text></g><g class="label attribute-comment" transform="translate(157.30859375, -9)" style=""><g><rect class="background" style="stroke: none"/></g><text y="-10.1" style=""><tspan class="text-outer-tspan row" x="0" y="-0.1em" dy="1.1em"/></text></g><g class="label attribute-type" transform="translate(-132.30859375, 27.75)" style=""><g><rect class="background" style="stroke: none"/></g><text y="-10.1" style=""><tspan class="text-outer-tspan row" x="0" y="-0.1em" dy="1.1em"><tspan font-style="normal" class="text-inner-tspan" font-weight="normal">bigint</tspan></tspan></text></g><g class="label attribute-name" transform="translate(-68.50390625, 27.75)" style=""><g><rect class="background" style="stroke: none"/></g><text y="-10.1" style=""><tspan class="text-outer-tspan row" x="0" y="-0.1em" dy="1.1em"><tspan font-style="normal" class="text-inner-tspan" font-weight="normal">ReportingInstanceId</tspan></tspan></text></g><g class="label attribute-keys" transform="translate(110.63671875, 27.75)" style=""><g><rect class="background" style="stroke: none"/></g><text y="-10.1" style=""><tspan class="text-outer-tspan row" x="0" y="-0.1em" dy="1.1em"><tspan font-style="normal" class="text-inner-tspan" font-weight="normal">FK</tspan></tspan></text></g><g class="label attribute-comment" transform="translate(157.30859375, 27.75)" style=""><g><rect class="background" style="stroke: none"/></g><text y="-10.1" style=""><tspan class="text-outer-tspan row" x="0" y="-0.1em" dy="1.1em"/></text></g><g class="label attribute-type" transform="translate(-132.30859375, 64.5)" style=""><g><rect class="background" style="stroke: none"/></g><text y="-10.1" style=""><tspan class="text-outer-tspan row" x="0" y="-0.1em" dy="1.1em"><tspan font-style="normal" class="text-inner-tspan" font-weight="normal">bigint</tspan></tspan></text></g><g class="label attribute-name" transform="translate(-68.50390625, 64.5)" style=""><g><rect class="background" style="stroke: none"/></g><text y="-10.1" style=""><tspan class="text-outer-tspan row" x="0" y="-0.1em" dy="1.1em"><tspan font-style="normal" class="text-inner-tspan" font-weight="normal">WaiverBankContactId</tspan></tspan></text></g><g class="label attribute-keys" transform="translate(110.63671875, 64.5)" style=""><g><rect class="background" style="stroke: none"/></g><text y="-10.1" style=""><tspan class="text-outer-tspan row" x="0" y="-0.1em" dy="1.1em"><tspan font-style="normal" class="text-inner-tspan" font-weight="normal">FK</tspan></tspan></text></g><g class="label attribute-comment" transform="translate(157.30859375, 64.5)" style=""><g><rect class="background" style="stroke: none"/></g><text y="-10.1" style=""><tspan class="text-outer-tspan row" x="0" y="-0.1em" dy="1.1em"/></text></g><g class="label attribute-type" transform="translate(-132.30859375, 101.25)" style=""><g><rect class="background" style="stroke: none"/></g><text y="-10.1" style=""><tspan class="text-outer-tspan row" x="0" y="-0.1em" dy="1.1em"><tspan font-style="normal" class="text-inner-tspan" font-weight="normal">bigint</tspan></tspan></text></g><g class="label attribute-name" transform="translate(-68.50390625, 101.25)" style=""><g><rect class="background" style="stroke: none"/></g><text y="-10.1" style=""><tspan class="text-outer-tspan row" x="0" y="-0.1em" dy="1.1em"><tspan font-style="normal" class="text-inner-tspan" font-weight="normal">WaiverDocumentId</tspan></tspan></text></g><g class="label attribute-keys" transform="translate(110.63671875, 101.25)" style=""><g><rect class="background" style="stroke: none"/></g><text y="-10.1" style=""><tspan class="text-outer-tspan row" x="0" y="-0.1em" dy="1.1em"><tspan font-style="normal" class="text-inner-tspan" font-weight="normal">FK</tspan></tspan></text></g><g class="label attribute-comment" transform="translate(157.30859375, 101.25)" style=""><g><rect class="background" style="stroke: none"/></g><text y="-10.1" style=""><tspan class="text-outer-tspan row" x="0" y="-0.1em" dy="1.1em"/></text></g><g class="divider"><path d="M-144.80859375 -91.87505 L-144.80859375 -91.87495 L144.80859375 -91.87495 L144.80859375 -91.87505" stroke="none" stroke-width="0" fill="#ECECFF" fill-rule="evenodd"/><path d="M-144.80859375 -91.87505 C-144.80859375 -91.87501759139897, -144.80859375 -91.87498518279793, -144.80859375 -91.87495 M-144.80859375 -91.87505 C-144.80859375 -91.87502752432022, -144.80859375 -91.87500504864045, -144.80859375 -91.87495 M-144.80859375 -91.87495 C-34.18768011531671 -91.87495, 76.43323351936658 -91.87495, 144.80859375 -91.87495 M-144.80859375 -91.87495 C-55.23266166881096 -91.87495, 34.343270412378075 -91.87495, 144.80859375 -91.87495 M144.80859375 -91.87495 C144.80859375 -91.87498011805171, 144.80859375 -91.87501023610342, 144.80859375 -91.87505 M144.80859375 -91.87495 C144.80859375 -91.87498204561271, 144.80859375 -91.87501409122541, 144.80859375 -91.87505 M144.80859375 -91.87505 C84.83164557939688 -91.87505, 24.854697408793754 -91.87505, -144.80859375 -91.87505 M144.80859375 -91.87505 C65.44502032015444 -91.87505, -13.918553109691118 -91.87505, -144.80859375 -91.87505" stroke="#9370DB" stroke-width="1.3" fill="none" stroke-dasharray="0 0"/></g><g class="divider"><path d="M-81.00395625 -91.875 L-81.00385625 -91.875 L-81.00385625 128.625 L-81.00395625 128.625" stroke="none" stroke-width="0" fill="#ECECFF" fill-rule="evenodd"/><path d="M-81.00395625 -91.875 C-81.00392634805479 -91.875, -81.0038964461096 -91.875, -81.00385625 -91.875 M-81.00395625 -91.875 C-81.00392822972326 -91.875, -81.0039002094465 -91.875, -81.00385625 -91.875 M-81.00385625 -91.875 C-81.00385625 -38.79059117699943, -81.00385625 14.293817646001145, -81.00385625 128.625 M-81.00385625 -91.875 C-81.00385625 -24.6446777827571, -81.00385625 42.5856444344858, -81.00385625 128.625 M-81.00385625 128.625 C-81.00387729484397 128.625, -81.00389833968795 128.625, -81.00395625 128.625 M-81.00385625 128.625 C-81.00388445587336 128.625, -81.00391266174674 128.625, -81.00395625 128.625 M-81.00395625 128.625 C-81.00395625 54.64471134057946, -81.00395625 -19.335577318841075, -81.00395625 -91.875 M-81.00395625 128.625 C-81.00395625 74.64075360130754, -81.00395625 20.656507202615074, -81.00395625 -91.875" stroke="#9370DB" stroke-width="1.3" fill="none" stroke-dasharray="0 0"/></g><g class="divider"><path d="M98.13666875 -91.875 L98.13676875 -91.875 L98.13676875 128.625 L98.13666875 128.625" stroke="none" stroke-width="0" fill="#ECECFF" fill-rule="evenodd"/><path d="M98.13666875 -91.875 C98.13670234934855 -91.875, 98.13673594869712 -91.875, 98.13676875 -91.875 M98.13666875 -91.875 C98.13670587850096 -91.875, 98.13674300700193 -91.875, 98.13676875 -91.875 M98.13676875 -91.875 C98.13676875 -13.146249227175602, 98.13676875 65.5825015456488, 98.13676875 128.625 M98.13676875 -91.875 C98.13676875 -7.976845020495688, 98.13676875 75.92130995900862, 98.13676875 128.625 M98.13676875 128.625 C98.13673449045456 128.625, 98.13670023090911 128.625, 98.13666875 128.625 M98.13676875 128.625 C98.1367335601025 128.625, 98.136698370205 128.625, 98.13666875 128.625 M98.13666875 128.625 C98.13666875 58.27609343507355, 98.13666875 -12.072813129852904, 98.13666875 -91.875 M98.13666875 128.625 C98.13666875 53.86376616571049, 98.13666875 -20.897467668579026, 98.13666875 -91.875" stroke="#9370DB" stroke-width="1.3" fill="none" stroke-dasharray="0 0"/></g><g class="divider"><path d="M-144.80859375 -91.87505 L-144.80859375 -91.87495 L144.80859375 -91.87495 L144.80859375 -91.87505" stroke="none" stroke-width="0" fill="#ECECFF" fill-rule="evenodd"/><path d="M-144.80859375 -91.87505 C-144.80859375 -91.87501225618391, -144.80859375 -91.8749745123678, -144.80859375 -91.87495 M-144.80859375 -91.87505 C-144.80859375 -91.87502414979319, -144.80859375 -91.87499829958638, -144.80859375 -91.87495 M-144.80859375 -91.87495 C-66.87011989304708 -91.87495, 11.06835396390585 -91.87495, 144.80859375 -91.87495 M-144.80859375 -91.87495 C-77.96050261940702 -91.87495, -11.112411488814047 -91.87495, 144.80859375 -91.87495 M144.80859375 -91.87495 C144.80859375 -91.8749723192658, 144.80859375 -91.87499463853159, 144.80859375 -91.87505 M144.80859375 -91.87495 C144.80859375 -91.8749852989394, 144.80859375 -91.87502059787879, 144.80859375 -91.87505 M144.80859375 -91.87505 C42.07422830971744 -91.87505, -60.66013713056512 -91.87505, -144.80859375 -91.87505 M144.80859375 -91.87505 C60.73629286273892 -91.87505, -23.336008024522158 -91.87505, -144.80859375 -91.87505" stroke="#9370DB" stroke-width="1.3" fill="none" stroke-dasharray="0 0"/></g></g><g class="node default" id="my-svg-entity-obl_ObligationCompany-1" data-look="classic" transform="translate(137.12890625, 81)"><g class="outer-path" style=""><path d="M-122.87890625 -73 L122.87890625 -73 L122.87890625 73 L-122.87890625 73" stroke="none" stroke-width="0" fill="#ECECFF"/><path d="M-122.87890625 -73 C-63.94610095838734 -73, -5.013295666774681 -73, 122.87890625 -73 M-122.87890625 -73 C-66.00078833348782 -73, -9.122670416975637 -73, 122.87890625 -73 M122.87890625 -73 C122.87890625 -32.28372706972344, 122.87890625 8.43254586055312, 122.87890625 73 M122.87890625 -73 C122.87890625 -32.02450847736206, 122.87890625 8.950983045275876, 122.87890625 73 M122.87890625 73 C45.99009961980005 73, -30.898707010399903 73, -122.87890625 73 M122.87890625 73 C45.60800346231537 73, -31.662899325369267 73, -122.87890625 73 M-122.87890625 73 C-122.87890625 39.496012247806696, -122.87890625 5.992024495613393, -122.87890625 -73 M-122.87890625 73 C-122.87890625 24.944467843104547, -122.87890625 -23.111064313790905, -122.87890625 -73" stroke="#9370DB" stroke-width="1.3" fill="none" stroke-dasharray="0 0"/></g><g style="" class="row-rect-odd"><path d="M-122.87890625 -36.25 L122.87890625 -36.25 L122.87890625 -0.5 L-122.87890625 -0.5" stroke="none" stroke-width="0" fill="hsl(240, 100%, 100%)"/><path d="M-122.87890625 -36.25 C-65.55057444590098 -36.25, -8.222242641801955 -36.25, 122.87890625 -36.25 M-122.87890625 -36.25 C-52.42892055411235 -36.25, 18.021065141775296 -36.25, 122.87890625 -36.25 M122.87890625 -36.25 C122.87890625 -26.908413151916278, 122.87890625 -17.566826303832553, 122.87890625 -0.5 M122.87890625 -36.25 C122.87890625 -24.47816568435202, 122.87890625 -12.706331368704046, 122.87890625 -0.5 M122.87890625 -0.5 C66.98180877557905 -0.5, 11.084711301158123 -0.5, -122.87890625 -0.5 M122.87890625 -0.5 C39.62489357764605 -0.5, -43.6291190947079 -0.5, -122.87890625 -0.5 M-122.87890625 -0.5 C-122.87890625 -13.006689654480928, -122.87890625 -25.513379308961856, -122.87890625 -36.25 M-122.87890625 -0.5 C-122.87890625 -11.144158800653935, -122.87890625 -21.78831760130787, -122.87890625 -36.25" stroke="#9370DB" stroke-width="1.3" fill="none" stroke-dasharray="0 0"/></g><g style="" class="row-rect-even"><path d="M-122.87890625 -0.5 L122.87890625 -0.5 L122.87890625 36.25 L-122.87890625 36.25" stroke="none" stroke-width="0" fill="hsl(240, 100%, 97.2745098039%)"/><path d="M-122.87890625 -0.5 C-49.344925252520895 -0.5, 24.18905574495821 -0.5, 122.87890625 -0.5 M-122.87890625 -0.5 C-42.50578871053317 -0.5, 37.867328828933665 -0.5, 122.87890625 -0.5 M122.87890625 -0.5 C122.87890625 10.199006292596103, 122.87890625 20.898012585192205, 122.87890625 36.25 M122.87890625 -0.5 C122.87890625 8.199762250386566, 122.87890625 16.899524500773133, 122.87890625 36.25 M122.87890625 36.25 C73.04115231533994 36.25, 23.203398380679886 36.25, -122.87890625 36.25 M122.87890625 36.25 C65.69435074144076 36.25, 8.509795232881501 36.25, -122.87890625 36.25 M-122.87890625 36.25 C-122.87890625 28.20799354281869, -122.87890625 20.165987085637386, -122.87890625 -0.5 M-122.87890625 36.25 C-122.87890625 21.82448880553101, -122.87890625 7.398977611062019, -122.87890625 -0.5" stroke="#9370DB" stroke-width="1.3" fill="none" stroke-dasharray="0 0"/></g><g style="" class="row-rect-odd"><path d="M-122.87890625 36.25 L122.87890625 36.25 L122.87890625 73 L-122.87890625 73" stroke="none" stroke-width="0" fill="hsl(240, 100%, 100%)"/><path d="M-122.87890625 36.25 C-60.79119808716624 36.25, 1.296510075667527 36.25, 122.87890625 36.25 M-122.87890625 36.25 C-57.54477521649811 36.25, 7.789355817003781 36.25, 122.87890625 36.25 M122.87890625 36.25 C122.87890625 43.80509440167401, 122.87890625 51.36018880334803, 122.87890625 73 M122.87890625 36.25 C122.87890625 44.37934202324827, 122.87890625 52.50868404649655, 122.87890625 73 M122.87890625 73 C73.64858682339208 73, 24.41826739678416 73, -122.87890625 73 M122.87890625 73 C57.241992683957776 73, -8.394920882084449 73, -122.87890625 73 M-122.87890625 73 C-122.87890625 65.47014628503885, -122.87890625 57.94029257007771, -122.87890625 36.25 M-122.87890625 73 C-122.87890625 64.58594979743266, -122.87890625 56.17189959486532, -122.87890625 36.25" stroke="#9370DB" stroke-width="1.3" fill="none" stroke-dasharray="0 0"/></g><g class="label name" transform="translate(-83.1640625, -63.625)" style=""><g><rect class="background" style="stroke: none"/></g><text y="-10.1" style=""><tspan class="text-outer-tspan row" x="0" y="-0.1em" dy="1.1em"><tspan font-style="normal" class="text-inner-tspan" font-weight="normal">obl.ObligationCompany</tspan></tspan></text></g><g class="label attribute-type" transform="translate(-110.37890625, -26.875)" style=""><g><rect class="background" style="stroke: none"/></g><text y="-10.1" style=""><tspan class="text-outer-tspan row" x="0" y="-0.1em" dy="1.1em"><tspan font-style="normal" class="text-inner-tspan" font-weight="normal">int</tspan></tspan></text></g><g class="label attribute-name" transform="translate(-46.57421875, -26.875)" style=""><g><rect class="background" style="stroke: none"/></g><text y="-10.1" style=""><tspan class="text-outer-tspan row" x="0" y="-0.1em" dy="1.1em"><tspan font-style="normal" class="text-inner-tspan" font-weight="normal">TenantId</tspan></tspan></text></g><g class="label attribute-keys" transform="translate(63.81640625, -26.875)" style=""><g><rect class="background" style="stroke: none"/></g><text y="-10.1" style=""><tspan class="text-outer-tspan row" x="0" y="-0.1em" dy="1.1em"><tspan font-style="normal" class="text-inner-tspan" font-weight="normal">PK</tspan></tspan></text></g><g class="label attribute-comment" transform="translate(135.37890625, -26.875)" style=""><g><rect class="background" style="stroke: none"/></g><text y="-10.1" style=""><tspan class="text-outer-tspan row" x="0" y="-0.1em" dy="1.1em"/></text></g><g class="label attribute-type" transform="translate(-110.37890625, 8.875)" style=""><g><rect class="background" style="stroke: none"/></g><text y="-10.1" style=""><tspan class="text-outer-tspan row" x="0" y="-0.1em" dy="1.1em"><tspan font-style="normal" class="text-inner-tspan" font-weight="normal">bigint</tspan></tspan></text></g><g class="label attribute-name" transform="translate(-46.57421875, 8.875)" style=""><g><rect class="background" style="stroke: none"/></g><text y="-10.1" style=""><tspan class="text-outer-tspan row" x="0" y="-0.1em" dy="1.1em"><tspan font-style="normal" class="text-inner-tspan" font-weight="normal">ObligationId</tspan></tspan></text></g><g class="label attribute-keys" transform="translate(63.81640625, 8.875)" style=""><g><rect class="background" style="stroke: none"/></g><text y="-10.1" style=""><tspan class="text-outer-tspan row" x="0" y="-0.1em" dy="1.1em"><tspan font-style="normal" class="text-inner-tspan" font-weight="normal">PK,FK</tspan></tspan></text></g><g class="label attribute-comment" transform="translate(135.37890625, 8.875)" style=""><g><rect class="background" style="stroke: none"/></g><text y="-10.1" style=""><tspan class="text-outer-tspan row" x="0" y="-0.1em" dy="1.1em"/></text></g><g class="label attribute-type" transform="translate(-110.37890625, 45.625)" style=""><g><rect class="background" style="stroke: none"/></g><text y="-10.1" style=""><tspan class="text-outer-tspan row" x="0" y="-0.1em" dy="1.1em"><tspan font-style="normal" class="text-inner-tspan" font-weight="normal">bigint</tspan></tspan></text></g><g class="label attribute-name" transform="translate(-46.57421875, 45.625)" style=""><g><rect class="background" style="stroke: none"/></g><text y="-10.1" style=""><tspan class="text-outer-tspan row" x="0" y="-0.1em" dy="1.1em"><tspan font-style="normal" class="text-inner-tspan" font-weight="normal">CompanyId</tspan></tspan></text></g><g class="label attribute-keys" transform="translate(63.81640625, 45.625)" style=""><g><rect class="background" style="stroke: none"/></g><text y="-10.1" style=""><tspan class="text-outer-tspan row" x="0" y="-0.1em" dy="1.1em"><tspan font-style="normal" class="text-inner-tspan" font-weight="normal">PK,FK</tspan></tspan></text></g><g class="label attribute-comment" transform="translate(135.37890625, 45.625)" style=""><g><rect class="background" style="stroke: none"/></g><text y="-10.1" style=""><tspan class="text-outer-tspan row" x="0" y="-0.1em" dy="1.1em"/></text></g><g class="divider"><path d="M-122.87890625 -36.25005 L-122.87890625 -36.24995 L122.87890625 -36.24995 L122.87890625 -36.25005" stroke="none" stroke-width="0" fill="#ECECFF" fill-rule="evenodd"/><path d="M-122.87890625 -36.25005 C-122.87890625 -36.25002451803846, -122.87890625 -36.249999036076915, -122.87890625 -36.24995 M-122.87890625 -36.25005 C-122.87890625 -36.25002797280064, -122.87890625 -36.25000594560128, -122.87890625 -36.24995 M-122.87890625 -36.24995 C-28.75227766754122 -36.24995, 65.37435091491756 -36.24995, 122.87890625 -36.24995 M-122.87890625 -36.24995 C-37.12542700587072 -36.24995, 48.62805223825856 -36.24995, 122.87890625 -36.24995 M122.87890625 -36.24995 C122.87890625 -36.24997179200179, 122.87890625 -36.24999358400357, 122.87890625 -36.25005 M122.87890625 -36.24995 C122.87890625 -36.24998391018742, 122.87890625 -36.25001782037483, 122.87890625 -36.25005 M122.87890625 -36.25005 C42.15095377547715 -36.25005, -38.5769986990457 -36.25005, -122.87890625 -36.25005 M122.87890625 -36.25005 C36.5378720587878 -36.25005, -49.803162132424404 -36.25005, -122.87890625 -36.25005" stroke="#9370DB" stroke-width="1.3" fill="none" stroke-dasharray="0 0"/></g><g class="divider"><path d="M-59.07426875 -36.25 L-59.07416875 -36.25 L-59.07416875 73 L-59.07426875 73" stroke="none" stroke-width="0" fill="#ECECFF" fill-rule="evenodd"/><path d="M-59.07426875 -36.25 C-59.07423184027314 -36.25, -59.07419493054629 -36.25, -59.07416875 -36.25 M-59.07426875 -36.25 C-59.07423896972499 -36.25, -59.07420918944998 -36.25, -59.07416875 -36.25 M-59.07416875 -36.25 C-59.07416875 -13.01050093206257, -59.07416875 10.22899813587486, -59.07416875 73 M-59.07416875 -36.25 C-59.07416875 7.3821077880809085, -59.07416875 51.01421557616182, -59.07416875 73 M-59.07416875 73 C-59.07420734279588 73, -59.07424593559176 73, -59.07426875 73 M-59.07416875 73 C-59.07419267875301 73, -59.07421660750602 73, -59.07426875 73 M-59.07426875 73 C-59.07426875 44.29839048609482, -59.07426875 15.596780972189634, -59.07426875 -36.25 M-59.07426875 73 C-59.07426875 43.854958919201124, -59.07426875 14.709917838402248, -59.07426875 -36.25" stroke="#9370DB" stroke-width="1.3" fill="none" stroke-dasharray="0 0"/></g><g class="divider"><path d="M51.31635625 -36.25 L51.31645625 -36.25 L51.31645625 73 L51.31635625 73" stroke="none" stroke-width="0" fill="#ECECFF" fill-rule="evenodd"/><path d="M51.31635625 -36.25 C51.31639530976439 -36.25, 51.31643436952877 -36.25, 51.31645625 -36.25 M51.31635625 -36.25 C51.31638810854178 -36.25, 51.316419967083554 -36.25, 51.31645625 -36.25 M51.31645625 -36.25 C51.31645625 2.1988826165356414, 51.31645625 40.64776523307128, 51.31645625 73 M51.31645625 -36.25 C51.31645625 6.041297050921429, 51.31645625 48.33259410184286, 51.31645625 73 M51.31645625 73 C51.316424948281494 73, 51.316393646562986 73, 51.31635625 73 M51.31645625 73 C51.31641902457484 73, 51.31638179914969 73, 51.31635625 73 M51.31635625 73 C51.31635625 37.270943217637544, 51.31635625 1.5418864352750887, 51.31635625 -36.25 M51.31635625 73 C51.31635625 44.157260835138516, 51.31635625 15.314521670277038, 51.31635625 -36.25" stroke="#9370DB" stroke-width="1.3" fill="none" stroke-dasharray="0 0"/></g><g class="divider"><path d="M-122.87890625 -36.25005 L-122.87890625 -36.24995 L122.87890625 -36.24995 L122.87890625 -36.25005" stroke="none" stroke-width="0" fill="#ECECFF" fill-rule="evenodd"/><path d="M-122.87890625 -36.25005 C-122.87890625 -36.25001561753214, -122.87890625 -36.24998123506428, -122.87890625 -36.24995 M-122.87890625 -36.25005 C-122.87890625 -36.2500147685863, -122.87890625 -36.24997953717259, -122.87890625 -36.24995 M-122.87890625 -36.24995 C-73.48120588942334 -36.24995, -24.083505528846686 -36.24995, 122.87890625 -36.24995 M-122.87890625 -36.24995 C-30.587530981678086 -36.24995, 61.70384428664383 -36.24995, 122.87890625 -36.24995 M122.87890625 -36.24995 C122.87890625 -36.24997143185504, 122.87890625 -36.24999286371007, 122.87890625 -36.25005 M122.87890625 -36.24995 C122.87890625 -36.24997997586929, 122.87890625 -36.250009951738576, 122.87890625 -36.25005 M122.87890625 -36.25005 C41.28456630033452 -36.25005, -40.309773649330964 -36.25005, -122.87890625 -36.25005 M122.87890625 -36.25005 C38.169061451161014 -36.25005, -46.54078334767797 -36.25005, -122.87890625 -36.25005" stroke="#9370DB" stroke-width="1.3" fill="none" stroke-dasharray="0 0"/></g></g><g class="node default" id="my-svg-entity-obl_ReportingInstance-2" data-look="classic" transform="translate(558.07421875, 365.75)"><g class="outer-path" style=""><path d="M-164.23828125 -109.75 L164.23828125 -109.75 L164.23828125 109.75 L-164.23828125 109.75" stroke="none" stroke-width="0" fill="#ECECFF"/><path d="M-164.23828125 -109.75 C-53.98483919676714 -109.75, 56.26860285646572 -109.75, 164.23828125 -109.75 M-164.23828125 -109.75 C-85.57508451811826 -109.75, -6.91188778623652 -109.75, 164.23828125 -109.75 M164.23828125 -109.75 C164.23828125 -47.787264775612826, 164.23828125 14.175470448774348, 164.23828125 109.75 M164.23828125 -109.75 C164.23828125 -37.300506651304474, 164.23828125 35.14898669739105, 164.23828125 109.75 M164.23828125 109.75 C58.947286949839494 109.75, -46.34370735032101 109.75, -164.23828125 109.75 M164.23828125 109.75 C92.695538037587 109.75, 21.152794825174 109.75, -164.23828125 109.75 M-164.23828125 109.75 C-164.23828125 24.43030829546133, -164.23828125 -60.88938340907734, -164.23828125 -109.75 M-164.23828125 109.75 C-164.23828125 44.92780607147159, -164.23828125 -19.894387857056813, -164.23828125 -109.75" stroke="#9370DB" stroke-width="1.3" fill="none" stroke-dasharray="0 0"/></g><g style="" class="row-rect-odd"><path d="M-164.23828125 -73 L164.23828125 -73 L164.23828125 -36.25 L-164.23828125 -36.25" stroke="none" stroke-width="0" fill="hsl(240, 100%, 100%)"/><path d="M-164.23828125 -73 C-42.87417187960396 -73, 78.48993749079207 -73, 164.23828125 -73 M-164.23828125 -73 C-85.57937147348667 -73, -6.920461696973348 -73, 164.23828125 -73 M164.23828125 -73 C164.23828125 -59.05681289408081, 164.23828125 -45.11362578816162, 164.23828125 -36.25 M164.23828125 -73 C164.23828125 -58.53615212992041, 164.23828125 -44.07230425984081, 164.23828125 -36.25 M164.23828125 -36.25 C38.884634905032314 -36.25, -86.46901143993537 -36.25, -164.23828125 -36.25 M164.23828125 -36.25 C41.97972902595954 -36.25, -80.27882319808091 -36.25, -164.23828125 -36.25 M-164.23828125 -36.25 C-164.23828125 -48.399074335455325, -164.23828125 -60.54814867091065, -164.23828125 -73 M-164.23828125 -36.25 C-164.23828125 -48.18222588037803, -164.23828125 -60.114451760756054, -164.23828125 -73" stroke="#9370DB" stroke-width="1.3" fill="none" stroke-dasharray="0 0"/></g><g style="" class="row-rect-even"><path d="M-164.23828125 -36.25 L164.23828125 -36.25 L164.23828125 0.5 L-164.23828125 0.5" stroke="none" stroke-width="0" fill="hsl(240, 100%, 97.2745098039%)"/><path d="M-164.23828125 -36.25 C-81.11479418573354 -36.25, 2.008692878532912 -36.25, 164.23828125 -36.25 M-164.23828125 -36.25 C-97.17023443459219 -36.25, -30.102187619184377 -36.25, 164.23828125 -36.25 M164.23828125 -36.25 C164.23828125 -25.066686951598186, 164.23828125 -13.883373903196375, 164.23828125 0.5 M164.23828125 -36.25 C164.23828125 -24.045710065709173, 164.23828125 -11.841420131418346, 164.23828125 0.5 M164.23828125 0.5 C57.27959571995362 0.5, -49.67908981009276 0.5, -164.23828125 0.5 M164.23828125 0.5 C86.7529574911435 0.5, 9.26763373228701 0.5, -164.23828125 0.5 M-164.23828125 0.5 C-164.23828125 -7.588380977737087, -164.23828125 -15.676761955474174, -164.23828125 -36.25 M-164.23828125 0.5 C-164.23828125 -7.213529493373276, -164.23828125 -14.927058986746552, -164.23828125 -36.25" stroke="#9370DB" stroke-width="1.3" fill="none" stroke-dasharray="0 0"/></g><g style="" class="row-rect-odd"><path d="M-164.23828125 0.5 L164.23828125 0.5 L164.23828125 36.25 L-164.23828125 36.25" stroke="none" stroke-width="0" fill="hsl(240, 100%, 100%)"/><path d="M-164.23828125 0.5 C-62.986825790352796 0.5, 38.26462966929441 0.5, 164.23828125 0.5 M-164.23828125 0.5 C-68.16596047510644 0.5, 27.90636029978711 0.5, 164.23828125 0.5 M164.23828125 0.5 C164.23828125 13.262409243479468, 164.23828125 26.024818486958935, 164.23828125 36.25 M164.23828125 0.5 C164.23828125 9.886492814216735, 164.23828125 19.27298562843347, 164.23828125 36.25 M164.23828125 36.25 C61.50187401643187 36.25, -41.23453321713626 36.25, -164.23828125 36.25 M164.23828125 36.25 C82.98531955676215 36.25, 1.7323578635242995 36.25, -164.23828125 36.25 M-164.23828125 36.25 C-164.23828125 27.61018302376526, -164.23828125 18.970366047530522, -164.23828125 0.5 M-164.23828125 36.25 C-164.23828125 23.450164504547054, -164.23828125 10.650329009094108, -164.23828125 0.5" stroke="#9370DB" stroke-width="1.3" fill="none" stroke-dasharray="0 0"/></g><g style="" class="row-rect-even"><path d="M-164.23828125 36.25 L164.23828125 36.25 L164.23828125 73 L-164.23828125 73" stroke="none" stroke-width="0" fill="hsl(240, 100%, 97.2745098039%)"/><path d="M-164.23828125 36.25 C-64.03915037396695 36.25, 36.159980502066105 36.25, 164.23828125 36.25 M-164.23828125 36.25 C-48.706107952807585 36.25, 66.82606534438483 36.25, 164.23828125 36.25 M164.23828125 36.25 C164.23828125 49.54176165407628, 164.23828125 62.83352330815257, 164.23828125 73 M164.23828125 36.25 C164.23828125 45.036208231731074, 164.23828125 53.82241646346215, 164.23828125 73 M164.23828125 73 C36.57431961230205 73, -91.0896420253959 73, -164.23828125 73 M164.23828125 73 C77.18671325614491 73, -9.864854737710175 73, -164.23828125 73 M-164.23828125 73 C-164.23828125 63.571132602038446, -164.23828125 54.1422652040769, -164.23828125 36.25 M-164.23828125 73 C-164.23828125 65.18088612929976, -164.23828125 57.36177225859952, -164.23828125 36.25" stroke="#9370DB" stroke-width="1.3" fill="none" stroke-dasharray="0 0"/></g><g style="" class="row-rect-odd"><path d="M-164.23828125 73 L164.23828125 73 L164.23828125 109.75 L-164.23828125 109.75" stroke="none" stroke-width="0" fill="hsl(240, 100%, 100%)"/><path d="M-164.23828125 73 C-52.98089329127936 73, 58.276494667441284 73, 164.23828125 73 M-164.23828125 73 C-50.68178700971994 73, 62.87470723056012 73, 164.23828125 73 M164.23828125 73 C164.23828125 83.13089449372724, 164.23828125 93.26178898745447, 164.23828125 109.75 M164.23828125 73 C164.23828125 80.7866958712908, 164.23828125 88.57339174258159, 164.23828125 109.75 M164.23828125 109.75 C77.37927628921705 109.75, -9.479728671565908 109.75, -164.23828125 109.75 M164.23828125 109.75 C57.97982245966652 109.75, -48.278636330666956 109.75, -164.23828125 109.75 M-164.23828125 109.75 C-164.23828125 95.37582913914797, -164.23828125 81.00165827829593, -164.23828125 73 M-164.23828125 109.75 C-164.23828125 98.18235681772019, -164.23828125 86.6147136354404, -164.23828125 73" stroke="#9370DB" stroke-width="1.3" fill="none" stroke-dasharray="0 0"/></g><g class="label name" transform="translate(-77.87890625, -100.375)" style=""><g><rect class="background" style="stroke: none"/></g><text y="-10.1" style=""><tspan class="text-outer-tspan row" x="0" y="-0.1em" dy="1.1em"><tspan font-style="normal" class="text-inner-tspan" font-weight="normal">obl.ReportingInstance</tspan></tspan></text></g><g class="label attribute-type" transform="translate(-151.73828125, -63.625)" style=""><g><rect class="background" style="stroke: none"/></g><text y="-10.1" style=""><tspan class="text-outer-tspan row" x="0" y="-0.1em" dy="1.1em"><tspan font-style="normal" class="text-inner-tspan" font-weight="normal">bigint</tspan></tspan></text></g><g class="label attribute-name" transform="translate(-87.93359375, -63.625)" style=""><g><rect class="background" style="stroke: none"/></g><text y="-10.1" style=""><tspan class="text-outer-tspan row" x="0" y="-0.1em" dy="1.1em"><tspan font-style="normal" class="text-inner-tspan" font-weight="normal">ReportingInstanceId</tspan></tspan></text></g><g class="label attribute-keys" transform="translate(130.06640625, -63.625)" style=""><g><rect class="background" style="stroke: none"/></g><text y="-10.1" style=""><tspan class="text-outer-tspan row" x="0" y="-0.1em" dy="1.1em"><tspan font-style="normal" class="text-inner-tspan" font-weight="normal">PK</tspan></tspan></text></g><g class="label attribute-comment" transform="translate(176.73828125, -63.625)" style=""><g><rect class="background" style="stroke: none"/></g><text y="-10.1" style=""><tspan class="text-outer-tspan row" x="0" y="-0.1em" dy="1.1em"/></text></g><g class="label attribute-type" transform="translate(-151.73828125, -26.875)" style=""><g><rect class="background" style="stroke: none"/></g><text y="-10.1" style=""><tspan class="text-outer-tspan row" x="0" y="-0.1em" dy="1.1em"><tspan font-style="normal" class="text-inner-tspan" font-weight="normal">bigint</tspan></tspan></text></g><g class="label attribute-name" transform="translate(-87.93359375, -26.875)" style=""><g><rect class="background" style="stroke: none"/></g><text y="-10.1" style=""><tspan class="text-outer-tspan row" x="0" y="-0.1em" dy="1.1em"><tspan font-style="normal" class="text-inner-tspan" font-weight="normal">ReportingObligationId</tspan></tspan></text></g><g class="label attribute-keys" transform="translate(130.06640625, -26.875)" style=""><g><rect class="background" style="stroke: none"/></g><text y="-10.1" style=""><tspan class="text-outer-tspan row" x="0" y="-0.1em" dy="1.1em"><tspan font-style="normal" class="text-inner-tspan" font-weight="normal">FK</tspan></tspan></text></g><g class="label attribute-comment" transform="translate(176.73828125, -26.875)" style=""><g><rect class="background" style="stroke: none"/></g><text y="-10.1" style=""><tspan class="text-outer-tspan row" x="0" y="-0.1em" dy="1.1em"/></text></g><g class="label attribute-type" transform="translate(-151.73828125, 9.875)" style=""><g><rect class="background" style="stroke: none"/></g><text y="-10.1" style=""><tspan class="text-outer-tspan row" x="0" y="-0.1em" dy="1.1em"><tspan font-style="normal" class="text-inner-tspan" font-weight="normal">int</tspan></tspan></text></g><g class="label attribute-name" transform="translate(-87.93359375, 9.875)" style=""><g><rect class="background" style="stroke: none"/></g><text y="-10.1" style=""><tspan class="text-outer-tspan row" x="0" y="-0.1em" dy="1.1em"><tspan font-style="normal" class="text-inner-tspan" font-weight="normal">SubmissionChannelUsedId</tspan></tspan></text></g><g class="label attribute-keys" transform="translate(130.06640625, 9.875)" style=""><g><rect class="background" style="stroke: none"/></g><text y="-10.1" style=""><tspan class="text-outer-tspan row" x="0" y="-0.1em" dy="1.1em"><tspan font-style="normal" class="text-inner-tspan" font-weight="normal">FK</tspan></tspan></text></g><g class="label attribute-comment" transform="translate(176.73828125, 9.875)" style=""><g><rect class="background" style="stroke: none"/></g><text y="-10.1" style=""><tspan class="text-outer-tspan row" x="0" y="-0.1em" dy="1.1em"/></text></g><g class="label attribute-type" transform="translate(-151.73828125, 45.625)" style=""><g><rect class="background" style="stroke: none"/></g><text y="-10.1" style=""><tspan class="text-outer-tspan row" x="0" y="-0.1em" dy="1.1em"><tspan font-style="normal" class="text-inner-tspan" font-weight="normal">bigint</tspan></tspan></text></g><g class="label attribute-name" transform="translate(-87.93359375, 45.625)" style=""><g><rect class="background" style="stroke: none"/></g><text y="-10.1" style=""><tspan class="text-outer-tspan row" x="0" y="-0.1em" dy="1.1em"><tspan font-style="normal" class="text-inner-tspan" font-weight="normal">EvidenceDocumentId</tspan></tspan></text></g><g class="label attribute-keys" transform="translate(130.06640625, 45.625)" style=""><g><rect class="background" style="stroke: none"/></g><text y="-10.1" style=""><tspan class="text-outer-tspan row" x="0" y="-0.1em" dy="1.1em"><tspan font-style="normal" class="text-inner-tspan" font-weight="normal">FK</tspan></tspan></text></g><g class="label attribute-comment" transform="translate(176.73828125, 45.625)" style=""><g><rect class="background" style="stroke: none"/></g><text y="-10.1" style=""><tspan class="text-outer-tspan row" x="0" y="-0.1em" dy="1.1em"/></text></g><g class="label attribute-type" transform="translate(-151.73828125, 82.375)" style=""><g><rect class="background" style="stroke: none"/></g><text y="-10.1" style=""><tspan class="text-outer-tspan row" x="0" y="-0.1em" dy="1.1em"><tspan font-style="normal" class="text-inner-tspan" font-weight="normal">int</tspan></tspan></text></g><g class="label attribute-name" transform="translate(-87.93359375, 82.375)" style=""><g><rect class="background" style="stroke: none"/></g><text y="-10.1" style=""><tspan class="text-outer-tspan row" x="0" y="-0.1em" dy="1.1em"><tspan font-style="normal" class="text-inner-tspan" font-weight="normal">CurrencyId</tspan></tspan></text></g><g class="label attribute-keys" transform="translate(130.06640625, 82.375)" style=""><g><rect class="background" style="stroke: none"/></g><text y="-10.1" style=""><tspan class="text-outer-tspan row" x="0" y="-0.1em" dy="1.1em"><tspan font-style="normal" class="text-inner-tspan" font-weight="normal">FK</tspan></tspan></text></g><g class="label attribute-comment" transform="translate(176.73828125, 82.375)" style=""><g><rect class="background" style="stroke: none"/></g><text y="-10.1" style=""><tspan class="text-outer-tspan row" x="0" y="-0.1em" dy="1.1em"/></text></g><g class="divider"><path d="M-164.23828125 -73.00005 L-164.23828125 -72.99995 L164.23828125 -72.99995 L164.23828125 -73.00005" stroke="none" stroke-width="0" fill="#ECECFF" fill-rule="evenodd"/><path d="M-164.23828125 -73.00005 C-164.23828125 -73.00001936874123, -164.23828125 -72.99998873748245, -164.23828125 -72.99995 M-164.23828125 -73.00005 C-164.23828125 -73.00001163574872, -164.23828125 -72.99997327149745, -164.23828125 -72.99995 M-164.23828125 -72.99995 C-38.81945190471784 -72.99995, 86.59937744056433 -72.99995, 164.23828125 -72.99995 M-164.23828125 -72.99995 C-36.830850856797014 -72.99995, 90.57657953640597 -72.99995, 164.23828125 -72.99995 M164.23828125 -72.99995 C164.23828125 -72.99997805952695, 164.23828125 -73.0000061190539, 164.23828125 -73.00005 M164.23828125 -72.99995 C164.23828125 -72.99997232833464, 164.23828125 -72.99999465666929, 164.23828125 -73.00005 M164.23828125 -73.00005 C94.38079474003679 -73.00005, 24.52330823007358 -73.00005, -164.23828125 -73.00005 M164.23828125 -73.00005 C37.4749103737104 -73.00005, -89.2884605025792 -73.00005, -164.23828125 -73.00005" stroke="#9370DB" stroke-width="1.3" fill="none" stroke-dasharray="0 0"/></g><g class="divider"><path d="M-100.43364375 -73 L-100.43354375 -73 L-100.43354375 109.75 L-100.43364375 109.75" stroke="none" stroke-width="0" fill="#ECECFF" fill-rule="evenodd"/><path d="M-100.43364375 -73 C-100.4336134421824 -73, -100.43358313436482 -73, -100.43354375 -73 M-100.43364375 -73 C-100.43360775588192 -73, -100.43357176176384 -73, -100.43354375 -73 M-100.43354375 -73 C-100.43354375 -9.273596810639646, -100.43354375 54.45280637872071, -100.43354375 109.75 M-100.43354375 -73 C-100.43354375 -28.864258120359843, -100.43354375 15.271483759280315, -100.43354375 109.75 M-100.43354375 109.75 C-100.43356552988276 109.75, -100.43358730976553 109.75, -100.43364375 109.75 M-100.43354375 109.75 C-100.43356385564883 109.75, -100.43358396129767 109.75, -100.43364375 109.75 M-100.43364375 109.75 C-100.43364375 61.273229241808686, -100.43364375 12.796458483617371, -100.43364375 -73 M-100.43364375 109.75 C-100.43364375 46.22645155849435, -100.43364375 -17.297096883011307, -100.43364375 -73" stroke="#9370DB" stroke-width="1.3" fill="none" stroke-dasharray="0 0"/></g><g class="divider"><path d="M117.56635625 -73 L117.56645625 -73 L117.56645625 109.75 L117.56635625 109.75" stroke="none" stroke-width="0" fill="#ECECFF" fill-rule="evenodd"/><path d="M117.56635625 -73 C117.56638125784389 -73, 117.56640626568776 -73, 117.56645625 -73 M117.56635625 -73 C117.5663926296108 -73, 117.56642900922161 -73, 117.56645625 -73 M117.56645625 -73 C117.56645625 -3.425766990196422, 117.56645625 66.14846601960716, 117.56645625 109.75 M117.56645625 -73 C117.56645625 -32.90821367764157, 117.56645625 7.183572644716861, 117.56645625 109.75 M117.56645625 109.75 C117.5664286067773 109.75, 117.56640096355457 109.75, 117.56635625 109.75 M117.56645625 109.75 C117.56642823779994 109.75, 117.56640022559988 109.75, 117.56635625 109.75 M117.56635625 109.75 C117.56635625 47.09384323503825, 117.56635625 -15.5623135299235, 117.56635625 -73 M117.56635625 109.75 C117.56635625 70.5075381890995, 117.56635625 31.265076378198998, 117.56635625 -73" stroke="#9370DB" stroke-width="1.3" fill="none" stroke-dasharray="0 0"/></g><g class="divider"><path d="M-164.23828125 -73.00005 L-164.23828125 -72.99995 L164.23828125 -72.99995 L164.23828125 -73.00005" stroke="none" stroke-width="0" fill="#ECECFF" fill-rule="evenodd"/><path d="M-164.23828125 -73.00005 C-164.23828125 -73.00001511333706, -164.23828125 -72.99998022667413, -164.23828125 -72.99995 M-164.23828125 -73.00005 C-164.23828125 -73.00001433861743, -164.23828125 -72.99997867723485, -164.23828125 -72.99995 M-164.23828125 -72.99995 C-50.081229499685165 -72.99995, 64.07582225062967 -72.99995, 164.23828125 -72.99995 M-164.23828125 -72.99995 C-94.06123145755348 -72.99995, -23.88418166510695 -72.99995, 164.23828125 -72.99995 M164.23828125 -72.99995 C164.23828125 -72.99998873293707, 164.23828125 -73.00002746587413, 164.23828125 -73.00005 M164.23828125 -72.99995 C164.23828125 -72.99998978455113, 164.23828125 -73.00002956910225, 164.23828125 -73.00005 M164.23828125 -73.00005 C96.71850730522414 -73.00005, 29.198733360448273 -73.00005, -164.23828125 -73.00005 M164.23828125 -73.00005 C46.742549833033635 -73.00005, -70.75318158393273 -73.00005, -164.23828125 -73.00005" stroke="#9370DB" stroke-width="1.3" fill="none" stroke-dasharray="0 0"/></g></g><g class="node default" id="my-svg-entity-obl_ReportingObligation-3" data-look="classic" transform="translate(558.07421875, 81)"><g class="outer-path" style=""><path d="M-145.56640625 -73 L145.56640625 -73 L145.56640625 73 L-145.56640625 73" stroke="none" stroke-width="0" fill="#ECECFF"/><path d="M-145.56640625 -73 C-70.44515536212967 -73, 4.676095525740664 -73, 145.56640625 -73 M-145.56640625 -73 C-56.35121878919473 -73, 32.863968671610536 -73, 145.56640625 -73 M145.56640625 -73 C145.56640625 -29.914477899323487, 145.56640625 13.171044201353027, 145.56640625 73 M145.56640625 -73 C145.56640625 -40.10535627374912, 145.56640625 -7.210712547498247, 145.56640625 73 M145.56640625 73 C35.914837756424774 73, -73.73673073715045 73, -145.56640625 73 M145.56640625 73 C76.84590633326887 73, 8.125406416537743 73, -145.56640625 73 M-145.56640625 73 C-145.56640625 28.196084974295687, -145.56640625 -16.607830051408627, -145.56640625 -73 M-145.56640625 73 C-145.56640625 21.00148731930264, -145.56640625 -30.99702536139472, -145.56640625 -73" stroke="#9370DB" stroke-width="1.3" fill="none" stroke-dasharray="0 0"/></g><g style="" class="row-rect-odd"><path d="M-145.56640625 -36.25 L145.56640625 -36.25 L145.56640625 0.5 L-145.56640625 0.5" stroke="none" stroke-width="0" fill="hsl(240, 100%, 100%)"/><path d="M-145.56640625 -36.25 C-73.49594791626171 -36.25, -1.4254895825234257 -36.25, 145.56640625 -36.25 M-145.56640625 -36.25 C-38.39487582679226 -36.25, 68.77665459641548 -36.25, 145.56640625 -36.25 M145.56640625 -36.25 C145.56640625 -26.421562286654424, 145.56640625 -16.59312457330885, 145.56640625 0.5 M145.56640625 -36.25 C145.56640625 -22.96599617745189, 145.56640625 -9.681992354903777, 145.56640625 0.5 M145.56640625 0.5 C42.87124257689264 0.5, -59.82392109621472 0.5, -145.56640625 0.5 M145.56640625 0.5 C85.26665962613569 0.5, 24.96691300227137 0.5, -145.56640625 0.5 M-145.56640625 0.5 C-145.56640625 -9.330320178104625, -145.56640625 -19.16064035620925, -145.56640625 -36.25 M-145.56640625 0.5 C-145.56640625 -10.891860187334858, -145.56640625 -22.283720374669716, -145.56640625 -36.25" stroke="#9370DB" stroke-width="1.3" fill="none" stroke-dasharray="0 0"/></g><g style="" class="row-rect-even"><path d="M-145.56640625 0.5 L145.56640625 0.5 L145.56640625 37.25 L-145.56640625 37.25" stroke="none" stroke-width="0" fill="hsl(240, 100%, 97.2745098039%)"/><path d="M-145.56640625 0.5 C-33.35854044845962 0.5, 78.84932535308076 0.5, 145.56640625 0.5 M-145.56640625 0.5 C-75.94210296506184 0.5, -6.31779968012367 0.5, 145.56640625 0.5 M145.56640625 0.5 C145.56640625 11.017148209514797, 145.56640625 21.534296419029594, 145.56640625 37.25 M145.56640625 0.5 C145.56640625 12.861554783724252, 145.56640625 25.223109567448503, 145.56640625 37.25 M145.56640625 37.25 C74.12433848108498 37.25, 2.6822707121699523 37.25, -145.56640625 37.25 M145.56640625 37.25 C70.94143275098423 37.25, -3.6835407480315325 37.25, -145.56640625 37.25 M-145.56640625 37.25 C-145.56640625 27.995149640221754, -145.56640625 18.740299280443512, -145.56640625 0.5 M-145.56640625 37.25 C-145.56640625 24.92354889783679, -145.56640625 12.59709779567358, -145.56640625 0.5" stroke="#9370DB" stroke-width="1.3" fill="none" stroke-dasharray="0 0"/></g><g style="" class="row-rect-odd"><path d="M-145.56640625 37.25 L145.56640625 37.25 L145.56640625 73 L-145.56640625 73" stroke="none" stroke-width="0" fill="hsl(240, 100%, 100%)"/><path d="M-145.56640625 37.25 C-52.82526987753434 37.25, 39.91586649493132 37.25, 145.56640625 37.25 M-145.56640625 37.25 C-82.18584666922018 37.25, -18.80528708844038 37.25, 145.56640625 37.25 M145.56640625 37.25 C145.56640625 48.89695448730363, 145.56640625 60.54390897460727, 145.56640625 73 M145.56640625 37.25 C145.56640625 50.76679275630408, 145.56640625 64.28358551260816, 145.56640625 73 M145.56640625 73 C36.105970669817026 73, -73.35446491036595 73, -145.56640625 73 M145.56640625 73 C35.54985762079755 73, -74.4666910084049 73, -145.56640625 73 M-145.56640625 73 C-145.56640625 62.945535913451984, -145.56640625 52.89107182690397, -145.56640625 37.25 M-145.56640625 73 C-145.56640625 64.93256622226312, -145.56640625 56.865132444526225, -145.56640625 37.25" stroke="#9370DB" stroke-width="1.3" fill="none" stroke-dasharray="0 0"/></g><g class="label name" transform="translate(-83.609375, -63.625)" style=""><g><rect class="background" style="stroke: none"/></g><text y="-10.1" style=""><tspan class="text-outer-tspan row" x="0" y="-0.1em" dy="1.1em"><tspan font-style="normal" class="text-inner-tspan" font-weight="normal">obl.ReportingObligation</tspan></tspan></text></g><g class="label attribute-type" transform="translate(-133.06640625, -26.875)" style=""><g><rect class="background" style="stroke: none"/></g><text y="-10.1" style=""><tspan class="text-outer-tspan row" x="0" y="-0.1em" dy="1.1em"><tspan font-style="normal" class="text-inner-tspan" font-weight="normal">bigint</tspan></tspan></text></g><g class="label attribute-name" transform="translate(-69.26171875, -26.875)" style=""><g><rect class="background" style="stroke: none"/></g><text y="-10.1" style=""><tspan class="text-outer-tspan row" x="0" y="-0.1em" dy="1.1em"><tspan font-style="normal" class="text-inner-tspan" font-weight="normal">ReportingObligationId</tspan></tspan></text></g><g class="label attribute-keys" transform="translate(111.39453125, -26.875)" style=""><g><rect class="background" style="stroke: none"/></g><text y="-10.1" style=""><tspan class="text-outer-tspan row" x="0" y="-0.1em" dy="1.1em"><tspan font-style="normal" class="text-inner-tspan" font-weight="normal">PK</tspan></tspan></text></g><g class="label attribute-comment" transform="translate(158.06640625, -26.875)" style=""><g><rect class="background" style="stroke: none"/></g><text y="-10.1" style=""><tspan class="text-outer-tspan row" x="0" y="-0.1em" dy="1.1em"/></text></g><g class="label attribute-type" transform="translate(-133.06640625, 9.875)" style=""><g><rect class="background" style="stroke: none"/></g><text y="-10.1" style=""><tspan class="text-outer-tspan row" x="0" y="-0.1em" dy="1.1em"><tspan font-style="normal" class="text-inner-tspan" font-weight="normal">bigint</tspan></tspan></text></g><g class="label attribute-name" transform="translate(-69.26171875, 9.875)" style=""><g><rect class="background" style="stroke: none"/></g><text y="-10.1" style=""><tspan class="text-outer-tspan row" x="0" y="-0.1em" dy="1.1em"><tspan font-style="normal" class="text-inner-tspan" font-weight="normal">ObligationId</tspan></tspan></text></g><g class="label attribute-keys" transform="translate(111.39453125, 9.875)" style=""><g><rect class="background" style="stroke: none"/></g><text y="-10.1" style=""><tspan class="text-outer-tspan row" x="0" y="-0.1em" dy="1.1em"><tspan font-style="normal" class="text-inner-tspan" font-weight="normal">FK</tspan></tspan></text></g><g class="label attribute-comment" transform="translate(158.06640625, 9.875)" style=""><g><rect class="background" style="stroke: none"/></g><text y="-10.1" style=""><tspan class="text-outer-tspan row" x="0" y="-0.1em" dy="1.1em"/></text></g><g class="label attribute-type" transform="translate(-133.06640625, 46.625)" style=""><g><rect class="background" style="stroke: none"/></g><text y="-10.1" style=""><tspan class="text-outer-tspan row" x="0" y="-0.1em" dy="1.1em"><tspan font-style="normal" class="text-inner-tspan" font-weight="normal">int</tspan></tspan></text></g><g class="label attribute-name" transform="translate(-69.26171875, 46.625)" style=""><g><rect class="background" style="stroke: none"/></g><text y="-10.1" style=""><tspan class="text-outer-tspan row" x="0" y="-0.1em" dy="1.1em"><tspan font-style="normal" class="text-inner-tspan" font-weight="normal">SubmissionChannelId</tspan></tspan></text></g><g class="label attribute-keys" transform="translate(111.39453125, 46.625)" style=""><g><rect class="background" style="stroke: none"/></g><text y="-10.1" style=""><tspan class="text-outer-tspan row" x="0" y="-0.1em" dy="1.1em"><tspan font-style="normal" class="text-inner-tspan" font-weight="normal">FK</tspan></tspan></text></g><g class="label attribute-comment" transform="translate(158.06640625, 46.625)" style=""><g><rect class="background" style="stroke: none"/></g><text y="-10.1" style=""><tspan class="text-outer-tspan row" x="0" y="-0.1em" dy="1.1em"/></text></g><g class="divider"><path d="M-145.56640625 -36.25005 L-145.56640625 -36.24995 L145.56640625 -36.24995 L145.56640625 -36.25005" stroke="none" stroke-width="0" fill="#ECECFF" fill-rule="evenodd"/><path d="M-145.56640625 -36.25005 C-145.56640625 -36.25002489006097, -145.56640625 -36.24999978012193, -145.56640625 -36.24995 M-145.56640625 -36.25005 C-145.56640625 -36.25002834098779, -145.56640625 -36.25000668197558, -145.56640625 -36.24995 M-145.56640625 -36.24995 C-36.11212145581976 -36.24995, 73.34216333836048 -36.24995, 145.56640625 -36.24995 M-145.56640625 -36.24995 C-76.96132905736961 -36.24995, -8.356251864739221 -36.24995, 145.56640625 -36.24995 M145.56640625 -36.24995 C145.56640625 -36.2499805390391, 145.56640625 -36.2500110780782, 145.56640625 -36.25005 M145.56640625 -36.24995 C145.56640625 -36.2499879710715, 145.56640625 -36.250025942143, 145.56640625 -36.25005 M145.56640625 -36.25005 C45.44165966698225 -36.25005, -54.683086916035506 -36.25005, -145.56640625 -36.25005 M145.56640625 -36.25005 C49.041523458703765 -36.25005, -47.48335933259247 -36.25005, -145.56640625 -36.25005" stroke="#9370DB" stroke-width="1.3" fill="none" stroke-dasharray="0 0"/></g><g class="divider"><path d="M-81.76176875 -36.25 L-81.76166875 -36.25 L-81.76166875 73 L-81.76176875 73" stroke="none" stroke-width="0" fill="#ECECFF" fill-rule="evenodd"/><path d="M-81.76176875 -36.25 C-81.76173908457531 -36.25, -81.76170941915062 -36.25, -81.76166875 -36.25 M-81.76176875 -36.25 C-81.76174520555321 -36.25, -81.76172166110644 -36.25, -81.76166875 -36.25 M-81.76166875 -36.25 C-81.76166875 -0.020261944088396433, -81.76166875 36.20947611182321, -81.76166875 73 M-81.76166875 -36.25 C-81.76166875 -4.138369514745037, -81.76166875 27.973260970509926, -81.76166875 73 M-81.76166875 73 C-81.76169868443819 73, -81.76172861887639 73, -81.76176875 73 M-81.76166875 73 C-81.7617083872654 73, -81.76174802453079 73, -81.76176875 73 M-81.76176875 73 C-81.76176875 42.225596172285115, -81.76176875 11.45119234457023, -81.76176875 -36.25 M-81.76176875 73 C-81.76176875 30.816845885506183, -81.76176875 -11.366308228987634, -81.76176875 -36.25" stroke="#9370DB" stroke-width="1.3" fill="none" stroke-dasharray="0 0"/></g><g class="divider"><path d="M98.89448125 -36.25 L98.89458125 -36.25 L98.89458125 73 L98.89448125 73" stroke="none" stroke-width="0" fill="#ECECFF" fill-rule="evenodd"/><path d="M98.89448125 -36.25 C98.89452018022625 -36.25, 98.8945591104525 -36.25, 98.89458125 -36.25 M98.89448125 -36.25 C98.89451218718668 -36.25, 98.89454312437337 -36.25, 98.89458125 -36.25 M98.89458125 -36.25 C98.89458125 6.816834030770536, 98.89458125 49.88366806154107, 98.89458125 73 M98.89458125 -36.25 C98.89458125 6.583402705875137, 98.89458125 49.416805411750275, 98.89458125 73 M98.89458125 73 C98.89454607463556 73, 98.8945108992711 73, 98.89448125 73 M98.89458125 73 C98.89455810331468 73, 98.89453495662937 73, 98.89448125 73 M98.89448125 73 C98.89448125 31.530016575482037, 98.89448125 -9.939966849035926, 98.89448125 -36.25 M98.89448125 73 C98.89448125 38.867835835569174, 98.89448125 4.735671671138348, 98.89448125 -36.25" stroke="#9370DB" stroke-width="1.3" fill="none" stroke-dasharray="0 0"/></g><g class="divider"><path d="M-145.56640625 -36.25005 L-145.56640625 -36.24995 L145.56640625 -36.24995 L145.56640625 -36.25005" stroke="none" stroke-width="0" fill="#ECECFF" fill-rule="evenodd"/><path d="M-145.56640625 -36.25005 C-145.56640625 -36.25002027884944, -145.56640625 -36.24999055769888, -145.56640625 -36.24995 M-145.56640625 -36.25005 C-145.56640625 -36.25002694193292, -145.56640625 -36.250003883865844, -145.56640625 -36.24995 M-145.56640625 -36.24995 C-65.21153216521563 -36.24995, 15.14334191956874 -36.24995, 145.56640625 -36.24995 M-145.56640625 -36.24995 C-33.89903655407838 -36.24995, 77.76833314184324 -36.24995, 145.56640625 -36.24995 M145.56640625 -36.24995 C145.56640625 -36.24998004730411, 145.56640625 -36.25001009460823, 145.56640625 -36.25005 M145.56640625 -36.24995 C145.56640625 -36.24998050701856, 145.56640625 -36.25001101403713, 145.56640625 -36.25005 M145.56640625 -36.25005 C49.466924491802985 -36.25005, -46.63255726639403 -36.25005, -145.56640625 -36.25005 M145.56640625 -36.25005 C85.19833820876389 -36.25005, 24.83027016752777 -36.25005, -145.56640625 -36.25005" stroke="#9370DB" stroke-width="1.3" fill="none" stroke-dasharray="0 0"/></g></g></g></g></g><defs><filter id="my-svg-drop-shadow" height="130%" width="130%"><feDropShadow dx="4" dy="4" stdDeviation="0" flood-opacity="0.06" flood-color="#000000"/></filter></defs><defs><filter id="my-svg-drop-shadow-small" height="150%" width="150%"><feDropShadow dx="2" dy="2" stdDeviation="0" flood-opacity="0.06" flood-color="#000000"/></filter></defs></svg>