<svg width="714" height="163" id="my-svg" xmlns="http://www.w3.org/2000/svg" xmlns:xlink="http://www.w3.org/1999/xlink" class="erDiagram" viewBox="6.25 0 714.3125 163" role="graphics-document document" aria-roledescription="er" style="background-color: white;"><style>#my-svg{font-family:"trebuchet ms",verdana,arial,sans-serif;font-size:16px;fill:#333;}@keyframes edge-animation-frame{from{stroke-dashoffset:0;}}@keyframes dash{to{stroke-dashoffset:0;}}#my-svg .edge-animation-slow{stroke-dasharray:9,5!important;stroke-dashoffset:900;animation:dash 50s linear infinite;stroke-linecap:round;}#my-svg .edge-animation-fast{stroke-dasharray:9,5!important;stroke-dashoffset:900;animation:dash 20s linear infinite;stroke-linecap:round;}#my-svg .error-icon{fill:#552222;}#my-svg .error-text{fill:#552222;stroke:#552222;}#my-svg .edge-thickness-normal{stroke-width:1px;}#my-svg .edge-thickness-thick{stroke-width:3.5px;}#my-svg .edge-pattern-solid{stroke-dasharray:0;}#my-svg .edge-thickness-invisible{stroke-width:0;fill:none;}#my-svg .edge-pattern-dashed{stroke-dasharray:3;}#my-svg .edge-pattern-dotted{stroke-dasharray:2;}#my-svg .marker{fill:#333333;stroke:#333333;}#my-svg .marker.cross{stroke:#333333;}#my-svg svg{font-family:"trebuchet ms",verdana,arial,sans-serif;font-size:16px;}#my-svg p{margin:0;}#my-svg .entityBox{fill:#ECECFF;stroke:#9370DB;}#my-svg .relationshipLabelBox{fill:hsl(80, 100%, 96.2745098039%);opacity:0.7;background-color:hsl(80, 100%, 96.2745098039%);}#my-svg .relationshipLabelBox rect{opacity:0.5;}#my-svg .labelBkg{background-color:rgba(248.6666666666, 255, 235.9999999999, 0.5);}#my-svg .edgeLabel{background-color:rgba(232,232,232, 0.8);}#my-svg .edgeLabel .label rect{fill:rgba(232,232,232, 0.8);}#my-svg .edgeLabel .label text{fill:#333;}#my-svg .edgeLabel .label{fill:#9370DB;font-size:14px;}#my-svg .label{font-family:"trebuchet ms",verdana,arial,sans-serif;color:#333;}#my-svg .edge-pattern-dashed{stroke-dasharray:8,8;}#my-svg .node rect,#my-svg .node circle,#my-svg .node ellipse,#my-svg .node polygon{fill:#ECECFF;stroke:#9370DB;stroke-width:1px;}#my-svg .relationshipLine{stroke:#333333;stroke-width:1px;fill:none;}#my-svg .marker{fill:none!important;stroke:#333333!important;stroke-width:1;}#my-svg [data-look=neo].labelBkg{background-color:rgba(248.6666666666, 255, 235.9999999999, 0.5);}#my-svg .cluster rect{fill:#ffffde;stroke:#aaaa33;stroke-width:1px;}#my-svg .cluster text{fill:#333;}#my-svg .cluster-label text{fill:#333;}#my-svg .node .neo-node{stroke:#9370DB;}#my-svg [data-look="neo"].node rect,#my-svg [data-look="neo"].cluster rect,#my-svg [data-look="neo"].node polygon{stroke:#9370DB;filter:drop-shadow(1px 2px 2px rgba(185, 185, 185, 1));}#my-svg [data-look="neo"].swimlane.cluster rect{filter:none;}#my-svg [data-look="neo"].node path{stroke:#9370DB;stroke-width:1px;}#my-svg [data-look="neo"].node .outer-path{filter:drop-shadow(1px 2px 2px rgba(185, 185, 185, 1));}#my-svg [data-look="neo"].node .neo-line path{stroke:#9370DB;filter:none;}#my-svg [data-look="neo"].node circle{stroke:#9370DB;filter:drop-shadow(1px 2px 2px rgba(185, 185, 185, 1));}#my-svg [data-look="neo"].node circle .state-start{fill:#000000;}#my-svg [data-look="neo"].icon-shape .icon{fill:#9370DB;filter:drop-shadow(1px 2px 2px rgba(185, 185, 185, 1));}#my-svg [data-look="neo"].icon-shape .icon-neo path{stroke:#9370DB;filter:drop-shadow(1px 2px 2px rgba(185, 185, 185, 1));}#my-svg :root{--mermaid-font-family:"trebuchet ms",verdana,arial,sans-serif;}</style><g><defs><marker id="my-svg_er-onlyOneStart" class="marker onlyOne er" refX="0" refY="9" markerWidth="18" markerHeight="18" orient="auto"><path d="M9,0 L9,18 M15,0 L15,18"/></marker></defs><defs><marker id="my-svg_er-onlyOneEnd" class="marker onlyOne er" refX="18" refY="9" markerWidth="18" markerHeight="18" orient="auto"><path d="M3,0 L3,18 M9,0 L9,18"/></marker></defs><defs><marker id="my-svg_er-zeroOrOneStart" class="marker zeroOrOne er" refX="0" refY="9" markerWidth="30" markerHeight="18" orient="auto"><circle fill="white" cx="21" cy="9" r="6"/><path d="M9,0 L9,18"/></marker></defs><defs><marker id="my-svg_er-zeroOrOneEnd" class="marker zeroOrOne er" refX="30" refY="9" markerWidth="30" markerHeight="18" orient="auto"><circle fill="white" cx="9" cy="9" r="6"/><path d="M21,0 L21,18"/></marker></defs><defs><marker id="my-svg_er-oneOrMoreStart" class="marker oneOrMore er" refX="18" refY="18" markerWidth="45" markerHeight="36" orient="auto"><path d="M0,18 Q 18,0 36,18 Q 18,36 0,18 M42,9 L42,27"/></marker></defs><defs><marker id="my-svg_er-oneOrMoreEnd" class="marker oneOrMore er" refX="27" refY="18" markerWidth="45" markerHeight="36" orient="auto"><path d="M3,9 L3,27 M9,18 Q27,0 45,18 Q27,36 9,18"/></marker></defs><defs><marker id="my-svg_er-zeroOrMoreStart" class="marker zeroOrMore er" refX="18" refY="18" markerWidth="57" markerHeight="36" orient="auto"><circle fill="white" cx="48" cy="18" r="6"/><path d="M0,18 Q18,0 36,18 Q18,36 0,18"/></marker></defs><defs><marker id="my-svg_er-zeroOrMoreEnd" class="marker zeroOrMore er" refX="39" refY="18" markerWidth="57" markerHeight="36" orient="auto"><circle fill="white" cx="9" cy="18" r="6"/><path d="M21,18 Q39,0 57,18 Q39,36 21,18"/></marker></defs><g class="root"><g class="clusters"/><g class="edgePaths"/><g class="edgeLabels"/><g class="nodes"><g class="node default" id="my-svg-entity-wfl_TemplateField-0" data-look="classic" transform="translate(127.7890625, 81.5)"><g class="outer-path" style=""><path d="M-113.5390625 -55.125 L113.5390625 -55.125 L113.5390625 55.125 L-113.5390625 55.125" stroke="none" stroke-width="0" fill="#ECECFF"/><path d="M-113.5390625 -55.125 C-61.153968218099415 -55.125, -8.76887393619883 -55.125, 113.5390625 -55.125 M-113.5390625 -55.125 C-57.54680660157786 -55.125, -1.5545507031557264 -55.125, 113.5390625 -55.125 M113.5390625 -55.125 C113.5390625 -12.498094329010875, 113.5390625 30.12881134197825, 113.5390625 55.125 M113.5390625 -55.125 C113.5390625 -12.731992436871742, 113.5390625 29.661015126256515, 113.5390625 55.125 M113.5390625 55.125 C49.15929800277496 55.125, -15.22046649445008 55.125, -113.5390625 55.125 M113.5390625 55.125 C57.670309746958225 55.125, 1.8015569939164493 55.125, -113.5390625 55.125 M-113.5390625 55.125 C-113.5390625 30.789118985288823, -113.5390625 6.453237970577646, -113.5390625 -55.125 M-113.5390625 55.125 C-113.5390625 17.642837448386715, -113.5390625 -19.83932510322657, -113.5390625 -55.125" stroke="#9370DB" stroke-width="1.3" fill="none" stroke-dasharray="0 0"/></g><g style="" class="row-rect-odd"><path d="M-113.5390625 -18.375 L113.5390625 -18.375 L113.5390625 18.375 L-113.5390625 18.375" stroke="none" stroke-width="0" fill="hsl(240, 100%, 100%)"/><path d="M-113.5390625 -18.375 C-37.40154827720836 -18.375, 38.735965945583274 -18.375, 113.5390625 -18.375 M-113.5390625 -18.375 C-56.181180144893034 -18.375, 1.1767022102139322 -18.375, 113.5390625 -18.375 M113.5390625 -18.375 C113.5390625 -6.9982993570982615, 113.5390625 4.378401285803477, 113.5390625 18.375 M113.5390625 -18.375 C113.5390625 -9.019942015354966, 113.5390625 0.3351159692900687, 113.5390625 18.375 M113.5390625 18.375 C51.42392825294612 18.375, -10.691205994107762 18.375, -113.5390625 18.375 M113.5390625 18.375 C33.57227362546297 18.375, -46.39451524907406 18.375, -113.5390625 18.375 M-113.5390625 18.375 C-113.5390625 10.998044771176641, -113.5390625 3.6210895423532836, -113.5390625 -18.375 M-113.5390625 18.375 C-113.5390625 5.105509526655448, -113.5390625 -8.163980946689104, -113.5390625 -18.375" stroke="#9370DB" stroke-width="1.3" fill="none" stroke-dasharray="0 0"/></g><g style="" class="row-rect-even"><path d="M-113.5390625 18.375 L113.5390625 18.375 L113.5390625 55.125 L-113.5390625 55.125" stroke="none" stroke-width="0" fill="hsl(240, 100%, 97.2745098039%)"/><path d="M-113.5390625 18.375 C-32.68061017010061 18.375, 48.177842159798786 18.375, 113.5390625 18.375 M-113.5390625 18.375 C-32.49960412234228 18.375, 48.53985425531545 18.375, 113.5390625 18.375 M113.5390625 18.375 C113.5390625 28.04627321873202, 113.5390625 37.71754643746404, 113.5390625 55.125 M113.5390625 18.375 C113.5390625 26.400625642700277, 113.5390625 34.426251285400554, 113.5390625 55.125 M113.5390625 55.125 C45.51909579747935 55.125, -22.500870905041296 55.125, -113.5390625 55.125 M113.5390625 55.125 C41.82817588422405 55.125, -29.882710731551896 55.125, -113.5390625 55.125 M-113.5390625 55.125 C-113.5390625 40.70032120784926, -113.5390625 26.275642415698517, -113.5390625 18.375 M-113.5390625 55.125 C-113.5390625 47.65909618155177, -113.5390625 40.193192363103535, -113.5390625 18.375" stroke="#9370DB" stroke-width="1.3" fill="none" stroke-dasharray="0 0"/></g><g class="label name" transform="translate(-62.3046875, -45.75)" style=""><g><rect class="background" style="stroke: none"/></g><text y="-10.1" style=""><tspan class="text-outer-tspan row" x="0" y="-0.1em" dy="1.1em"><tspan font-style="normal" class="text-inner-tspan" font-weight="normal">wfl.TemplateField</tspan></tspan></text></g><g class="label attribute-type" transform="translate(-101.0390625, -9)" style=""><g><rect class="background" style="stroke: none"/></g><text y="-10.1" style=""><tspan class="text-outer-tspan row" x="0" y="-0.1em" dy="1.1em"><tspan font-style="normal" class="text-inner-tspan" font-weight="normal">int</tspan></tspan></text></g><g class="label attribute-name" transform="translate(-58.5859375, -9)" style=""><g><rect class="background" style="stroke: none"/></g><text y="-10.1" style=""><tspan class="text-outer-tspan row" x="0" y="-0.1em" dy="1.1em"><tspan font-style="normal" class="text-inner-tspan" font-weight="normal">TemplateFieldId</tspan></tspan></text></g><g class="label attribute-keys" transform="translate(79.3671875, -9)" style=""><g><rect class="background" style="stroke: none"/></g><text y="-10.1" style=""><tspan class="text-outer-tspan row" x="0" y="-0.1em" dy="1.1em"><tspan font-style="normal" class="text-inner-tspan" font-weight="normal">PK</tspan></tspan></text></g><g class="label attribute-comment" transform="translate(126.0390625, -9)" style=""><g><rect class="background" style="stroke: none"/></g><text y="-10.1" style=""><tspan class="text-outer-tspan row" x="0" y="-0.1em" dy="1.1em"/></text></g><g class="label attribute-type" transform="translate(-101.0390625, 27.75)" style=""><g><rect class="background" style="stroke: none"/></g><text y="-10.1" style=""><tspan class="text-outer-tspan row" x="0" y="-0.1em" dy="1.1em"><tspan font-style="normal" class="text-inner-tspan" font-weight="normal">int</tspan></tspan></text></g><g class="label attribute-name" transform="translate(-58.5859375, 27.75)" style=""><g><rect class="background" style="stroke: none"/></g><text y="-10.1" style=""><tspan class="text-outer-tspan row" x="0" y="-0.1em" dy="1.1em"><tspan font-style="normal" class="text-inner-tspan" font-weight="normal">TemplateId</tspan></tspan></text></g><g class="label attribute-keys" transform="translate(79.3671875, 27.75)" style=""><g><rect class="background" style="stroke: none"/></g><text y="-10.1" style=""><tspan class="text-outer-tspan row" x="0" y="-0.1em" dy="1.1em"><tspan font-style="normal" class="text-inner-tspan" font-weight="normal">FK</tspan></tspan></text></g><g class="label attribute-comment" transform="translate(126.0390625, 27.75)" style=""><g><rect class="background" style="stroke: none"/></g><text y="-10.1" style=""><tspan class="text-outer-tspan row" x="0" y="-0.1em" dy="1.1em"/></text></g><g class="divider"><path d="M-113.5390625 -18.37505 L-113.5390625 -18.37495 L113.5390625 -18.37495 L113.5390625 -18.37505" stroke="none" stroke-width="0" fill="#ECECFF" fill-rule="evenodd"/><path d="M-113.5390625 -18.37505 C-113.5390625 -18.37501339517292, -113.5390625 -18.374976790345837, -113.5390625 -18.37495 M-113.5390625 -18.37505 C-113.5390625 -18.375015665343746, -113.5390625 -18.374981330687486, -113.5390625 -18.37495 M-113.5390625 -18.37495 C-48.023619018098245 -18.37495, 17.49182446380351 -18.37495, 113.5390625 -18.37495 M-113.5390625 -18.37495 C-39.00870179789226 -18.37495, 35.521658904215485 -18.37495, 113.5390625 -18.37495 M113.5390625 -18.37495 C113.5390625 -18.374978911167975, 113.5390625 -18.375007822335952, 113.5390625 -18.37505 M113.5390625 -18.37495 C113.5390625 -18.37497565401674, 113.5390625 -18.375001308033486, 113.5390625 -18.37505 M113.5390625 -18.37505 C34.67605693784857 -18.37505, -44.18694862430286 -18.37505, -113.5390625 -18.37505 M113.5390625 -18.37505 C60.666711984866936 -18.37505, 7.794361469733872 -18.37505, -113.5390625 -18.37505" stroke="#9370DB" stroke-width="1.3" fill="none" stroke-dasharray="0 0"/></g><g class="divider"><path d="M-71.0859875 -18.375 L-71.0858875 -18.375 L-71.0858875 55.125 L-71.0859875 55.125" stroke="none" stroke-width="0" fill="#ECECFF" fill-rule="evenodd"/><path d="M-71.0859875 -18.375 C-71.08596089288042 -18.375, -71.08593428576084 -18.375, -71.0858875 -18.375 M-71.0859875 -18.375 C-71.08594943738743 -18.375, -71.08591137477487 -18.375, -71.0858875 -18.375 M-71.0858875 -18.375 C-71.0858875 -0.7549671157346722, -71.0858875 16.865065768530656, -71.0858875 55.125 M-71.0858875 -18.375 C-71.0858875 4.4729151976056905, -71.0858875 27.32083039521138, -71.0858875 55.125 M-71.0858875 55.125 C-71.08592396430615 55.125, -71.0859604286123 55.125, -71.0859875 55.125 M-71.0858875 55.125 C-71.08591450932782 55.125, -71.08594151865564 55.125, -71.0859875 55.125 M-71.0859875 55.125 C-71.0859875 28.031077947122444, -71.0859875 0.9371558942448885, -71.0859875 -18.375 M-71.0859875 55.125 C-71.0859875 31.11844518630595, -71.0859875 7.111890372611903, -71.0859875 -18.375" stroke="#9370DB" stroke-width="1.3" fill="none" stroke-dasharray="0 0"/></g><g class="divider"><path d="M66.8671375 -18.375 L66.8672375 -18.375 L66.8672375 55.125 L66.8671375 55.125" stroke="none" stroke-width="0" fill="#ECECFF" fill-rule="evenodd"/><path d="M66.8671375 -18.375 C66.86717334177888 -18.375, 66.86720918355776 -18.375, 66.8672375 -18.375 M66.8671375 -18.375 C66.86717129071967 -18.375, 66.86720508143935 -18.375, 66.8672375 -18.375 M66.8672375 -18.375 C66.8672375 3.7397236914409113, 66.8672375 25.854447382881823, 66.8672375 55.125 M66.8672375 -18.375 C66.8672375 0.9941748723739003, 66.8672375 20.3633497447478, 66.8672375 55.125 M66.8672375 55.125 C66.8672009196955 55.125, 66.86716433939101 55.125, 66.8671375 55.125 M66.8672375 55.125 C66.86719933620667 55.125, 66.86716117241332 55.125, 66.8671375 55.125 M66.8671375 55.125 C66.8671375 26.054089018414956, 66.8671375 -3.016821963170088, 66.8671375 -18.375 M66.8671375 55.125 C66.8671375 34.87885110348101, 66.8671375 14.632702206962023, 66.8671375 -18.375" stroke="#9370DB" stroke-width="1.3" fill="none" stroke-dasharray="0 0"/></g><g class="divider"><path d="M-113.5390625 -18.37505 L-113.5390625 -18.37495 L113.5390625 -18.37495 L113.5390625 -18.37505" stroke="none" stroke-width="0" fill="#ECECFF" fill-rule="evenodd"/><path d="M-113.5390625 -18.37505 C-113.5390625 -18.37501940645164, -113.5390625 -18.37498881290328, -113.5390625 -18.37495 M-113.5390625 -18.37505 C-113.5390625 -18.375012136077324, -113.5390625 -18.37497427215465, -113.5390625 -18.37495 M-113.5390625 -18.37495 C-41.187140195727864 -18.37495, 31.164782108544273 -18.37495, 113.5390625 -18.37495 M-113.5390625 -18.37495 C-40.22568015190521 -18.37495, 33.08770219618958 -18.37495, 113.5390625 -18.37495 M113.5390625 -18.37495 C113.5390625 -18.374979824143733, 113.5390625 -18.375009648287467, 113.5390625 -18.37505 M113.5390625 -18.37495 C113.5390625 -18.374976876142576, 113.5390625 -18.375003752285153, 113.5390625 -18.37505 M113.5390625 -18.37505 C43.653229327014216 -18.37505, -26.232603845971568 -18.37505, -113.5390625 -18.37505 M113.5390625 -18.37505 C39.892614344737126 -18.37505, -33.75383381052575 -18.37505, -113.5390625 -18.37505" stroke="#9370DB" stroke-width="1.3" fill="none" stroke-dasharray="0 0"/></g></g><g class="node default" id="my-svg-entity-wfl_TemplateAttachmentRule-1" data-look="classic" transform="translate(546.9453125, 81.5)"><g class="outer-path" style=""><path d="M-153.1171875 -73.5 L153.1171875 -73.5 L153.1171875 73.5 L-153.1171875 73.5" stroke="none" stroke-width="0" fill="#ECECFF"/><path d="M-153.1171875 -73.5 C-88.16102027662902 -73.5, -23.204853053258034 -73.5, 153.1171875 -73.5 M-153.1171875 -73.5 C-52.37128290811934 -73.5, 48.37462168376132 -73.5, 153.1171875 -73.5 M153.1171875 -73.5 C153.1171875 -18.85692892702111, 153.1171875 35.78614214595778, 153.1171875 73.5 M153.1171875 -73.5 C153.1171875 -28.71445608208049, 153.1171875 16.071087835839023, 153.1171875 73.5 M153.1171875 73.5 C75.28086990970766 73.5, -2.5554476805846775 73.5, -153.1171875 73.5 M153.1171875 73.5 C69.60648319546092 73.5, -13.90422110907815 73.5, -153.1171875 73.5 M-153.1171875 73.5 C-153.1171875 17.888563675756572, -153.1171875 -37.722872648486856, -153.1171875 -73.5 M-153.1171875 73.5 C-153.1171875 21.05284593434915, -153.1171875 -31.3943081313017, -153.1171875 -73.5" stroke="#9370DB" stroke-width="1.3" fill="none" stroke-dasharray="0 0"/></g><g style="" class="row-rect-odd"><path d="M-153.1171875 -36.75 L153.1171875 -36.75 L153.1171875 0 L-153.1171875 0" stroke="none" stroke-width="0" fill="hsl(240, 100%, 100%)"/><path d="M-153.1171875 -36.75 C-54.44198217903843 -36.75, 44.23322314192313 -36.75, 153.1171875 -36.75 M-153.1171875 -36.75 C-53.48750536709444 -36.75, 46.142176765811115 -36.75, 153.1171875 -36.75 M153.1171875 -36.75 C153.1171875 -24.5931799502575, 153.1171875 -12.436359900515004, 153.1171875 0 M153.1171875 -36.75 C153.1171875 -25.38623792897552, 153.1171875 -14.02247585795104, 153.1171875 0 M153.1171875 0 C37.35709977788984 0, -78.40298794422031 0, -153.1171875 0 M153.1171875 0 C86.18194006553243 0, 19.24669263106486 0, -153.1171875 0 M-153.1171875 0 C-153.1171875 -12.555609861773386, -153.1171875 -25.11121972354677, -153.1171875 -36.75 M-153.1171875 0 C-153.1171875 -9.498572107322913, -153.1171875 -18.997144214645825, -153.1171875 -36.75" stroke="#9370DB" stroke-width="1.3" fill="none" stroke-dasharray="0 0"/></g><g style="" class="row-rect-even"><path d="M-153.1171875 0 L153.1171875 0 L153.1171875 36.75 L-153.1171875 36.75" stroke="none" stroke-width="0" fill="hsl(240, 100%, 97.2745098039%)"/><path d="M-153.1171875 0 C-76.08036028359159 0, 0.9564669328168236 0, 153.1171875 0 M-153.1171875 0 C-87.98253517332046 0, -22.847882846640914 0, 153.1171875 0 M153.1171875 0 C153.1171875 9.447935030721922, 153.1171875 18.895870061443844, 153.1171875 36.75 M153.1171875 0 C153.1171875 12.666053319561845, 153.1171875 25.33210663912369, 153.1171875 36.75 M153.1171875 36.75 C72.31476203349285 36.75, -8.48766343301429 36.75, -153.1171875 36.75 M153.1171875 36.75 C44.97656038491405 36.75, -63.164066730171896 36.75, -153.1171875 36.75 M-153.1171875 36.75 C-153.1171875 29.246119963726624, -153.1171875 21.742239927453248, -153.1171875 0 M-153.1171875 36.75 C-153.1171875 22.397459727326005, -153.1171875 8.04491945465201, -153.1171875 0" stroke="#9370DB" stroke-width="1.3" fill="none" stroke-dasharray="0 0"/></g><g style="" class="row-rect-odd"><path d="M-153.1171875 36.75 L153.1171875 36.75 L153.1171875 73.5 L-153.1171875 73.5" stroke="none" stroke-width="0" fill="hsl(240, 100%, 100%)"/><path d="M-153.1171875 36.75 C-57.36336113917696 36.75, 38.39046522164608 36.75, 153.1171875 36.75 M-153.1171875 36.75 C-34.12156483467842 36.75, 84.87405783064315 36.75, 153.1171875 36.75 M153.1171875 36.75 C153.1171875 50.20729630175204, 153.1171875 63.664592603504076, 153.1171875 73.5 M153.1171875 36.75 C153.1171875 48.395839737792755, 153.1171875 60.041679475585504, 153.1171875 73.5 M153.1171875 73.5 C37.183329836543166 73.5, -78.75052782691367 73.5, -153.1171875 73.5 M153.1171875 73.5 C61.5838353681944 73.5, -29.9495167636112 73.5, -153.1171875 73.5 M-153.1171875 73.5 C-153.1171875 58.8140271942852, -153.1171875 44.12805438857041, -153.1171875 36.75 M-153.1171875 73.5 C-153.1171875 61.471351287663445, -153.1171875 49.44270257532689, -153.1171875 36.75" stroke="#9370DB" stroke-width="1.3" fill="none" stroke-dasharray="0 0"/></g><g class="label name" transform="translate(-101.9296875, -64.125)" style=""><g><rect class="background" style="stroke: none"/></g><text y="-10.1" style=""><tspan class="text-outer-tspan row" x="0" y="-0.1em" dy="1.1em"><tspan font-style="normal" class="text-inner-tspan" font-weight="normal">wfl.TemplateAttachmentRule</tspan></tspan></text></g><g class="label attribute-type" transform="translate(-140.6171875, -27.375)" style=""><g><rect class="background" style="stroke: none"/></g><text y="-10.1" style=""><tspan class="text-outer-tspan row" x="0" y="-0.1em" dy="1.1em"><tspan font-style="normal" class="text-inner-tspan" font-weight="normal">int</tspan></tspan></text></g><g class="label attribute-name" transform="translate(-98.1640625, -27.375)" style=""><g><rect class="background" style="stroke: none"/></g><text y="-10.1" style=""><tspan class="text-outer-tspan row" x="0" y="-0.1em" dy="1.1em"><tspan font-style="normal" class="text-inner-tspan" font-weight="normal">TemplateAttachmentRuleId</tspan></tspan></text></g><g class="label attribute-keys" transform="translate(118.9453125, -27.375)" style=""><g><rect class="background" style="stroke: none"/></g><text y="-10.1" style=""><tspan class="text-outer-tspan row" x="0" y="-0.1em" dy="1.1em"><tspan font-style="normal" class="text-inner-tspan" font-weight="normal">PK</tspan></tspan></text></g><g class="label attribute-comment" transform="translate(165.6171875, -27.375)" style=""><g><rect class="background" style="stroke: none"/></g><text y="-10.1" style=""><tspan class="text-outer-tspan row" x="0" y="-0.1em" dy="1.1em"/></text></g><g class="label attribute-type" transform="translate(-140.6171875, 9.375)" style=""><g><rect class="background" style="stroke: none"/></g><text y="-10.1" style=""><tspan class="text-outer-tspan row" x="0" y="-0.1em" dy="1.1em"><tspan font-style="normal" class="text-inner-tspan" font-weight="normal">int</tspan></tspan></text></g><g class="label attribute-name" transform="translate(-98.1640625, 9.375)" style=""><g><rect class="background" style="stroke: none"/></g><text y="-10.1" style=""><tspan class="text-outer-tspan row" x="0" y="-0.1em" dy="1.1em"><tspan font-style="normal" class="text-inner-tspan" font-weight="normal">TemplateId</tspan></tspan></text></g><g class="label attribute-keys" transform="translate(118.9453125, 9.375)" style=""><g><rect class="background" style="stroke: none"/></g><text y="-10.1" style=""><tspan class="text-outer-tspan row" x="0" y="-0.1em" dy="1.1em"><tspan font-style="normal" class="text-inner-tspan" font-weight="normal">FK</tspan></tspan></text></g><g class="label attribute-comment" transform="translate(165.6171875, 9.375)" style=""><g><rect class="background" style="stroke: none"/></g><text y="-10.1" style=""><tspan class="text-outer-tspan row" x="0" y="-0.1em" dy="1.1em"/></text></g><g class="label attribute-type" transform="translate(-140.6171875, 46.125)" style=""><g><rect class="background" style="stroke: none"/></g><text y="-10.1" style=""><tspan class="text-outer-tspan row" x="0" y="-0.1em" dy="1.1em"><tspan font-style="normal" class="text-inner-tspan" font-weight="normal">int</tspan></tspan></text></g><g class="label attribute-name" transform="translate(-98.1640625, 46.125)" style=""><g><rect class="background" style="stroke: none"/></g><text y="-10.1" style=""><tspan class="text-outer-tspan row" x="0" y="-0.1em" dy="1.1em"><tspan font-style="normal" class="text-inner-tspan" font-weight="normal">DocumentTypeId</tspan></tspan></text></g><g class="label attribute-keys" transform="translate(118.9453125, 46.125)" style=""><g><rect class="background" style="stroke: none"/></g><text y="-10.1" style=""><tspan class="text-outer-tspan row" x="0" y="-0.1em" dy="1.1em"><tspan font-style="normal" class="text-inner-tspan" font-weight="normal">FK</tspan></tspan></text></g><g class="label attribute-comment" transform="translate(165.6171875, 46.125)" style=""><g><rect class="background" style="stroke: none"/></g><text y="-10.1" style=""><tspan class="text-outer-tspan row" x="0" y="-0.1em" dy="1.1em"/></text></g><g class="divider"><path d="M-153.1171875 -36.75005 L-153.1171875 -36.74995 L153.1171875 -36.74995 L153.1171875 -36.75005" stroke="none" stroke-width="0" fill="#ECECFF" fill-rule="evenodd"/><path d="M-153.1171875 -36.75005 C-153.1171875 -36.75002615429298, -153.1171875 -36.75000230858597, -153.1171875 -36.74995 M-153.1171875 -36.75005 C-153.1171875 -36.75002675856087, -153.1171875 -36.75000351712174, -153.1171875 -36.74995 M-153.1171875 -36.74995 C-78.83930530752033 -36.74995, -4.561423115040668 -36.74995, 153.1171875 -36.74995 M-153.1171875 -36.74995 C-74.3133960357362 -36.74995, 4.4903954285275915 -36.74995, 153.1171875 -36.74995 M153.1171875 -36.74995 C153.1171875 -36.74997522852659, 153.1171875 -36.75000045705317, 153.1171875 -36.75005 M153.1171875 -36.74995 C153.1171875 -36.74997999637437, 153.1171875 -36.750009992748744, 153.1171875 -36.75005 M153.1171875 -36.75005 C72.13792100700984 -36.75005, -8.841345485980327 -36.75005, -153.1171875 -36.75005 M153.1171875 -36.75005 C66.36577506301776 -36.75005, -20.38563737396447 -36.75005, -153.1171875 -36.75005" stroke="#9370DB" stroke-width="1.3" fill="none" stroke-dasharray="0 0"/></g><g class="divider"><path d="M-110.6641125 -36.75 L-110.6640125 -36.75 L-110.6640125 73.5 L-110.6641125 73.5" stroke="none" stroke-width="0" fill="#ECECFF" fill-rule="evenodd"/><path d="M-110.6641125 -36.75 C-110.66407277672829 -36.75, -110.66403305345659 -36.75, -110.6640125 -36.75 M-110.6641125 -36.75 C-110.66407475960904 -36.75, -110.66403701921806 -36.75, -110.6640125 -36.75 M-110.6640125 -36.75 C-110.6640125 -0.21359698370562796, -110.6640125 36.322806032588744, -110.6640125 73.5 M-110.6640125 -36.75 C-110.6640125 2.3089709430138328, -110.6640125 41.367941886027666, -110.6640125 73.5 M-110.6640125 73.5 C-110.66404968878263 73.5, -110.66408687756524 73.5, -110.6641125 73.5 M-110.6640125 73.5 C-110.66405142607955 73.5, -110.66409035215912 73.5, -110.6641125 73.5 M-110.6641125 73.5 C-110.6641125 31.040944610853145, -110.6641125 -11.418110778293709, -110.6641125 -36.75 M-110.6641125 73.5 C-110.6641125 37.71595834615837, -110.6641125 1.931916692316733, -110.6641125 -36.75" stroke="#9370DB" stroke-width="1.3" fill="none" stroke-dasharray="0 0"/></g><g class="divider"><path d="M106.4452625 -36.75 L106.4453625 -36.75 L106.4453625 73.5 L106.4452625 73.5" stroke="none" stroke-width="0" fill="#ECECFF" fill-rule="evenodd"/><path d="M106.4452625 -36.75 C106.44528669203966 -36.75, 106.44531088407932 -36.75, 106.4453625 -36.75 M106.4452625 -36.75 C106.44528388271252 -36.75, 106.44530526542505 -36.75, 106.4453625 -36.75 M106.4453625 -36.75 C106.4453625 6.904840103308963, 106.4453625 50.55968020661793, 106.4453625 73.5 M106.4453625 -36.75 C106.4453625 -7.010686410970589, 106.4453625 22.728627178058822, 106.4453625 73.5 M106.4453625 73.5 C106.44532424943888 73.5, 106.44528599887776 73.5, 106.4452625 73.5 M106.4453625 73.5 C106.4453258369859 73.5, 106.4452891739718 73.5, 106.4452625 73.5 M106.4452625 73.5 C106.4452625 38.44934212336474, 106.4452625 3.3986842467294736, 106.4452625 -36.75 M106.4452625 73.5 C106.4452625 40.42737054533244, 106.4452625 7.354741090664874, 106.4452625 -36.75" stroke="#9370DB" stroke-width="1.3" fill="none" stroke-dasharray="0 0"/></g><g class="divider"><path d="M-153.1171875 -36.75005 L-153.1171875 -36.74995 L153.1171875 -36.74995 L153.1171875 -36.75005" stroke="none" stroke-width="0" fill="#ECECFF" fill-rule="evenodd"/><path d="M-153.1171875 -36.75005 C-153.1171875 -36.750013667395294, -153.1171875 -36.74997733479059, -153.1171875 -36.74995 M-153.1171875 -36.75005 C-153.1171875 -36.75001006003294, -153.1171875 -36.74997012006588, -153.1171875 -36.74995 M-153.1171875 -36.74995 C-69.33335489494198 -36.74995, 14.450477710116047 -36.74995, 153.1171875 -36.74995 M-153.1171875 -36.74995 C-77.17641705567338 -36.74995, -1.2356466113467661 -36.74995, 153.1171875 -36.74995 M153.1171875 -36.74995 C153.1171875 -36.749971656967126, 153.1171875 -36.749993313934255, 153.1171875 -36.75005 M153.1171875 -36.74995 C153.1171875 -36.7499750585227, 153.1171875 -36.75000011704541, 153.1171875 -36.75005 M153.1171875 -36.75005 C52.13159854040369 -36.75005, -48.85399041919263 -36.75005, -153.1171875 -36.75005 M153.1171875 -36.75005 C70.43420386017002 -36.75005, -12.24877977965997 -36.75005, -153.1171875 -36.75005" stroke="#9370DB" stroke-width="1.3" fill="none" stroke-dasharray="0 0"/></g></g></g></g></g><defs><filter id="my-svg-drop-shadow" height="130%" width="130%"><feDropShadow dx="4" dy="4" stdDeviation="0" flood-opacity="0.06" flood-color="#000000"/></filter></defs><defs><filter id="my-svg-drop-shadow-small" height="150%" width="150%"><feDropShadow dx="2" dy="2" stdDeviation="0" flood-opacity="0.06" flood-color="#000000"/></filter></defs></svg>