<svg width="737" height="412" id="my-svg" xmlns="http://www.w3.org/2000/svg" xmlns:xlink="http://www.w3.org/1999/xlink" class="erDiagram" viewBox="6.25 0 736.53125 412" role="graphics-document document" aria-roledescription="er" style="background-color: white;"><style>#my-svg{font-family:"trebuchet ms",verdana,arial,sans-serif;font-size:16px;fill:#333;}@keyframes edge-animation-frame{from{stroke-dashoffset:0;}}@keyframes dash{to{stroke-dashoffset:0;}}#my-svg .edge-animation-slow{stroke-dasharray:9,5!important;stroke-dashoffset:900;animation:dash 50s linear infinite;stroke-linecap:round;}#my-svg .edge-animation-fast{stroke-dasharray:9,5!important;stroke-dashoffset:900;animation:dash 20s linear infinite;stroke-linecap:round;}#my-svg .error-icon{fill:#552222;}#my-svg .error-text{fill:#552222;stroke:#552222;}#my-svg .edge-thickness-normal{stroke-width:1px;}#my-svg .edge-thickness-thick{stroke-width:3.5px;}#my-svg .edge-pattern-solid{stroke-dasharray:0;}#my-svg .edge-thickness-invisible{stroke-width:0;fill:none;}#my-svg .edge-pattern-dashed{stroke-dasharray:3;}#my-svg .edge-pattern-dotted{stroke-dasharray:2;}#my-svg .marker{fill:#333333;stroke:#333333;}#my-svg .marker.cross{stroke:#333333;}#my-svg svg{font-family:"trebuchet ms",verdana,arial,sans-serif;font-size:16px;}#my-svg p{margin:0;}#my-svg .entityBox{fill:#ECECFF;stroke:#9370DB;}#my-svg .relationshipLabelBox{fill:hsl(80, 100%, 96.2745098039%);opacity:0.7;background-color:hsl(80, 100%, 96.2745098039%);}#my-svg .relationshipLabelBox rect{opacity:0.5;}#my-svg .labelBkg{background-color:rgba(248.6666666666, 255, 235.9999999999, 0.5);}#my-svg .edgeLabel{background-color:rgba(232,232,232, 0.8);}#my-svg .edgeLabel .label rect{fill:rgba(232,232,232, 0.8);}#my-svg .edgeLabel .label text{fill:#333;}#my-svg .edgeLabel .label{fill:#9370DB;font-size:14px;}#my-svg .label{font-family:"trebuchet ms",verdana,arial,sans-serif;color:#333;}#my-svg .edge-pattern-dashed{stroke-dasharray:8,8;}#my-svg .node rect,#my-svg .node circle,#my-svg .node ellipse,#my-svg .node polygon{fill:#ECECFF;stroke:#9370DB;stroke-width:1px;}#my-svg .relationshipLine{stroke:#333333;stroke-width:1px;fill:none;}#my-svg .marker{fill:none!important;stroke:#333333!important;stroke-width:1;}#my-svg [data-look=neo].labelBkg{background-color:rgba(248.6666666666, 255, 235.9999999999, 0.5);}#my-svg .cluster rect{fill:#ffffde;stroke:#aaaa33;stroke-width:1px;}#my-svg .cluster text{fill:#333;}#my-svg .cluster-label text{fill:#333;}#my-svg .node .neo-node{stroke:#9370DB;}#my-svg [data-look="neo"].node rect,#my-svg [data-look="neo"].cluster rect,#my-svg [data-look="neo"].node polygon{stroke:#9370DB;filter:drop-shadow(1px 2px 2px rgba(185, 185, 185, 1));}#my-svg [data-look="neo"].swimlane.cluster rect{filter:none;}#my-svg [data-look="neo"].node path{stroke:#9370DB;stroke-width:1px;}#my-svg [data-look="neo"].node .outer-path{filter:drop-shadow(1px 2px 2px rgba(185, 185, 185, 1));}#my-svg [data-look="neo"].node .neo-line path{stroke:#9370DB;filter:none;}#my-svg [data-look="neo"].node circle{stroke:#9370DB;filter:drop-shadow(1px 2px 2px rgba(185, 185, 185, 1));}#my-svg [data-look="neo"].node circle .state-start{fill:#000000;}#my-svg [data-look="neo"].icon-shape .icon{fill:#9370DB;filter:drop-shadow(1px 2px 2px rgba(185, 185, 185, 1));}#my-svg [data-look="neo"].icon-shape .icon-neo path{stroke:#9370DB;filter:drop-shadow(1px 2px 2px rgba(185, 185, 185, 1));}#my-svg :root{--mermaid-font-family:"trebuchet ms",verdana,arial,sans-serif;}</style><g><defs><marker id="my-svg_er-onlyOneStart" class="marker onlyOne er" refX="0" refY="9" markerWidth="18" markerHeight="18" orient="auto"><path d="M9,0 L9,18 M15,0 L15,18"/></marker></defs><defs><marker id="my-svg_er-onlyOneEnd" class="marker onlyOne er" refX="18" refY="9" markerWidth="18" markerHeight="18" orient="auto"><path d="M3,0 L3,18 M9,0 L9,18"/></marker></defs><defs><marker id="my-svg_er-zeroOrOneStart" class="marker zeroOrOne er" refX="0" refY="9" markerWidth="30" markerHeight="18" orient="auto"><circle fill="white" cx="21" cy="9" r="6"/><path d="M9,0 L9,18"/></marker></defs><defs><marker id="my-svg_er-zeroOrOneEnd" class="marker zeroOrOne er" refX="30" refY="9" markerWidth="30" markerHeight="18" orient="auto"><circle fill="white" cx="9" cy="9" r="6"/><path d="M21,0 L21,18"/></marker></defs><defs><marker id="my-svg_er-oneOrMoreStart" class="marker oneOrMore er" refX="18" refY="18" markerWidth="45" markerHeight="36" orient="auto"><path d="M0,18 Q 18,0 36,18 Q 18,36 0,18 M42,9 L42,27"/></marker></defs><defs><marker id="my-svg_er-oneOrMoreEnd" class="marker oneOrMore er" refX="27" refY="18" markerWidth="45" markerHeight="36" orient="auto"><path d="M3,9 L3,27 M9,18 Q27,0 45,18 Q27,36 9,18"/></marker></defs><defs><marker id="my-svg_er-zeroOrMoreStart" class="marker zeroOrMore er" refX="18" refY="18" markerWidth="57" markerHeight="36" orient="auto"><circle fill="white" cx="48" cy="18" r="6"/><path d="M0,18 Q18,0 36,18 Q18,36 0,18"/></marker></defs><defs><marker id="my-svg_er-zeroOrMoreEnd" class="marker zeroOrMore er" refX="39" refY="18" markerWidth="57" markerHeight="36" orient="auto"><circle fill="white" cx="9" cy="18" r="6"/><path d="M21,18 Q39,0 57,18 Q39,36 21,18"/></marker></defs><g class="root"><g class="clusters"/><g class="edgePaths"><path d="M559.387,191.75L559.387,200.25C559.387,208.75,559.387,225.75,559.387,242.75C559.387,259.75,559.387,276.75,559.387,285.25L559.387,293.75" id="my-svg-id_entity-lc_LcTermsComparison-1_entity-lc_LcTermsComparisonLine-2_0" class="edge-thickness-normal edge-pattern-solid relationshipLine" style="undefined;;;undefined" data-edge="true" data-et="edge" data-id="id_entity-lc_LcTermsComparison-1_entity-lc_LcTermsComparisonLine-2_0" data-points="W3sieCI6NTU5LjM4NjcxODc1LCJ5IjoxOTEuNzV9LHsieCI6NTU5LjM4NjcxODc1LCJ5IjoyNDIuNzV9LHsieCI6NTU5LjM4NjcxODc1LCJ5IjoyOTMuNzV9XQ==" data-look="classic" marker-start="url(#my-svg_er-onlyOneStart)" marker-end="url(#my-svg_er-zeroOrMoreEnd)"/></g><g class="edgeLabels"><g class="edgeLabel" transform="translate(559.38671875, 242.75)"><g class="label" data-id="id_entity-lc_LcTermsComparison-1_entity-lc_LcTermsComparisonLine-2_0" transform="translate(0, -9.000000476837158)"><g><rect class="background" style="" x="-51.8046875" y="0" width="103.609375" height="22"/><text y="-10.1" text-anchor="middle" style=""><tspan class="text-outer-tspan row" x="0" y="-0.1em" dy="1.1em" text-anchor="middle"><tspan font-style="normal" class="text-inner-tspan" font-weight="normal">ComparisonId</tspan></tspan></text></g></g></g></g><g class="nodes"><g class="node default" id="my-svg-entity-lc_ProformaLine-0" data-look="classic" transform="translate(136.68359375, 99.875)"><g class="outer-path" style=""><path d="M-122.43359375 -73 L122.43359375 -73 L122.43359375 73 L-122.43359375 73" stroke="none" stroke-width="0" fill="#ECECFF"/><path d="M-122.43359375 -73 C-63.9018282749818 -73, -5.3700627999636055 -73, 122.43359375 -73 M-122.43359375 -73 C-52.31840292101943 -73, 17.796787907961146 -73, 122.43359375 -73 M122.43359375 -73 C122.43359375 -33.22526118911013, 122.43359375 6.549477621779744, 122.43359375 73 M122.43359375 -73 C122.43359375 -33.92924520982457, 122.43359375 5.141509580350856, 122.43359375 73 M122.43359375 73 C70.50553602546847 73, 18.577478300936946 73, -122.43359375 73 M122.43359375 73 C48.84707042528112 73, -24.739452899437765 73, -122.43359375 73 M-122.43359375 73 C-122.43359375 24.016172943872533, -122.43359375 -24.967654112254934, -122.43359375 -73 M-122.43359375 73 C-122.43359375 32.37754835853574, -122.43359375 -8.244903282928519, -122.43359375 -73" stroke="#9370DB" stroke-width="1.3" fill="none" stroke-dasharray="0 0"/></g><g style="" class="row-rect-odd"><path d="M-122.43359375 -37.25 L122.43359375 -37.25 L122.43359375 -0.5 L-122.43359375 -0.5" stroke="none" stroke-width="0" fill="hsl(240, 100%, 100%)"/><path d="M-122.43359375 -37.25 C-69.8584296483127 -37.25, -17.283265546625373 -37.25, 122.43359375 -37.25 M-122.43359375 -37.25 C-49.903318379873795 -37.25, 22.62695699025241 -37.25, 122.43359375 -37.25 M122.43359375 -37.25 C122.43359375 -28.80560050325761, 122.43359375 -20.361201006515223, 122.43359375 -0.5 M122.43359375 -37.25 C122.43359375 -25.162198936985426, 122.43359375 -13.074397873970856, 122.43359375 -0.5 M122.43359375 -0.5 C44.94799430233249 -0.5, -32.53760514533502 -0.5, -122.43359375 -0.5 M122.43359375 -0.5 C56.32369784567132 -0.5, -9.786198058657362 -0.5, -122.43359375 -0.5 M-122.43359375 -0.5 C-122.43359375 -10.060499718924428, -122.43359375 -19.620999437848855, -122.43359375 -37.25 M-122.43359375 -0.5 C-122.43359375 -14.8381974929747, -122.43359375 -29.1763949859494, -122.43359375 -37.25" stroke="#9370DB" stroke-width="1.3" fill="none" stroke-dasharray="0 0"/></g><g style="" class="row-rect-even"><path d="M-122.43359375 -0.5 L122.43359375 -0.5 L122.43359375 36.25 L-122.43359375 36.25" stroke="none" stroke-width="0" fill="hsl(240, 100%, 97.2745098039%)"/><path d="M-122.43359375 -0.5 C-26.683766354043186 -0.5, 69.06606104191363 -0.5, 122.43359375 -0.5 M-122.43359375 -0.5 C-26.499941737506816 -0.5, 69.43371027498637 -0.5, 122.43359375 -0.5 M122.43359375 -0.5 C122.43359375 9.522665169159026, 122.43359375 19.545330338318053, 122.43359375 36.25 M122.43359375 -0.5 C122.43359375 9.720020572322403, 122.43359375 19.940041144644805, 122.43359375 36.25 M122.43359375 36.25 C65.49990258786445 36.25, 8.566211425728895 36.25, -122.43359375 36.25 M122.43359375 36.25 C56.048689553592155 36.25, -10.33621464281569 36.25, -122.43359375 36.25 M-122.43359375 36.25 C-122.43359375 22.514827695544383, -122.43359375 8.77965539108877, -122.43359375 -0.5 M-122.43359375 36.25 C-122.43359375 22.58677775786454, -122.43359375 8.923555515729074, -122.43359375 -0.5" stroke="#9370DB" stroke-width="1.3" fill="none" stroke-dasharray="0 0"/></g><g style="" class="row-rect-odd"><path d="M-122.43359375 36.25 L122.43359375 36.25 L122.43359375 73 L-122.43359375 73" stroke="none" stroke-width="0" fill="hsl(240, 100%, 100%)"/><path d="M-122.43359375 36.25 C-73.24690733388906 36.25, -24.06022091777811 36.25, 122.43359375 36.25 M-122.43359375 36.25 C-25.122370477785708 36.25, 72.18885279442858 36.25, 122.43359375 36.25 M122.43359375 36.25 C122.43359375 44.484673570460245, 122.43359375 52.71934714092048, 122.43359375 73 M122.43359375 36.25 C122.43359375 46.126036464337226, 122.43359375 56.00207292867445, 122.43359375 73 M122.43359375 73 C67.95200060775272 73, 13.470407465505446 73, -122.43359375 73 M122.43359375 73 C32.008080562882455 73, -58.41743262423509 73, -122.43359375 73 M-122.43359375 73 C-122.43359375 64.01665954067056, -122.43359375 55.033319081341105, -122.43359375 36.25 M-122.43359375 73 C-122.43359375 63.625155918734855, -122.43359375 54.25031183746971, -122.43359375 36.25" stroke="#9370DB" stroke-width="1.3" fill="none" stroke-dasharray="0 0"/></g><g class="label name" transform="translate(-56.07421875, -63.625)" style=""><g><rect class="background" style="stroke: none"/></g><text y="-10.1" style=""><tspan class="text-outer-tspan row" x="0" y="-0.1em" dy="1.1em"><tspan font-style="normal" class="text-inner-tspan" font-weight="normal">lc.ProformaLine</tspan></tspan></text></g><g class="label attribute-type" transform="translate(-109.93359375, -27.875)" style=""><g><rect class="background" style="stroke: none"/></g><text y="-10.1" style=""><tspan class="text-outer-tspan row" x="0" y="-0.1em" dy="1.1em"><tspan font-style="normal" class="text-inner-tspan" font-weight="normal">bigint</tspan></tspan></text></g><g class="label attribute-name" transform="translate(-46.12890625, -27.875)" style=""><g><rect class="background" style="stroke: none"/></g><text y="-10.1" style=""><tspan class="text-outer-tspan row" x="0" y="-0.1em" dy="1.1em"><tspan font-style="normal" class="text-inner-tspan" font-weight="normal">ProformaLineId</tspan></tspan></text></g><g class="label attribute-keys" transform="translate(88.26171875, -27.875)" style=""><g><rect class="background" style="stroke: none"/></g><text y="-10.1" style=""><tspan class="text-outer-tspan row" x="0" y="-0.1em" dy="1.1em"><tspan font-style="normal" class="text-inner-tspan" font-weight="normal">PK</tspan></tspan></text></g><g class="label attribute-comment" transform="translate(134.93359375, -27.875)" style=""><g><rect class="background" style="stroke: none"/></g><text y="-10.1" style=""><tspan class="text-outer-tspan row" x="0" y="-0.1em" dy="1.1em"/></text></g><g class="label attribute-type" transform="translate(-109.93359375, 8.875)" style=""><g><rect class="background" style="stroke: none"/></g><text y="-10.1" style=""><tspan class="text-outer-tspan row" x="0" y="-0.1em" dy="1.1em"><tspan font-style="normal" class="text-inner-tspan" font-weight="normal">bigint</tspan></tspan></text></g><g class="label attribute-name" transform="translate(-46.12890625, 8.875)" style=""><g><rect class="background" style="stroke: none"/></g><text y="-10.1" style=""><tspan class="text-outer-tspan row" x="0" y="-0.1em" dy="1.1em"><tspan font-style="normal" class="text-inner-tspan" font-weight="normal">ProformaId</tspan></tspan></text></g><g class="label attribute-keys" transform="translate(88.26171875, 8.875)" style=""><g><rect class="background" style="stroke: none"/></g><text y="-10.1" style=""><tspan class="text-outer-tspan row" x="0" y="-0.1em" dy="1.1em"><tspan font-style="normal" class="text-inner-tspan" font-weight="normal">FK</tspan></tspan></text></g><g class="label attribute-comment" transform="translate(134.93359375, 8.875)" style=""><g><rect class="background" style="stroke: none"/></g><text y="-10.1" style=""><tspan class="text-outer-tspan row" x="0" y="-0.1em" dy="1.1em"/></text></g><g class="label attribute-type" transform="translate(-109.93359375, 45.625)" style=""><g><rect class="background" style="stroke: none"/></g><text y="-10.1" style=""><tspan class="text-outer-tspan row" x="0" y="-0.1em" dy="1.1em"><tspan font-style="normal" class="text-inner-tspan" font-weight="normal">int</tspan></tspan></text></g><g class="label attribute-name" transform="translate(-46.12890625, 45.625)" style=""><g><rect class="background" style="stroke: none"/></g><text y="-10.1" style=""><tspan class="text-outer-tspan row" x="0" y="-0.1em" dy="1.1em"><tspan font-style="normal" class="text-inner-tspan" font-weight="normal">CurrencyId</tspan></tspan></text></g><g class="label attribute-keys" transform="translate(88.26171875, 45.625)" style=""><g><rect class="background" style="stroke: none"/></g><text y="-10.1" style=""><tspan class="text-outer-tspan row" x="0" y="-0.1em" dy="1.1em"><tspan font-style="normal" class="text-inner-tspan" font-weight="normal">FK</tspan></tspan></text></g><g class="label attribute-comment" transform="translate(134.93359375, 45.625)" style=""><g><rect class="background" style="stroke: none"/></g><text y="-10.1" style=""><tspan class="text-outer-tspan row" x="0" y="-0.1em" dy="1.1em"/></text></g><g class="divider"><path d="M-122.43359375 -37.25005 L-122.43359375 -37.24995 L122.43359375 -37.24995 L122.43359375 -37.25005" stroke="none" stroke-width="0" fill="#ECECFF" fill-rule="evenodd"/><path d="M-122.43359375 -37.25005 C-122.43359375 -37.2500223675509, -122.43359375 -37.24999473510179, -122.43359375 -37.24995 M-122.43359375 -37.25005 C-122.43359375 -37.250026728946494, -122.43359375 -37.25000345789299, -122.43359375 -37.24995 M-122.43359375 -37.24995 C-49.025428672994494 -37.24995, 24.382736404011013 -37.24995, 122.43359375 -37.24995 M-122.43359375 -37.24995 C-38.78475294829617 -37.24995, 44.86408785340765 -37.24995, 122.43359375 -37.24995 M122.43359375 -37.24995 C122.43359375 -37.24998869985548, 122.43359375 -37.25002739971096, 122.43359375 -37.25005 M122.43359375 -37.24995 C122.43359375 -37.249981493611024, 122.43359375 -37.25001298722205, 122.43359375 -37.25005 M122.43359375 -37.25005 C42.46040456005409 -37.25005, -37.512784629891826 -37.25005, -122.43359375 -37.25005 M122.43359375 -37.25005 C58.86991451431404 -37.25005, -4.69376472137192 -37.25005, -122.43359375 -37.25005" stroke="#9370DB" stroke-width="1.3" fill="none" stroke-dasharray="0 0"/></g><g class="divider"><path d="M-58.62895625 -37.25 L-58.62885625 -37.25 L-58.62885625 73 L-58.62895625 73" stroke="none" stroke-width="0" fill="#ECECFF" fill-rule="evenodd"/><path d="M-58.62895625 -37.25 C-58.628922295976025 -37.25, -58.62888834195204 -37.25, -58.62885625 -37.25 M-58.62895625 -37.25 C-58.62893167737648 -37.25, -58.628907104752955 -37.25, -58.62885625 -37.25 M-58.62885625 -37.25 C-58.62885625 0.9266814346173078, -58.62885625 39.103362869234616, -58.62885625 73 M-58.62885625 -37.25 C-58.62885625 -14.071064019435067, -58.62885625 9.107871961129867, -58.62885625 73 M-58.62885625 73 C-58.628892386919325 73, -58.62892852383865 73, -58.62895625 73 M-58.62885625 73 C-58.628881754719394 73, -58.62890725943879 73, -58.62895625 73 M-58.62895625 73 C-58.62895625 42.83503393345828, -58.62895625 12.670067866916561, -58.62895625 -37.25 M-58.62895625 73 C-58.62895625 33.65182339066783, -58.62895625 -5.696353218664342, -58.62895625 -37.25" stroke="#9370DB" stroke-width="1.3" fill="none" stroke-dasharray="0 0"/></g><g class="divider"><path d="M75.76166875 -37.25 L75.76176875 -37.25 L75.76176875 73 L75.76166875 73" stroke="none" stroke-width="0" fill="#ECECFF" fill-rule="evenodd"/><path d="M75.76166875 -37.25 C75.76169444561819 -37.25, 75.76172014123638 -37.25, 75.76176875 -37.25 M75.76166875 -37.25 C75.76170243623812 -37.25, 75.76173612247626 -37.25, 75.76176875 -37.25 M75.76176875 -37.25 C75.76176875 -6.63495814523888, 75.76176875 23.98008370952224, 75.76176875 73 M75.76176875 -37.25 C75.76176875 4.721112975793567, 75.76176875 46.69222595158713, 75.76176875 73 M75.76176875 73 C75.76174720463376 73, 75.76172565926753 73, 75.76166875 73 M75.76176875 73 C75.76174752498888 73, 75.76172629997775 73, 75.76166875 73 M75.76166875 73 C75.76166875 39.81928756518131, 75.76166875 6.638575130362625, 75.76166875 -37.25 M75.76166875 73 C75.76166875 31.97503361084209, 75.76166875 -9.04993277831582, 75.76166875 -37.25" stroke="#9370DB" stroke-width="1.3" fill="none" stroke-dasharray="0 0"/></g><g class="divider"><path d="M-122.43359375 -37.25005 L-122.43359375 -37.24995 L122.43359375 -37.24995 L122.43359375 -37.25005" stroke="none" stroke-width="0" fill="#ECECFF" fill-rule="evenodd"/><path d="M-122.43359375 -37.25005 C-122.43359375 -37.250025671742065, -122.43359375 -37.250001343484136, -122.43359375 -37.24995 M-122.43359375 -37.25005 C-122.43359375 -37.250014789779165, -122.43359375 -37.24997957955833, -122.43359375 -37.24995 M-122.43359375 -37.24995 C-31.65950122364613 -37.24995, 59.11459130270774 -37.24995, 122.43359375 -37.24995 M-122.43359375 -37.24995 C-56.02041772203286 -37.24995, 10.39275830593428 -37.24995, 122.43359375 -37.24995 M122.43359375 -37.24995 C122.43359375 -37.249984822988935, 122.43359375 -37.25001964597788, 122.43359375 -37.25005 M122.43359375 -37.24995 C122.43359375 -37.2499835789838, 122.43359375 -37.25001715796761, 122.43359375 -37.25005 M122.43359375 -37.25005 C65.95705572868238 -37.25005, 9.480517707364754 -37.25005, -122.43359375 -37.25005 M122.43359375 -37.25005 C38.96462034820297 -37.25005, -44.50435305359406 -37.25005, -122.43359375 -37.25005" stroke="#9370DB" stroke-width="1.3" fill="none" stroke-dasharray="0 0"/></g></g><g class="node default" id="my-svg-entity-lc_LcTermsComparison-1" data-look="classic" transform="translate(559.38671875, 99.875)"><g class="outer-path" style=""><path d="M-147.76953125 -91.875 L147.76953125 -91.875 L147.76953125 91.875 L-147.76953125 91.875" stroke="none" stroke-width="0" fill="#ECECFF"/><path d="M-147.76953125 -91.875 C-58.81385346968733 -91.875, 30.14182431062534 -91.875, 147.76953125 -91.875 M-147.76953125 -91.875 C-77.79667495700076 -91.875, -7.8238186640015215 -91.875, 147.76953125 -91.875 M147.76953125 -91.875 C147.76953125 -18.974160822856476, 147.76953125 53.92667835428705, 147.76953125 91.875 M147.76953125 -91.875 C147.76953125 -37.61405663697771, 147.76953125 16.646886726044585, 147.76953125 91.875 M147.76953125 91.875 C48.43636668281613 91.875, -50.89679788436774 91.875, -147.76953125 91.875 M147.76953125 91.875 C36.43998001453963 91.875, -74.88957122092074 91.875, -147.76953125 91.875 M-147.76953125 91.875 C-147.76953125 33.88327422106453, -147.76953125 -24.108451557870936, -147.76953125 -91.875 M-147.76953125 91.875 C-147.76953125 41.622994380194605, -147.76953125 -8.62901123961079, -147.76953125 -91.875" stroke="#9370DB" stroke-width="1.3" fill="none" stroke-dasharray="0 0"/></g><g style="" class="row-rect-odd"><path d="M-147.76953125 -55.125 L147.76953125 -55.125 L147.76953125 -18.375 L-147.76953125 -18.375" stroke="none" stroke-width="0" fill="hsl(240, 100%, 100%)"/><path d="M-147.76953125 -55.125 C-86.03054443806246 -55.125, -24.29155762612494 -55.125, 147.76953125 -55.125 M-147.76953125 -55.125 C-43.42380433258107 -55.125, 60.92192258483786 -55.125, 147.76953125 -55.125 M147.76953125 -55.125 C147.76953125 -42.26345042861657, 147.76953125 -29.401900857233144, 147.76953125 -18.375 M147.76953125 -55.125 C147.76953125 -43.70554746429292, 147.76953125 -32.28609492858585, 147.76953125 -18.375 M147.76953125 -18.375 C67.80129631059462 -18.375, -12.166938628810755 -18.375, -147.76953125 -18.375 M147.76953125 -18.375 C82.11372688546055 -18.375, 16.4579225209211 -18.375, -147.76953125 -18.375 M-147.76953125 -18.375 C-147.76953125 -30.63349276250392, -147.76953125 -42.89198552500784, -147.76953125 -55.125 M-147.76953125 -18.375 C-147.76953125 -26.483372197851722, -147.76953125 -34.591744395703444, -147.76953125 -55.125" stroke="#9370DB" stroke-width="1.3" fill="none" stroke-dasharray="0 0"/></g><g style="" class="row-rect-even"><path d="M-147.76953125 -18.375 L147.76953125 -18.375 L147.76953125 18.375 L-147.76953125 18.375" stroke="none" stroke-width="0" fill="hsl(240, 100%, 97.2745098039%)"/><path d="M-147.76953125 -18.375 C-51.03595477299294 -18.375, 45.697621704014125 -18.375, 147.76953125 -18.375 M-147.76953125 -18.375 C-74.81736888153667 -18.375, -1.865206513073332 -18.375, 147.76953125 -18.375 M147.76953125 -18.375 C147.76953125 -7.991257597855094, 147.76953125 2.3924848042898113, 147.76953125 18.375 M147.76953125 -18.375 C147.76953125 -10.904955336875949, 147.76953125 -3.4349106737518973, 147.76953125 18.375 M147.76953125 18.375 C32.93316703794764 18.375, -81.90319717410472 18.375, -147.76953125 18.375 M147.76953125 18.375 C62.81917416305549 18.375, -22.131182923889014 18.375, -147.76953125 18.375 M-147.76953125 18.375 C-147.76953125 7.604141698968158, -147.76953125 -3.1667166020636834, -147.76953125 -18.375 M-147.76953125 18.375 C-147.76953125 6.366829862504529, -147.76953125 -5.641340274990942, -147.76953125 -18.375" stroke="#9370DB" stroke-width="1.3" fill="none" stroke-dasharray="0 0"/></g><g style="" class="row-rect-odd"><path d="M-147.76953125 18.375 L147.76953125 18.375 L147.76953125 55.125 L-147.76953125 55.125" stroke="none" stroke-width="0" fill="hsl(240, 100%, 100%)"/><path d="M-147.76953125 18.375 C-79.63679805149835 18.375, -11.504064852996692 18.375, 147.76953125 18.375 M-147.76953125 18.375 C-35.86784562628624 18.375, 76.03383999742752 18.375, 147.76953125 18.375 M147.76953125 18.375 C147.76953125 32.36555161905865, 147.76953125 46.35610323811729, 147.76953125 55.125 M147.76953125 18.375 C147.76953125 29.88968207544451, 147.76953125 41.40436415088902, 147.76953125 55.125 M147.76953125 55.125 C57.662426106146924 55.125, -32.44467903770615 55.125, -147.76953125 55.125 M147.76953125 55.125 C42.73950751008651 55.125, -62.29051622982698 55.125, -147.76953125 55.125 M-147.76953125 55.125 C-147.76953125 46.730221448895435, -147.76953125 38.33544289779087, -147.76953125 18.375 M-147.76953125 55.125 C-147.76953125 40.53439042949012, -147.76953125 25.943780858980233, -147.76953125 18.375" stroke="#9370DB" stroke-width="1.3" fill="none" stroke-dasharray="0 0"/></g><g style="" class="row-rect-even"><path d="M-147.76953125 55.125 L147.76953125 55.125 L147.76953125 91.875 L-147.76953125 91.875" stroke="none" stroke-width="0" fill="hsl(240, 100%, 97.2745098039%)"/><path d="M-147.76953125 55.125 C-69.34663762848949 55.125, 9.076255993021022 55.125, 147.76953125 55.125 M-147.76953125 55.125 C-58.733626579397665 55.125, 30.30227809120467 55.125, 147.76953125 55.125 M147.76953125 55.125 C147.76953125 68.48192748835564, 147.76953125 81.83885497671126, 147.76953125 91.875 M147.76953125 55.125 C147.76953125 66.39178740929137, 147.76953125 77.65857481858272, 147.76953125 91.875 M147.76953125 91.875 C74.5758444407604 91.875, 1.382157631520812 91.875, -147.76953125 91.875 M147.76953125 91.875 C84.48347866867547 91.875, 21.197426087350962 91.875, -147.76953125 91.875 M-147.76953125 91.875 C-147.76953125 80.00532660778777, -147.76953125 68.13565321557553, -147.76953125 55.125 M-147.76953125 91.875 C-147.76953125 81.2857446017783, -147.76953125 70.69648920355661, -147.76953125 55.125" stroke="#9370DB" stroke-width="1.3" fill="none" stroke-dasharray="0 0"/></g><g class="label name" transform="translate(-81.359375, -82.5)" style=""><g><rect class="background" style="stroke: none"/></g><text y="-10.1" style=""><tspan class="text-outer-tspan row" x="0" y="-0.1em" dy="1.1em"><tspan font-style="normal" class="text-inner-tspan" font-weight="normal">lc.LcTermsComparison</tspan></tspan></text></g><g class="label attribute-type" transform="translate(-135.26953125, -45.75)" style=""><g><rect class="background" style="stroke: none"/></g><text y="-10.1" style=""><tspan class="text-outer-tspan row" x="0" y="-0.1em" dy="1.1em"><tspan font-style="normal" class="text-inner-tspan" font-weight="normal">bigint</tspan></tspan></text></g><g class="label attribute-name" transform="translate(-71.46484375, -45.75)" style=""><g><rect class="background" style="stroke: none"/></g><text y="-10.1" style=""><tspan class="text-outer-tspan row" x="0" y="-0.1em" dy="1.1em"><tspan font-style="normal" class="text-inner-tspan" font-weight="normal">LcTermsComparisonId</tspan></tspan></text></g><g class="label attribute-keys" transform="translate(113.59765625, -45.75)" style=""><g><rect class="background" style="stroke: none"/></g><text y="-10.1" style=""><tspan class="text-outer-tspan row" x="0" y="-0.1em" dy="1.1em"><tspan font-style="normal" class="text-inner-tspan" font-weight="normal">PK</tspan></tspan></text></g><g class="label attribute-comment" transform="translate(160.26953125, -45.75)" style=""><g><rect class="background" style="stroke: none"/></g><text y="-10.1" style=""><tspan class="text-outer-tspan row" x="0" y="-0.1em" dy="1.1em"/></text></g><g class="label attribute-type" transform="translate(-135.26953125, -9)" style=""><g><rect class="background" style="stroke: none"/></g><text y="-10.1" style=""><tspan class="text-outer-tspan row" x="0" y="-0.1em" dy="1.1em"><tspan font-style="normal" class="text-inner-tspan" font-weight="normal">bigint</tspan></tspan></text></g><g class="label attribute-name" transform="translate(-71.46484375, -9)" style=""><g><rect class="background" style="stroke: none"/></g><text y="-10.1" style=""><tspan class="text-outer-tspan row" x="0" y="-0.1em" dy="1.1em"><tspan font-style="normal" class="text-inner-tspan" font-weight="normal">BaselineTermsId</tspan></tspan></text></g><g class="label attribute-keys" transform="translate(113.59765625, -9)" style=""><g><rect class="background" style="stroke: none"/></g><text y="-10.1" style=""><tspan class="text-outer-tspan row" x="0" y="-0.1em" dy="1.1em"><tspan font-style="normal" class="text-inner-tspan" font-weight="normal">FK</tspan></tspan></text></g><g class="label attribute-comment" transform="translate(160.26953125, -9)" style=""><g><rect class="background" style="stroke: none"/></g><text y="-10.1" style=""><tspan class="text-outer-tspan row" x="0" y="-0.1em" dy="1.1em"/></text></g><g class="label attribute-type" transform="translate(-135.26953125, 27.75)" style=""><g><rect class="background" style="stroke: none"/></g><text y="-10.1" style=""><tspan class="text-outer-tspan row" x="0" y="-0.1em" dy="1.1em"><tspan font-style="normal" class="text-inner-tspan" font-weight="normal">bigint</tspan></tspan></text></g><g class="label attribute-name" transform="translate(-71.46484375, 27.75)" style=""><g><rect class="background" style="stroke: none"/></g><text y="-10.1" style=""><tspan class="text-outer-tspan row" x="0" y="-0.1em" dy="1.1em"><tspan font-style="normal" class="text-inner-tspan" font-weight="normal">ReceivedTermsId</tspan></tspan></text></g><g class="label attribute-keys" transform="translate(113.59765625, 27.75)" style=""><g><rect class="background" style="stroke: none"/></g><text y="-10.1" style=""><tspan class="text-outer-tspan row" x="0" y="-0.1em" dy="1.1em"><tspan font-style="normal" class="text-inner-tspan" font-weight="normal">FK</tspan></tspan></text></g><g class="label attribute-comment" transform="translate(160.26953125, 27.75)" style=""><g><rect class="background" style="stroke: none"/></g><text y="-10.1" style=""><tspan class="text-outer-tspan row" x="0" y="-0.1em" dy="1.1em"/></text></g><g class="label attribute-type" transform="translate(-135.26953125, 64.5)" style=""><g><rect class="background" style="stroke: none"/></g><text y="-10.1" style=""><tspan class="text-outer-tspan row" x="0" y="-0.1em" dy="1.1em"><tspan font-style="normal" class="text-inner-tspan" font-weight="normal">bigint</tspan></tspan></text></g><g class="label attribute-name" transform="translate(-71.46484375, 64.5)" style=""><g><rect class="background" style="stroke: none"/></g><text y="-10.1" style=""><tspan class="text-outer-tspan row" x="0" y="-0.1em" dy="1.1em"><tspan font-style="normal" class="text-inner-tspan" font-weight="normal">RunBy</tspan></tspan></text></g><g class="label attribute-keys" transform="translate(113.59765625, 64.5)" style=""><g><rect class="background" style="stroke: none"/></g><text y="-10.1" style=""><tspan class="text-outer-tspan row" x="0" y="-0.1em" dy="1.1em"><tspan font-style="normal" class="text-inner-tspan" font-weight="normal">FK</tspan></tspan></text></g><g class="label attribute-comment" transform="translate(160.26953125, 64.5)" style=""><g><rect class="background" style="stroke: none"/></g><text y="-10.1" style=""><tspan class="text-outer-tspan row" x="0" y="-0.1em" dy="1.1em"/></text></g><g class="divider"><path d="M-147.76953125 -55.12505 L-147.76953125 -55.12495 L147.76953125 -55.12495 L147.76953125 -55.12505" stroke="none" stroke-width="0" fill="#ECECFF" fill-rule="evenodd"/><path d="M-147.76953125 -55.12505 C-147.76953125 -55.12502604152244, -147.76953125 -55.12500208304488, -147.76953125 -55.12495 M-147.76953125 -55.12505 C-147.76953125 -55.125023362481976, -147.76953125 -55.12499672496395, -147.76953125 -55.12495 M-147.76953125 -55.12495 C-60.33831181096228 -55.12495, 27.092907628075437 -55.12495, 147.76953125 -55.12495 M-147.76953125 -55.12495 C-70.9727387570757 -55.12495, 5.824053735848594 -55.12495, 147.76953125 -55.12495 M147.76953125 -55.12495 C147.76953125 -55.124984215054276, 147.76953125 -55.125018430108554, 147.76953125 -55.12505 M147.76953125 -55.12495 C147.76953125 -55.124983354352175, 147.76953125 -55.12501670870435, 147.76953125 -55.12505 M147.76953125 -55.12505 C40.252416565618816 -55.12505, -67.26469811876237 -55.12505, -147.76953125 -55.12505 M147.76953125 -55.12505 C87.35323273788299 -55.12505, 26.936934225765995 -55.12505, -147.76953125 -55.12505" stroke="#9370DB" stroke-width="1.3" fill="none" stroke-dasharray="0 0"/></g><g class="divider"><path d="M-83.96489375 -55.125 L-83.96479375 -55.125 L-83.96479375 91.875 L-83.96489375 91.875" stroke="none" stroke-width="0" fill="#ECECFF" fill-rule="evenodd"/><path d="M-83.96489375 -55.125 C-83.96485506832876 -55.125, -83.96481638665753 -55.125, -83.96479375 -55.125 M-83.96489375 -55.125 C-83.96486865268359 -55.125, -83.96484355536718 -55.125, -83.96479375 -55.125 M-83.96479375 -55.125 C-83.96479375 -12.133578230613793, -83.96479375 30.857843538772414, -83.96479375 91.875 M-83.96479375 -55.125 C-83.96479375 1.4925717504030516, -83.96479375 58.1101435008061, -83.96479375 91.875 M-83.96479375 91.875 C-83.96483369411796 91.875, -83.96487363823593 91.875, -83.96489375 91.875 M-83.96479375 91.875 C-83.96482935762066 91.875, -83.96486496524132 91.875, -83.96489375 91.875 M-83.96489375 91.875 C-83.96489375 43.131158752486066, -83.96489375 -5.612682495027869, -83.96489375 -55.125 M-83.96489375 91.875 C-83.96489375 60.10627886077962, -83.96489375 28.337557721559236, -83.96489375 -55.125" stroke="#9370DB" stroke-width="1.3" fill="none" stroke-dasharray="0 0"/></g><g class="divider"><path d="M101.09760625 -55.125 L101.09770625 -55.125 L101.09770625 91.875 L101.09760625 91.875" stroke="none" stroke-width="0" fill="#ECECFF" fill-rule="evenodd"/><path d="M101.09760625 -55.125 C101.09763767527359 -55.125, 101.0976691005472 -55.125, 101.09770625 -55.125 M101.09760625 -55.125 C101.09762940007569 -55.125, 101.09765255015138 -55.125, 101.09770625 -55.125 M101.09770625 -55.125 C101.09770625 -3.4581668066548445, 101.09770625 48.20866638669031, 101.09770625 91.875 M101.09770625 -55.125 C101.09770625 -5.123733070834241, 101.09770625 44.87753385833152, 101.09770625 91.875 M101.09770625 91.875 C101.09768333404931 91.875, 101.09766041809861 91.875, 101.09760625 91.875 M101.09770625 91.875 C101.09767844367336 91.875, 101.09765063734672 91.875, 101.09760625 91.875 M101.09760625 91.875 C101.09760625 48.189606035926495, 101.09760625 4.50421207185299, 101.09760625 -55.125 M101.09760625 91.875 C101.09760625 47.953897817391514, 101.09760625 4.032795634783028, 101.09760625 -55.125" stroke="#9370DB" stroke-width="1.3" fill="none" stroke-dasharray="0 0"/></g><g class="divider"><path d="M-147.76953125 -55.12505 L-147.76953125 -55.12495 L147.76953125 -55.12495 L147.76953125 -55.12505" stroke="none" stroke-width="0" fill="#ECECFF" fill-rule="evenodd"/><path d="M-147.76953125 -55.12505 C-147.76953125 -55.12501603117323, -147.76953125 -55.12498206234646, -147.76953125 -55.12495 M-147.76953125 -55.12505 C-147.76953125 -55.125011755841136, -147.76953125 -55.12497351168227, -147.76953125 -55.12495 M-147.76953125 -55.12495 C-44.722066995727474 -55.12495, 58.32539725854505 -55.12495, 147.76953125 -55.12495 M-147.76953125 -55.12495 C-84.71820612571382 -55.12495, -21.66688100142764 -55.12495, 147.76953125 -55.12495 M147.76953125 -55.12495 C147.76953125 -55.12498103193854, 147.76953125 -55.12501206387708, 147.76953125 -55.12505 M147.76953125 -55.12495 C147.76953125 -55.12498192949765, 147.76953125 -55.1250138589953, 147.76953125 -55.12505 M147.76953125 -55.12505 C58.280036160352324 -55.12505, -31.20945892929535 -55.12505, -147.76953125 -55.12505 M147.76953125 -55.12505 C62.66576633816396 -55.12505, -22.437998573672076 -55.12505, -147.76953125 -55.12505" stroke="#9370DB" stroke-width="1.3" fill="none" stroke-dasharray="0 0"/></g></g><g class="node default" id="my-svg-entity-lc_LcTermsComparisonLine-2" data-look="classic" transform="translate(559.38671875, 348.875)"><g class="outer-path" style=""><path d="M-162.89453125 -55.125 L162.89453125 -55.125 L162.89453125 55.125 L-162.89453125 55.125" stroke="none" stroke-width="0" fill="#ECECFF"/><path d="M-162.89453125 -55.125 C-91.41232484120673 -55.125, -19.93011843241345 -55.125, 162.89453125 -55.125 M-162.89453125 -55.125 C-53.09950830530815 -55.125, 56.6955146393837 -55.125, 162.89453125 -55.125 M162.89453125 -55.125 C162.89453125 -13.032502062108598, 162.89453125 29.059995875782803, 162.89453125 55.125 M162.89453125 -55.125 C162.89453125 -19.059632597080785, 162.89453125 17.00573480583843, 162.89453125 55.125 M162.89453125 55.125 C67.65778738639176 55.125, -27.57895647721648 55.125, -162.89453125 55.125 M162.89453125 55.125 C63.064195752075705 55.125, -36.76613974584859 55.125, -162.89453125 55.125 M-162.89453125 55.125 C-162.89453125 28.29023598680634, -162.89453125 1.4554719736126813, -162.89453125 -55.125 M-162.89453125 55.125 C-162.89453125 30.29648970853123, -162.89453125 5.467979417062459, -162.89453125 -55.125" stroke="#9370DB" stroke-width="1.3" fill="none" stroke-dasharray="0 0"/></g><g style="" class="row-rect-odd"><path d="M-162.89453125 -18.375 L162.89453125 -18.375 L162.89453125 18.375 L-162.89453125 18.375" stroke="none" stroke-width="0" fill="hsl(240, 100%, 100%)"/><path d="M-162.89453125 -18.375 C-77.86212737437745 -18.375, 7.170276501245098 -18.375, 162.89453125 -18.375 M-162.89453125 -18.375 C-58.46697041425281 -18.375, 45.96059042149437 -18.375, 162.89453125 -18.375 M162.89453125 -18.375 C162.89453125 -10.038527426179586, 162.89453125 -1.702054852359172, 162.89453125 18.375 M162.89453125 -18.375 C162.89453125 -4.301519144394611, 162.89453125 9.771961711210778, 162.89453125 18.375 M162.89453125 18.375 C68.73202585720591 18.375, -25.430479535588177 18.375, -162.89453125 18.375 M162.89453125 18.375 C37.644988883889766 18.375, -87.60455348222047 18.375, -162.89453125 18.375 M-162.89453125 18.375 C-162.89453125 7.83366911221699, -162.89453125 -2.70766177556602, -162.89453125 -18.375 M-162.89453125 18.375 C-162.89453125 6.731246060984443, -162.89453125 -4.912507878031114, -162.89453125 -18.375" stroke="#9370DB" stroke-width="1.3" fill="none" stroke-dasharray="0 0"/></g><g style="" class="row-rect-even"><path d="M-162.89453125 18.375 L162.89453125 18.375 L162.89453125 55.125 L-162.89453125 55.125" stroke="none" stroke-width="0" fill="hsl(240, 100%, 97.2745098039%)"/><path d="M-162.89453125 18.375 C-70.93749858305814 18.375, 21.019534083883713 18.375, 162.89453125 18.375 M-162.89453125 18.375 C-52.95448791089481 18.375, 56.985555428210375 18.375, 162.89453125 18.375 M162.89453125 18.375 C162.89453125 29.948139506539455, 162.89453125 41.52127901307891, 162.89453125 55.125 M162.89453125 18.375 C162.89453125 31.937700833845838, 162.89453125 45.500401667691676, 162.89453125 55.125 M162.89453125 55.125 C92.75854894035304 55.125, 22.622566630706075 55.125, -162.89453125 55.125 M162.89453125 55.125 C67.55915962932733 55.125, -27.77621199134535 55.125, -162.89453125 55.125 M-162.89453125 55.125 C-162.89453125 42.96527660886849, -162.89453125 30.80555321773699, -162.89453125 18.375 M-162.89453125 55.125 C-162.89453125 41.19326120663361, -162.89453125 27.261522413267222, -162.89453125 18.375" stroke="#9370DB" stroke-width="1.3" fill="none" stroke-dasharray="0 0"/></g><g class="label name" transform="translate(-96.53125, -45.75)" style=""><g><rect class="background" style="stroke: none"/></g><text y="-10.1" style=""><tspan class="text-outer-tspan row" x="0" y="-0.1em" dy="1.1em"><tspan font-style="normal" class="text-inner-tspan" font-weight="normal">lc.LcTermsComparisonLine</tspan></tspan></text></g><g class="label attribute-type" transform="translate(-150.39453125, -9)" style=""><g><rect class="background" style="stroke: none"/></g><text y="-10.1" style=""><tspan class="text-outer-tspan row" x="0" y="-0.1em" dy="1.1em"><tspan font-style="normal" class="text-inner-tspan" font-weight="normal">bigint</tspan></tspan></text></g><g class="label attribute-name" transform="translate(-86.58984375, -9)" style=""><g><rect class="background" style="stroke: none"/></g><text y="-10.1" style=""><tspan class="text-outer-tspan row" x="0" y="-0.1em" dy="1.1em"><tspan font-style="normal" class="text-inner-tspan" font-weight="normal">LcTermsComparisonLineId</tspan></tspan></text></g><g class="label attribute-keys" transform="translate(128.72265625, -9)" style=""><g><rect class="background" style="stroke: none"/></g><text y="-10.1" style=""><tspan class="text-outer-tspan row" x="0" y="-0.1em" dy="1.1em"><tspan font-style="normal" class="text-inner-tspan" font-weight="normal">PK</tspan></tspan></text></g><g class="label attribute-comment" transform="translate(175.39453125, -9)" style=""><g><rect class="background" style="stroke: none"/></g><text y="-10.1" style=""><tspan class="text-outer-tspan row" x="0" y="-0.1em" dy="1.1em"/></text></g><g class="label attribute-type" transform="translate(-150.39453125, 27.75)" style=""><g><rect class="background" style="stroke: none"/></g><text y="-10.1" style=""><tspan class="text-outer-tspan row" x="0" y="-0.1em" dy="1.1em"><tspan font-style="normal" class="text-inner-tspan" font-weight="normal">bigint</tspan></tspan></text></g><g class="label attribute-name" transform="translate(-86.58984375, 27.75)" style=""><g><rect class="background" style="stroke: none"/></g><text y="-10.1" style=""><tspan class="text-outer-tspan row" x="0" y="-0.1em" dy="1.1em"><tspan font-style="normal" class="text-inner-tspan" font-weight="normal">ComparisonId</tspan></tspan></text></g><g class="label attribute-keys" transform="translate(128.72265625, 27.75)" style=""><g><rect class="background" style="stroke: none"/></g><text y="-10.1" style=""><tspan class="text-outer-tspan row" x="0" y="-0.1em" dy="1.1em"><tspan font-style="normal" class="text-inner-tspan" font-weight="normal">FK</tspan></tspan></text></g><g class="label attribute-comment" transform="translate(175.39453125, 27.75)" style=""><g><rect class="background" style="stroke: none"/></g><text y="-10.1" style=""><tspan class="text-outer-tspan row" x="0" y="-0.1em" dy="1.1em"/></text></g><g class="divider"><path d="M-162.89453125 -18.37505 L-162.89453125 -18.37495 L162.89453125 -18.37495 L162.89453125 -18.37505" stroke="none" stroke-width="0" fill="#ECECFF" fill-rule="evenodd"/><path d="M-162.89453125 -18.37505 C-162.89453125 -18.37502733737266, -162.89453125 -18.37500467474532, -162.89453125 -18.37495 M-162.89453125 -18.37505 C-162.89453125 -18.375027355153566, -162.89453125 -18.375004710307127, -162.89453125 -18.37495 M-162.89453125 -18.37495 C-75.07448640114838 -18.37495, 12.745558447703246 -18.37495, 162.89453125 -18.37495 M-162.89453125 -18.37495 C-92.02885699491678 -18.37495, -21.16318273983356 -18.37495, 162.89453125 -18.37495 M162.89453125 -18.37495 C162.89453125 -18.374973059984622, 162.89453125 -18.37499611996925, 162.89453125 -18.37505 M162.89453125 -18.37495 C162.89453125 -18.374977007036826, 162.89453125 -18.375004014073653, 162.89453125 -18.37505 M162.89453125 -18.37505 C52.25072578804803 -18.37505, -58.39307967390394 -18.37505, -162.89453125 -18.37505 M162.89453125 -18.37505 C50.052275577375966 -18.37505, -62.78998009524807 -18.37505, -162.89453125 -18.37505" stroke="#9370DB" stroke-width="1.3" fill="none" stroke-dasharray="0 0"/></g><g class="divider"><path d="M-99.08989375 -18.375 L-99.08979375 -18.375 L-99.08979375 55.125 L-99.08989375 55.125" stroke="none" stroke-width="0" fill="#ECECFF" fill-rule="evenodd"/><path d="M-99.08989375 -18.375 C-99.08987231333002 -18.375, -99.08985087666002 -18.375, -99.08979375 -18.375 M-99.08989375 -18.375 C-99.08987218080883 -18.375, -99.08985061161763 -18.375, -99.08979375 -18.375 M-99.08979375 -18.375 C-99.08979375 -0.5399796017307352, -99.08979375 17.29504079653853, -99.08979375 55.125 M-99.08979375 -18.375 C-99.08979375 -2.6238032990441003, -99.08979375 13.1273934019118, -99.08979375 55.125 M-99.08979375 55.125 C-99.08982487938474 55.125, -99.08985600876949 55.125, -99.08989375 55.125 M-99.08979375 55.125 C-99.08983001446602 55.125, -99.08986627893202 55.125, -99.08989375 55.125 M-99.08989375 55.125 C-99.08989375 36.67630111316515, -99.08989375 18.227602226330298, -99.08989375 -18.375 M-99.08989375 55.125 C-99.08989375 29.996626550691744, -99.08989375 4.8682531013834875, -99.08989375 -18.375" stroke="#9370DB" stroke-width="1.3" fill="none" stroke-dasharray="0 0"/></g><g class="divider"><path d="M116.22260625 -18.375 L116.22270625 -18.375 L116.22270625 55.125 L116.22260625 55.125" stroke="none" stroke-width="0" fill="#ECECFF" fill-rule="evenodd"/><path d="M116.22260625 -18.375 C116.22263790012475 -18.375, 116.2226695502495 -18.375, 116.22270625 -18.375 M116.22260625 -18.375 C116.22263109754098 -18.375, 116.22265594508198 -18.375, 116.22270625 -18.375 M116.22270625 -18.375 C116.22270625 6.453358962887119, 116.22270625 31.281717925774238, 116.22270625 55.125 M116.22270625 -18.375 C116.22270625 0.9047770650561091, 116.22270625 20.184554130112218, 116.22270625 55.125 M116.22270625 55.125 C116.22267818811476 55.125, 116.22265012622951 55.125, 116.22260625 55.125 M116.22270625 55.125 C116.22267125092762 55.125, 116.22263625185523 55.125, 116.22260625 55.125 M116.22260625 55.125 C116.22260625 28.99880303805923, 116.22260625 2.8726060761184584, 116.22260625 -18.375 M116.22260625 55.125 C116.22260625 35.30533278141343, 116.22260625 15.485665562826867, 116.22260625 -18.375" stroke="#9370DB" stroke-width="1.3" fill="none" stroke-dasharray="0 0"/></g><g class="divider"><path d="M-162.89453125 -18.37505 L-162.89453125 -18.37495 L162.89453125 -18.37495 L162.89453125 -18.37505" stroke="none" stroke-width="0" fill="#ECECFF" fill-rule="evenodd"/><path d="M-162.89453125 -18.37505 C-162.89453125 -18.375027679114485, -162.89453125 -18.375005358228965, -162.89453125 -18.37495 M-162.89453125 -18.37505 C-162.89453125 -18.37502058998471, -162.89453125 -18.37499117996942, -162.89453125 -18.37495 M-162.89453125 -18.37495 C-81.18174762487229 -18.37495, 0.5310360002554262 -18.37495, 162.89453125 -18.37495 M-162.89453125 -18.37495 C-58.414139341279096 -18.37495, 46.06625256744181 -18.37495, 162.89453125 -18.37495 M162.89453125 -18.37495 C162.89453125 -18.374983617735474, 162.89453125 -18.37501723547095, 162.89453125 -18.37505 M162.89453125 -18.37495 C162.89453125 -18.374972981296843, 162.89453125 -18.374995962593687, 162.89453125 -18.37505 M162.89453125 -18.37505 C72.531321720373 -18.37505, -17.831887809254 -18.37505, -162.89453125 -18.37505 M162.89453125 -18.37505 C95.2621060848283 -18.37505, 27.629680919656607 -18.37505, -162.89453125 -18.37505" stroke="#9370DB" stroke-width="1.3" fill="none" stroke-dasharray="0 0"/></g></g></g></g></g><defs><filter id="my-svg-drop-shadow" height="130%" width="130%"><feDropShadow dx="4" dy="4" stdDeviation="0" flood-opacity="0.06" flood-color="#000000"/></filter></defs><defs><filter id="my-svg-drop-shadow-small" height="150%" width="150%"><feDropShadow dx="2" dy="2" stdDeviation="0" flood-opacity="0.06" flood-color="#000000"/></filter></defs></svg>